solid OpenSCAD_Model
  facet normal 1 -0 0
    outer loop
      vertex -11.0015 7.058 -13.87
      vertex -11.0015 7.758 -17.87
      vertex -11.0015 7.758 -13.87
    endloop
  endfacet
  facet normal 1 0 0
    outer loop
      vertex -11.0015 7.758 -17.87
      vertex -11.0015 7.058 -13.87
      vertex -11.0015 7.058 -17.87
    endloop
  endfacet
  facet normal -0 0 1
    outer loop
      vertex -3.40151 7.758 -17.27
      vertex 0.398509 7.058 -17.27
      vertex 0.398509 7.758 -17.27
    endloop
  endfacet
  facet normal 0 0 1
    outer loop
      vertex 0.398509 7.058 -17.27
      vertex -3.40151 7.758 -17.27
      vertex -3.40151 7.058 -17.27
    endloop
  endfacet
  facet normal -1 0 0
    outer loop
      vertex -4.0015 7.058 -18.47
      vertex -4.0015 7.758 -17.87
      vertex -4.0015 7.758 -18.47
    endloop
  endfacet
  facet normal -1 -0 0
    outer loop
      vertex -4.0015 7.758 -17.87
      vertex -4.0015 7.058 -18.47
      vertex -4.0015 7.058 -17.87
    endloop
  endfacet
  facet normal 1 -0 0
    outer loop
      vertex 0.9985 7.058 -17.87
      vertex 0.9985 7.758 -18.47
      vertex 0.9985 7.758 -17.87
    endloop
  endfacet
  facet normal 1 0 0
    outer loop
      vertex 0.9985 7.758 -18.47
      vertex 0.9985 7.058 -17.87
      vertex 0.9985 7.058 -18.47
    endloop
  endfacet
  facet normal -1 0 0
    outer loop
      vertex 7.9985 7.058 -17.87
      vertex 7.9985 7.758 -13.87
      vertex 7.9985 7.758 -17.87
    endloop
  endfacet
  facet normal -1 -0 0
    outer loop
      vertex 7.9985 7.758 -13.87
      vertex 7.9985 7.058 -17.87
      vertex 7.9985 7.058 -13.87
    endloop
  endfacet
  facet normal 0 0 -1
    outer loop
      vertex -11.0015 7.058 -13.87
      vertex 7.9985 7.758 -13.87
      vertex 7.9985 7.058 -13.87
    endloop
  endfacet
  facet normal -0 0 -1
    outer loop
      vertex 7.9985 7.758 -13.87
      vertex -11.0015 7.058 -13.87
      vertex -11.0015 7.758 -13.87
    endloop
  endfacet
  facet normal 0 0 -1
    outer loop
      vertex -4.0015 7.058 -18.47
      vertex 0.9985 7.758 -18.47
      vertex 0.9985 7.058 -18.47
    endloop
  endfacet
  facet normal -0 0 -1
    outer loop
      vertex 0.9985 7.758 -18.47
      vertex -4.0015 7.058 -18.47
      vertex -4.0015 7.758 -18.47
    endloop
  endfacet
  facet normal 0.707107 0 -0.707107
    outer loop
      vertex -11.0015 7.058 -17.87
      vertex -11.6015 7.758 -18.47
      vertex -11.0015 7.758 -17.87
    endloop
  endfacet
  facet normal 0.707107 0 -0.707107
    outer loop
      vertex -11.6015 7.758 -18.47
      vertex -11.0015 7.058 -17.87
      vertex -11.6015 7.058 -18.47
    endloop
  endfacet
  facet normal -0.707119 0 -0.707095
    outer loop
      vertex 8.59848 7.058 -18.47
      vertex 7.9985 7.758 -17.87
      vertex 8.59848 7.758 -18.47
    endloop
  endfacet
  facet normal -0.707119 -0 -0.707095
    outer loop
      vertex 7.9985 7.758 -17.87
      vertex 8.59848 7.058 -18.47
      vertex 7.9985 7.058 -17.87
    endloop
  endfacet
  facet normal -0.707113 0 0.707101
    outer loop
      vertex -4.0015 7.058 -17.87
      vertex -3.40151 7.758 -17.27
      vertex -4.0015 7.758 -17.87
    endloop
  endfacet
  facet normal -0.707113 0 0.707101
    outer loop
      vertex -3.40151 7.758 -17.27
      vertex -4.0015 7.058 -17.87
      vertex -3.40151 7.058 -17.27
    endloop
  endfacet
  facet normal 0.707112 -0 0.707101
    outer loop
      vertex 0.398509 7.058 -17.27
      vertex 0.9985 7.758 -17.87
      vertex 0.398509 7.758 -17.27
    endloop
  endfacet
  facet normal 0.707112 0 0.707101
    outer loop
      vertex 0.9985 7.758 -17.87
      vertex 0.398509 7.058 -17.27
      vertex 0.9985 7.058 -17.87
    endloop
  endfacet
  facet normal 1 -0 0
    outer loop
      vertex -12.614 7.5 -11.4
      vertex -12.614 7.758 -12.27
      vertex -12.614 7.758 -11.4
    endloop
  endfacet
  facet normal 1 0 0
    outer loop
      vertex -12.614 7.758 -12.27
      vertex -12.614 7.5 -11.4
      vertex -12.614 7.5 -12.27
    endloop
  endfacet
  facet normal -1 0 0
    outer loop
      vertex 9.611 7.058 -12.27
      vertex 9.611 7.758 -11.4
      vertex 9.611 7.758 -12.27
    endloop
  endfacet
  facet normal -1 -0 0
    outer loop
      vertex 9.611 7.758 -11.4
      vertex 9.611 7.058 -12.27
      vertex 9.611 7.058 -11.4
    endloop
  endfacet
  facet normal 0 0 1
    outer loop
      vertex -12.614 7.5 -12.27
      vertex 9.611 7.758 -12.27
      vertex -12.614 7.758 -12.27
    endloop
  endfacet
  facet normal 0 0 1
    outer loop
      vertex 9.611 7.758 -12.27
      vertex -12.614 7.5 -12.27
      vertex 9.611 7.058 -12.27
    endloop
  endfacet
  facet normal 0 0 1
    outer loop
      vertex -13.114 7.058 -12.27
      vertex -12.614 7.5 -12.27
      vertex -13.114 7.5 -12.27
    endloop
  endfacet
  facet normal 0 0 1
    outer loop
      vertex -12.614 7.5 -12.27
      vertex -13.114 7.058 -12.27
      vertex 9.611 7.058 -12.27
    endloop
  endfacet
  facet normal 1 -0 0
    outer loop
      vertex -13.114 7.058 -11.4
      vertex -13.114 7.5 -12.27
      vertex -13.114 7.5 -11.4
    endloop
  endfacet
  facet normal 1 0 0
    outer loop
      vertex -13.114 7.5 -12.27
      vertex -13.114 7.058 -11.4
      vertex -13.114 7.058 -12.27
    endloop
  endfacet
  facet normal 0 -1 0
    outer loop
      vertex -13.114 7.5 -12.27
      vertex -12.614 7.5 -11.4
      vertex -13.114 7.5 -11.4
    endloop
  endfacet
  facet normal 0 -1 -0
    outer loop
      vertex -12.614 7.5 -11.4
      vertex -13.114 7.5 -12.27
      vertex -12.614 7.5 -12.27
    endloop
  endfacet
  facet normal 0 0 -1
    outer loop
      vertex -4.0015 7.058 -17.27
      vertex 0.998489 7.758 -17.27
      vertex 0.998489 7.058 -17.27
    endloop
  endfacet
  facet normal -0 0 -1
    outer loop
      vertex 0.998489 7.758 -17.27
      vertex -4.0015 7.058 -17.27
      vertex -4.0015 7.758 -17.27
    endloop
  endfacet
  facet normal -0.514496 0 -0.857493
    outer loop
      vertex 0.998489 7.058 -17.27
      vertex 7.99849 7.758 -21.47
      vertex 7.99849 7.058 -21.47
    endloop
  endfacet
  facet normal -0.514496 0 -0.857493
    outer loop
      vertex 7.99849 7.758 -21.47
      vertex 0.998489 7.058 -17.27
      vertex 0.998489 7.758 -17.27
    endloop
  endfacet
  facet normal 0 0 -1
    outer loop
      vertex 7.99849 7.058 -21.47
      vertex 11.9985 7.758 -21.47
      vertex 11.9985 7.058 -21.47
    endloop
  endfacet
  facet normal -0 0 -1
    outer loop
      vertex 11.9985 7.758 -21.47
      vertex 7.99849 7.058 -21.47
      vertex 7.99849 7.758 -21.47
    endloop
  endfacet
  facet normal 1 -0 0
    outer loop
      vertex 11.9985 7.058 -18.47
      vertex 11.9985 7.758 -21.47
      vertex 11.9985 7.758 -18.47
    endloop
  endfacet
  facet normal 1 0 0
    outer loop
      vertex 11.9985 7.758 -21.47
      vertex 11.9985 7.058 -18.47
      vertex 11.9985 7.058 -21.47
    endloop
  endfacet
  facet normal -0 0 1
    outer loop
      vertex 7.99849 7.758 -18.47
      vertex 8.59848 7.058 -18.47
      vertex 8.59848 7.758 -18.47
    endloop
  endfacet
  facet normal 0 0 1
    outer loop
      vertex 8.59848 7.058 -18.47
      vertex 7.99849 7.758 -18.47
      vertex 7.99849 7.058 -18.47
    endloop
  endfacet
  facet normal 0.514496 0 0.857493
    outer loop
      vertex 0.998489 7.758 -14.27
      vertex 7.99849 7.058 -18.47
      vertex 7.99849 7.758 -18.47
    endloop
  endfacet
  facet normal 0.514496 0 0.857493
    outer loop
      vertex 7.99849 7.058 -18.47
      vertex 0.998489 7.758 -14.27
      vertex 0.998489 7.058 -14.27
    endloop
  endfacet
  facet normal -0 0 1
    outer loop
      vertex -4.0015 7.758 -14.27
      vertex 0.998489 7.058 -14.27
      vertex 0.998489 7.758 -14.27
    endloop
  endfacet
  facet normal 0 0 1
    outer loop
      vertex 0.998489 7.058 -14.27
      vertex -4.0015 7.758 -14.27
      vertex -4.0015 7.058 -14.27
    endloop
  endfacet
  facet normal -0.514496 0 0.857493
    outer loop
      vertex -11.0015 7.758 -18.47
      vertex -4.0015 7.058 -14.27
      vertex -4.0015 7.758 -14.27
    endloop
  endfacet
  facet normal -0.514496 0 0.857493
    outer loop
      vertex -4.0015 7.058 -14.27
      vertex -11.0015 7.758 -18.47
      vertex -11.0015 7.058 -18.47
    endloop
  endfacet
  facet normal -0 0 1
    outer loop
      vertex -11.6015 7.758 -18.47
      vertex -11.0015 7.058 -18.47
      vertex -11.0015 7.758 -18.47
    endloop
  endfacet
  facet normal 0 0 1
    outer loop
      vertex -11.0015 7.058 -18.47
      vertex -11.6015 7.758 -18.47
      vertex -11.6015 7.058 -18.47
    endloop
  endfacet
  facet normal -1 0 0
    outer loop
      vertex -15.0015 7.058 -21.47
      vertex -15.0015 7.758 -18.47
      vertex -15.0015 7.758 -21.47
    endloop
  endfacet
  facet normal -1 -0 0
    outer loop
      vertex -15.0015 7.758 -18.47
      vertex -15.0015 7.058 -21.47
      vertex -15.0015 7.058 -18.47
    endloop
  endfacet
  facet normal 0 0 -1
    outer loop
      vertex -15.0015 7.058 -21.47
      vertex -11.0015 7.758 -21.47
      vertex -11.0015 7.058 -21.47
    endloop
  endfacet
  facet normal -0 0 -1
    outer loop
      vertex -11.0015 7.758 -21.47
      vertex -15.0015 7.058 -21.47
      vertex -15.0015 7.758 -21.47
    endloop
  endfacet
  facet normal 0.514496 0 -0.857493
    outer loop
      vertex -11.0015 7.058 -21.47
      vertex -4.0015 7.758 -17.27
      vertex -4.0015 7.058 -17.27
    endloop
  endfacet
  facet normal 0.514496 0 -0.857493
    outer loop
      vertex -4.0015 7.758 -17.27
      vertex -11.0015 7.058 -21.47
      vertex -11.0015 7.758 -21.47
    endloop
  endfacet
  facet normal -1 0 0
    outer loop
      vertex -15.0015 7.058 -18.47
      vertex -15.0015 7.758 -11.4
      vertex -15.0015 7.758 -18.47
    endloop
  endfacet
  facet normal -1 -0 0
    outer loop
      vertex -15.0015 7.758 -11.4
      vertex -15.0015 7.058 -18.47
      vertex -15.0015 7.058 -11.4
    endloop
  endfacet
  facet normal -0 0 1
    outer loop
      vertex 9.611 7.758 -11.4
      vertex 11.9985 7.058 -11.4
      vertex 11.9985 7.758 -11.4
    endloop
  endfacet
  facet normal 0 0 1
    outer loop
      vertex 11.9985 7.058 -11.4
      vertex 9.611 7.758 -11.4
      vertex 9.611 7.058 -11.4
    endloop
  endfacet
  facet normal 0 0 1
    outer loop
      vertex -12.614 7.758 -11.4
      vertex -13.114 7.5 -11.4
      vertex -12.614 7.5 -11.4
    endloop
  endfacet
  facet normal -0 0 1
    outer loop
      vertex -15.0015 7.758 -11.4
      vertex -13.114 7.5 -11.4
      vertex -12.614 7.758 -11.4
    endloop
  endfacet
  facet normal 0 0 1
    outer loop
      vertex -15.0015 7.058 -11.4
      vertex -13.114 7.5 -11.4
      vertex -15.0015 7.758 -11.4
    endloop
  endfacet
  facet normal 0 0 1
    outer loop
      vertex -13.114 7.5 -11.4
      vertex -15.0015 7.058 -11.4
      vertex -13.114 7.058 -11.4
    endloop
  endfacet
  facet normal 1 -0 0
    outer loop
      vertex 11.9985 7.058 -11.4
      vertex 11.9985 7.758 -18.47
      vertex 11.9985 7.758 -11.4
    endloop
  endfacet
  facet normal 1 0 0
    outer loop
      vertex 11.9985 7.758 -18.47
      vertex 11.9985 7.058 -11.4
      vertex 11.9985 7.058 -18.47
    endloop
  endfacet
  facet normal 0 -1 0
    outer loop
      vertex -15.0015 7.058 -11.4
      vertex -13.114 7.058 -12.27
      vertex -13.114 7.058 -11.4
    endloop
  endfacet
  facet normal 0 -1 0
    outer loop
      vertex -13.114 7.058 -12.27
      vertex -11.0015 7.058 -13.87
      vertex 9.611 7.058 -12.27
    endloop
  endfacet
  facet normal 0 -1 0
    outer loop
      vertex -15.0015 7.058 -18.47
      vertex -13.114 7.058 -12.27
      vertex -15.0015 7.058 -11.4
    endloop
  endfacet
  facet normal 0 -1 -0
    outer loop
      vertex -13.114 7.058 -12.27
      vertex -15.0015 7.058 -18.47
      vertex -11.0015 7.058 -13.87
    endloop
  endfacet
  facet normal 0 -1 -0
    outer loop
      vertex -11.0015 7.058 -13.87
      vertex -15.0015 7.058 -18.47
      vertex -11.0015 7.058 -17.87
    endloop
  endfacet
  facet normal 0 -1 0
    outer loop
      vertex -11.0015 7.058 -17.87
      vertex -15.0015 7.058 -18.47
      vertex -11.6015 7.058 -18.47
    endloop
  endfacet
  facet normal 0 -1 0
    outer loop
      vertex 9.611 7.058 -12.27
      vertex 11.9985 7.058 -11.4
      vertex 9.611 7.058 -11.4
    endloop
  endfacet
  facet normal 0 -1 0
    outer loop
      vertex 7.9985 7.058 -13.87
      vertex 9.611 7.058 -12.27
      vertex -11.0015 7.058 -13.87
    endloop
  endfacet
  facet normal 0 -1 0
    outer loop
      vertex 11.9985 7.058 -18.47
      vertex 9.611 7.058 -12.27
      vertex 7.9985 7.058 -13.87
    endloop
  endfacet
  facet normal 0 -1 0
    outer loop
      vertex 11.9985 7.058 -18.47
      vertex 7.9985 7.058 -13.87
      vertex 7.9985 7.058 -17.87
    endloop
  endfacet
  facet normal 0 -1 0
    outer loop
      vertex 11.9985 7.058 -18.47
      vertex 7.9985 7.058 -17.87
      vertex 8.59848 7.058 -18.47
    endloop
  endfacet
  facet normal 0 -1 0
    outer loop
      vertex 9.611 7.058 -12.27
      vertex 11.9985 7.058 -18.47
      vertex 11.9985 7.058 -11.4
    endloop
  endfacet
  facet normal 0 -1 0
    outer loop
      vertex -4.0015 7.058 -14.27
      vertex -4.0015 7.058 -17.27
      vertex 0.998489 7.058 -14.27
    endloop
  endfacet
  facet normal 0 -1 0
    outer loop
      vertex -11.0015 7.058 -18.47
      vertex -4.0015 7.058 -17.27
      vertex -4.0015 7.058 -14.27
    endloop
  endfacet
  facet normal 0 -1 0
    outer loop
      vertex -15.0015 7.058 -21.47
      vertex -11.6015 7.058 -18.47
      vertex -15.0015 7.058 -18.47
    endloop
  endfacet
  facet normal 0 -1 0
    outer loop
      vertex -11.0015 7.058 -21.47
      vertex -11.6015 7.058 -18.47
      vertex -15.0015 7.058 -21.47
    endloop
  endfacet
  facet normal 0 -1 0
    outer loop
      vertex -11.6015 7.058 -18.47
      vertex -11.0015 7.058 -21.47
      vertex -11.0015 7.058 -18.47
    endloop
  endfacet
  facet normal 0 -1 0
    outer loop
      vertex -11.0015 7.058 -18.47
      vertex -11.0015 7.058 -21.47
      vertex -4.0015 7.058 -17.27
    endloop
  endfacet
  facet normal 0 -1 0
    outer loop
      vertex 0.998489 7.058 -17.27
      vertex 0.998489 7.058 -14.27
      vertex -4.0015 7.058 -17.27
    endloop
  endfacet
  facet normal 0 -1 0
    outer loop
      vertex 0.998489 7.058 -17.27
      vertex 7.99849 7.058 -18.47
      vertex 0.998489 7.058 -14.27
    endloop
  endfacet
  facet normal 0 -1 0
    outer loop
      vertex 7.99849 7.058 -21.47
      vertex 8.59848 7.058 -18.47
      vertex 7.99849 7.058 -18.47
    endloop
  endfacet
  facet normal 0 -1 0
    outer loop
      vertex 7.99849 7.058 -21.47
      vertex 7.99849 7.058 -18.47
      vertex 0.998489 7.058 -17.27
    endloop
  endfacet
  facet normal 0 -1 0
    outer loop
      vertex 11.9985 7.058 -21.47
      vertex 8.59848 7.058 -18.47
      vertex 7.99849 7.058 -21.47
    endloop
  endfacet
  facet normal 0 -1 0
    outer loop
      vertex 8.59848 7.058 -18.47
      vertex 11.9985 7.058 -21.47
      vertex 11.9985 7.058 -18.47
    endloop
  endfacet
  facet normal 0 -1 0
    outer loop
      vertex -4.0015 7.058 -18.47
      vertex -3.40151 7.058 -17.27
      vertex -4.0015 7.058 -17.87
    endloop
  endfacet
  facet normal 0 -1 -0
    outer loop
      vertex -3.40151 7.058 -17.27
      vertex -4.0015 7.058 -18.47
      vertex 0.398509 7.058 -17.27
    endloop
  endfacet
  facet normal 0 -1 0
    outer loop
      vertex 0.9985 7.058 -18.47
      vertex 0.398509 7.058 -17.27
      vertex -4.0015 7.058 -18.47
    endloop
  endfacet
  facet normal 0 -1 0
    outer loop
      vertex 0.398509 7.058 -17.27
      vertex 0.9985 7.058 -18.47
      vertex 0.9985 7.058 -17.87
    endloop
  endfacet
  facet normal 0 1 0
    outer loop
      vertex 11.9985 7.758 -11.4
      vertex 9.611 7.758 -12.27
      vertex 9.611 7.758 -11.4
    endloop
  endfacet
  facet normal 0 1 0
    outer loop
      vertex 9.611 7.758 -12.27
      vertex 7.9985 7.758 -13.87
      vertex -12.614 7.758 -12.27
    endloop
  endfacet
  facet normal 0 1 -0
    outer loop
      vertex 11.9985 7.758 -18.47
      vertex 9.611 7.758 -12.27
      vertex 11.9985 7.758 -11.4
    endloop
  endfacet
  facet normal 0 1 0
    outer loop
      vertex 9.611 7.758 -12.27
      vertex 11.9985 7.758 -18.47
      vertex 7.9985 7.758 -13.87
    endloop
  endfacet
  facet normal 0 1 0
    outer loop
      vertex 7.9985 7.758 -13.87
      vertex 11.9985 7.758 -18.47
      vertex 7.9985 7.758 -17.87
    endloop
  endfacet
  facet normal 0 1 0
    outer loop
      vertex 7.9985 7.758 -17.87
      vertex 11.9985 7.758 -18.47
      vertex 8.59848 7.758 -18.47
    endloop
  endfacet
  facet normal 0 1 -0
    outer loop
      vertex -12.614 7.758 -12.27
      vertex -15.0015 7.758 -11.4
      vertex -12.614 7.758 -11.4
    endloop
  endfacet
  facet normal 0 1 -0
    outer loop
      vertex -11.0015 7.758 -13.87
      vertex -12.614 7.758 -12.27
      vertex 7.9985 7.758 -13.87
    endloop
  endfacet
  facet normal 0 1 0
    outer loop
      vertex -15.0015 7.758 -18.47
      vertex -12.614 7.758 -12.27
      vertex -11.0015 7.758 -13.87
    endloop
  endfacet
  facet normal 0 1 0
    outer loop
      vertex -15.0015 7.758 -18.47
      vertex -11.0015 7.758 -13.87
      vertex -11.0015 7.758 -17.87
    endloop
  endfacet
  facet normal 0 1 0
    outer loop
      vertex -15.0015 7.758 -18.47
      vertex -11.0015 7.758 -17.87
      vertex -11.6015 7.758 -18.47
    endloop
  endfacet
  facet normal 0 1 0
    outer loop
      vertex -12.614 7.758 -12.27
      vertex -15.0015 7.758 -18.47
      vertex -15.0015 7.758 -11.4
    endloop
  endfacet
  facet normal 0 1 0
    outer loop
      vertex 0.998489 7.758 -14.27
      vertex 0.998489 7.758 -17.27
      vertex -4.0015 7.758 -14.27
    endloop
  endfacet
  facet normal 0 1 0
    outer loop
      vertex 7.99849 7.758 -18.47
      vertex 0.998489 7.758 -17.27
      vertex 0.998489 7.758 -14.27
    endloop
  endfacet
  facet normal 0 1 -0
    outer loop
      vertex 11.9985 7.758 -21.47
      vertex 8.59848 7.758 -18.47
      vertex 11.9985 7.758 -18.47
    endloop
  endfacet
  facet normal 0 1 0
    outer loop
      vertex 7.99849 7.758 -21.47
      vertex 8.59848 7.758 -18.47
      vertex 11.9985 7.758 -21.47
    endloop
  endfacet
  facet normal 0 1 0
    outer loop
      vertex 8.59848 7.758 -18.47
      vertex 7.99849 7.758 -21.47
      vertex 7.99849 7.758 -18.47
    endloop
  endfacet
  facet normal 0 1 0
    outer loop
      vertex 7.99849 7.758 -18.47
      vertex 7.99849 7.758 -21.47
      vertex 0.998489 7.758 -17.27
    endloop
  endfacet
  facet normal 0 1 0
    outer loop
      vertex -4.0015 7.758 -17.27
      vertex -4.0015 7.758 -14.27
      vertex 0.998489 7.758 -17.27
    endloop
  endfacet
  facet normal 0 1 -0
    outer loop
      vertex -4.0015 7.758 -17.27
      vertex -11.0015 7.758 -18.47
      vertex -4.0015 7.758 -14.27
    endloop
  endfacet
  facet normal 0 1 -0
    outer loop
      vertex -11.0015 7.758 -21.47
      vertex -11.6015 7.758 -18.47
      vertex -11.0015 7.758 -18.47
    endloop
  endfacet
  facet normal 0 1 0
    outer loop
      vertex -11.0015 7.758 -21.47
      vertex -11.0015 7.758 -18.47
      vertex -4.0015 7.758 -17.27
    endloop
  endfacet
  facet normal 0 1 0
    outer loop
      vertex -15.0015 7.758 -21.47
      vertex -11.6015 7.758 -18.47
      vertex -11.0015 7.758 -21.47
    endloop
  endfacet
  facet normal 0 1 0
    outer loop
      vertex -11.6015 7.758 -18.47
      vertex -15.0015 7.758 -21.47
      vertex -15.0015 7.758 -18.47
    endloop
  endfacet
  facet normal 0 1 -0
    outer loop
      vertex 0.9985 7.758 -18.47
      vertex 0.398509 7.758 -17.27
      vertex 0.9985 7.758 -17.87
    endloop
  endfacet
  facet normal 0 1 0
    outer loop
      vertex 0.398509 7.758 -17.27
      vertex 0.9985 7.758 -18.47
      vertex -3.40151 7.758 -17.27
    endloop
  endfacet
  facet normal 0 1 0
    outer loop
      vertex -4.0015 7.758 -18.47
      vertex -3.40151 7.758 -17.27
      vertex 0.9985 7.758 -18.47
    endloop
  endfacet
  facet normal 0 1 0
    outer loop
      vertex -3.40151 7.758 -17.27
      vertex -4.0015 7.758 -18.47
      vertex -4.0015 7.758 -17.87
    endloop
  endfacet
endsolid OpenSCAD_Model
