solid OpenSCAD_Model
  facet normal -1 0 0
    outer loop
      vertex -15.2015 28.295 1.14441e-07
      vertex -15.2015 26.5075 3.5
      vertex -15.2015 28.295 3.5
    endloop
  endfacet
  facet normal -1 0 0
    outer loop
      vertex -15.2015 26.5075 3.5
      vertex -15.2015 -11.6915 3.5
      vertex -15.2015 26.5075 5.5
    endloop
  endfacet
  facet normal -1 0 0
    outer loop
      vertex -15.2015 28.295 1.14441e-07
      vertex -15.2015 -11.6915 3.5
      vertex -15.2015 26.5075 3.5
    endloop
  endfacet
  facet normal -1 0 0
    outer loop
      vertex -15.2015 -13.479 1.14441e-07
      vertex -15.2015 -11.6915 3.5
      vertex -15.2015 28.295 1.14441e-07
    endloop
  endfacet
  facet normal -1 -0 0
    outer loop
      vertex -15.2015 -11.6915 3.5
      vertex -15.2015 -13.479 1.14441e-07
      vertex -15.2015 -13.479 3.5
    endloop
  endfacet
  facet normal -1 -0 0
    outer loop
      vertex -15.2015 26.5075 5.5
      vertex -15.2015 -11.6915 3.5
      vertex -15.2015 -11.6915 5.5
    endloop
  endfacet
  facet normal 1 0 0
    outer loop
      vertex -13.2015 28.295 5.5
      vertex -13.2015 17.408 1.3
      vertex -13.2015 28.295 1.2
    endloop
  endfacet
  facet normal 1 0 0
    outer loop
      vertex -13.2015 28.295 5.5
      vertex -13.2015 -2.592 1.3
      vertex -13.2015 17.408 1.3
    endloop
  endfacet
  facet normal 1 -0 0
    outer loop
      vertex -13.2015 -13.479 5.5
      vertex -13.2015 -2.592 1.3
      vertex -13.2015 28.295 5.5
    endloop
  endfacet
  facet normal 1 0 0
    outer loop
      vertex -13.2015 -13.479 1.2
      vertex -13.2015 -2.592 1.3
      vertex -13.2015 -13.479 5.5
    endloop
  endfacet
  facet normal 1 0 0
    outer loop
      vertex -13.2015 -2.592 1.3
      vertex -13.2015 -13.479 1.2
      vertex -13.2015 -2.592 1.2
    endloop
  endfacet
  facet normal 1 0 0
    outer loop
      vertex -13.2015 28.295 1.2
      vertex -13.2015 17.408 1.3
      vertex -13.2015 17.408 1.2
    endloop
  endfacet
  facet normal 0 1 0
    outer loop
      vertex -10.2015 28.295 1.2
      vertex -10.2015 28.295 1.14441e-07
      vertex -13.2015 28.295 1.2
    endloop
  endfacet
  facet normal 0 1 0
    outer loop
      vertex 12.1985 28.295 3.5
      vertex 10.1985 28.295 1.2
      vertex 10.411 28.295 3.5
    endloop
  endfacet
  facet normal 0 1 -0
    outer loop
      vertex 12.1985 28.295 1.14441e-07
      vertex 10.1985 28.295 1.2
      vertex 12.1985 28.295 3.5
    endloop
  endfacet
  facet normal 0 1 0
    outer loop
      vertex 7.1985 28.295 1.14441e-07
      vertex 10.1985 28.295 1.2
      vertex 12.1985 28.295 1.14441e-07
    endloop
  endfacet
  facet normal 0 1 0
    outer loop
      vertex 10.1985 28.295 1.2
      vertex 7.1985 28.295 1.14441e-07
      vertex 7.1985 28.295 1.2
    endloop
  endfacet
  facet normal 0 1 0
    outer loop
      vertex 2.495 28.295 18.92
      vertex 10.411 28.295 26.33
      vertex 8.495 28.295 18.92
    endloop
  endfacet
  facet normal 0 1 0
    outer loop
      vertex 10.411 28.295 26.33
      vertex 8.495 28.295 17.82
      vertex 8.495 28.295 18.92
    endloop
  endfacet
  facet normal 0 1 0
    outer loop
      vertex 8.495 28.295 17.82
      vertex 10.1985 28.295 5.5
      vertex 2.495 28.295 17.82
    endloop
  endfacet
  facet normal 0 1 0
    outer loop
      vertex 10.411 28.295 26.33
      vertex 10.1985 28.295 5.5
      vertex 8.495 28.295 17.82
    endloop
  endfacet
  facet normal 0 1 -0
    outer loop
      vertex 10.411 28.295 3.5
      vertex 10.1985 28.295 5.5
      vertex 10.411 28.295 26.33
    endloop
  endfacet
  facet normal 0 1 0
    outer loop
      vertex 10.1985 28.295 5.5
      vertex 10.411 28.295 3.5
      vertex 10.1985 28.295 1.2
    endloop
  endfacet
  facet normal 0 1 0
    outer loop
      vertex 10.411 28.295 26.33
      vertex 2.495 28.295 18.92
      vertex -13.414 28.295 26.33
    endloop
  endfacet
  facet normal 0 1 -0
    outer loop
      vertex 2.495 28.295 17.82
      vertex -13.414 28.295 26.33
      vertex 2.495 28.295 18.92
    endloop
  endfacet
  facet normal 0 1 0
    outer loop
      vertex -13.2015 28.295 5.5
      vertex 2.495 28.295 17.82
      vertex 10.1985 28.295 5.5
    endloop
  endfacet
  facet normal 0 1 0
    outer loop
      vertex 2.495 28.295 17.82
      vertex -13.2015 28.295 5.5
      vertex -13.414 28.295 26.33
    endloop
  endfacet
  facet normal 0 1 0
    outer loop
      vertex -13.2015 28.295 5.5
      vertex -13.414 28.295 3.5
      vertex -13.414 28.295 26.33
    endloop
  endfacet
  facet normal 0 1 -0
    outer loop
      vertex -13.2015 28.295 1.2
      vertex -13.414 28.295 3.5
      vertex -13.2015 28.295 5.5
    endloop
  endfacet
  facet normal 0 1 0
    outer loop
      vertex -13.2015 28.295 1.2
      vertex -15.2015 28.295 3.5
      vertex -13.414 28.295 3.5
    endloop
  endfacet
  facet normal 0 1 0
    outer loop
      vertex -13.2015 28.295 1.2
      vertex -15.2015 28.295 1.14441e-07
      vertex -15.2015 28.295 3.5
    endloop
  endfacet
  facet normal 0 1 0
    outer loop
      vertex -15.2015 28.295 1.14441e-07
      vertex -13.2015 28.295 1.2
      vertex -10.2015 28.295 1.14441e-07
    endloop
  endfacet
  facet normal 0 0 -1
    outer loop
      vertex -10.2015 -13.479 1.14441e-07
      vertex -14.2015 -2.592 1.14441e-07
      vertex -10.2015 -2.592 1.14441e-07
    endloop
  endfacet
  facet normal -0 0 -1
    outer loop
      vertex -14.2015 -2.592 1.14441e-07
      vertex -15.2015 -13.479 1.14441e-07
      vertex -14.2015 17.408 1.14441e-07
    endloop
  endfacet
  facet normal 0 0 -1
    outer loop
      vertex -15.2015 -13.479 1.14441e-07
      vertex -14.2015 -2.592 1.14441e-07
      vertex -10.2015 -13.479 1.14441e-07
    endloop
  endfacet
  facet normal 0 0 -1
    outer loop
      vertex -14.2015 17.408 1.14441e-07
      vertex -10.2015 28.295 1.14441e-07
      vertex -10.2015 17.408 1.14441e-07
    endloop
  endfacet
  facet normal 0 0 -1
    outer loop
      vertex -14.2015 17.408 1.14441e-07
      vertex -15.2015 28.295 1.14441e-07
      vertex -10.2015 28.295 1.14441e-07
    endloop
  endfacet
  facet normal 0 0 -1
    outer loop
      vertex -15.2015 28.295 1.14441e-07
      vertex -14.2015 17.408 1.14441e-07
      vertex -15.2015 -13.479 1.14441e-07
    endloop
  endfacet
  facet normal 0 -1 0
    outer loop
      vertex 7.1985 -13.479 1.2
      vertex 7.1985 -13.479 1.14441e-07
      vertex 10.1985 -13.479 1.2
    endloop
  endfacet
  facet normal 0 -1 0
    outer loop
      vertex -15.2015 -13.479 3.5
      vertex -13.2015 -13.479 1.2
      vertex -13.414 -13.479 3.5
    endloop
  endfacet
  facet normal 0 -1 0
    outer loop
      vertex -15.2015 -13.479 1.14441e-07
      vertex -13.2015 -13.479 1.2
      vertex -15.2015 -13.479 3.5
    endloop
  endfacet
  facet normal 0 -1 0
    outer loop
      vertex -10.2015 -13.479 1.14441e-07
      vertex -13.2015 -13.479 1.2
      vertex -15.2015 -13.479 1.14441e-07
    endloop
  endfacet
  facet normal 0 -1 0
    outer loop
      vertex -13.2015 -13.479 1.2
      vertex -10.2015 -13.479 1.14441e-07
      vertex -10.2015 -13.479 1.2
    endloop
  endfacet
  facet normal 0 -1 0
    outer loop
      vertex -3.06 -13.479 24.15
      vertex -13.414 -13.479 26.33
      vertex -12.06 -13.479 24.15
    endloop
  endfacet
  facet normal 0 -1 0
    outer loop
      vertex -13.414 -13.479 26.33
      vertex -12.06 -13.479 20.97
      vertex -12.06 -13.479 24.15
    endloop
  endfacet
  facet normal 0 -1 0
    outer loop
      vertex -13.2015 -13.479 5.5
      vertex -3.06 -13.479 20.97
      vertex -12.06 -13.479 20.97
    endloop
  endfacet
  facet normal 0 -1 0
    outer loop
      vertex -3.06 -13.479 20.97
      vertex 2.495 -13.479 17.82
      vertex 2.495 -13.479 18.92
    endloop
  endfacet
  facet normal 0 -1 0
    outer loop
      vertex 10.1985 -13.479 5.5
      vertex 2.495 -13.479 17.82
      vertex -13.2015 -13.479 5.5
    endloop
  endfacet
  facet normal 0 -1 -0
    outer loop
      vertex -3.06 -13.479 20.97
      vertex -13.2015 -13.479 5.5
      vertex 2.495 -13.479 17.82
    endloop
  endfacet
  facet normal 0 -1 0
    outer loop
      vertex -13.414 -13.479 26.33
      vertex -13.2015 -13.479 5.5
      vertex -12.06 -13.479 20.97
    endloop
  endfacet
  facet normal 0 -1 0
    outer loop
      vertex -13.414 -13.479 3.5
      vertex -13.2015 -13.479 5.5
      vertex -13.414 -13.479 26.33
    endloop
  endfacet
  facet normal 0 -1 -0
    outer loop
      vertex -13.2015 -13.479 5.5
      vertex -13.414 -13.479 3.5
      vertex -13.2015 -13.479 1.2
    endloop
  endfacet
  facet normal 0 -1 0
    outer loop
      vertex -13.414 -13.479 26.33
      vertex -3.06 -13.479 24.15
      vertex 10.411 -13.479 26.33
    endloop
  endfacet
  facet normal 0 -1 0
    outer loop
      vertex 2.495 -13.479 18.92
      vertex -3.06 -13.479 24.15
      vertex -3.06 -13.479 20.97
    endloop
  endfacet
  facet normal 0 -1 0
    outer loop
      vertex -3.06 -13.479 24.15
      vertex 2.495 -13.479 18.92
      vertex 10.411 -13.479 26.33
    endloop
  endfacet
  facet normal 0 -1 0
    outer loop
      vertex 8.495 -13.479 18.92
      vertex 10.411 -13.479 26.33
      vertex 2.495 -13.479 18.92
    endloop
  endfacet
  facet normal 0 -1 0
    outer loop
      vertex 8.495 -13.479 17.82
      vertex 10.411 -13.479 26.33
      vertex 8.495 -13.479 18.92
    endloop
  endfacet
  facet normal 0 -1 0
    outer loop
      vertex 2.495 -13.479 17.82
      vertex 10.1985 -13.479 5.5
      vertex 8.495 -13.479 17.82
    endloop
  endfacet
  facet normal 0 -1 0
    outer loop
      vertex 10.1985 -13.479 5.5
      vertex 10.411 -13.479 26.33
      vertex 8.495 -13.479 17.82
    endloop
  endfacet
  facet normal 0 -1 0
    outer loop
      vertex 10.1985 -13.479 5.5
      vertex 10.411 -13.479 3.5
      vertex 10.411 -13.479 26.33
    endloop
  endfacet
  facet normal 0 -1 0
    outer loop
      vertex 10.1985 -13.479 1.2
      vertex 10.411 -13.479 3.5
      vertex 10.1985 -13.479 5.5
    endloop
  endfacet
  facet normal 0 -1 0
    outer loop
      vertex 10.1985 -13.479 1.2
      vertex 12.1985 -13.479 3.5
      vertex 10.411 -13.479 3.5
    endloop
  endfacet
  facet normal 0 -1 0
    outer loop
      vertex 10.1985 -13.479 1.2
      vertex 12.1985 -13.479 1.14441e-07
      vertex 12.1985 -13.479 3.5
    endloop
  endfacet
  facet normal 0 -1 0
    outer loop
      vertex 12.1985 -13.479 1.14441e-07
      vertex 10.1985 -13.479 1.2
      vertex 7.1985 -13.479 1.14441e-07
    endloop
  endfacet
  facet normal -0 0 1
    outer loop
      vertex -13.2015 -2.592 1.2
      vertex -10.2015 -13.479 1.2
      vertex -10.2015 -2.592 1.2
    endloop
  endfacet
  facet normal 0 0 1
    outer loop
      vertex -10.2015 -13.479 1.2
      vertex -13.2015 -2.592 1.2
      vertex -13.2015 -13.479 1.2
    endloop
  endfacet
  facet normal -0 0 1
    outer loop
      vertex -13.2015 28.295 1.2
      vertex -10.2015 17.408 1.2
      vertex -10.2015 28.295 1.2
    endloop
  endfacet
  facet normal 0 0 1
    outer loop
      vertex -10.2015 17.408 1.2
      vertex -13.2015 28.295 1.2
      vertex -13.2015 17.408 1.2
    endloop
  endfacet
  facet normal 1 -0 0
    outer loop
      vertex -10.2015 -13.479 1.2
      vertex -10.2015 -2.592 1.14441e-07
      vertex -10.2015 -2.592 1.2
    endloop
  endfacet
  facet normal 1 0 0
    outer loop
      vertex -10.2015 -2.592 1.14441e-07
      vertex -10.2015 -13.479 1.2
      vertex -10.2015 -13.479 1.14441e-07
    endloop
  endfacet
  facet normal 1 -0 0
    outer loop
      vertex -10.2015 17.408 1.2
      vertex -10.2015 28.295 1.14441e-07
      vertex -10.2015 28.295 1.2
    endloop
  endfacet
  facet normal 1 0 0
    outer loop
      vertex -10.2015 28.295 1.14441e-07
      vertex -10.2015 17.408 1.2
      vertex -10.2015 17.408 1.14441e-07
    endloop
  endfacet
  facet normal -1 0 0
    outer loop
      vertex 10.1985 -2.592 1.2
      vertex 10.1985 -13.479 1.2
      vertex 10.1985 -2.592 1.3
    endloop
  endfacet
  facet normal -1 0 0
    outer loop
      vertex 10.1985 17.408 1.3
      vertex 10.1985 28.295 1.2
      vertex 10.1985 17.408 1.2
    endloop
  endfacet
  facet normal -1 0 0
    outer loop
      vertex 10.1985 28.295 1.2
      vertex 10.1985 17.408 1.3
      vertex 10.1985 28.295 5.5
    endloop
  endfacet
  facet normal -1 0 0
    outer loop
      vertex 10.1985 -2.592 1.3
      vertex 10.1985 28.295 5.5
      vertex 10.1985 17.408 1.3
    endloop
  endfacet
  facet normal -1 0 0
    outer loop
      vertex 10.1985 -13.479 5.5
      vertex 10.1985 -2.592 1.3
      vertex 10.1985 -13.479 1.2
    endloop
  endfacet
  facet normal -1 0 0
    outer loop
      vertex 10.1985 -2.592 1.3
      vertex 10.1985 -13.479 5.5
      vertex 10.1985 28.295 5.5
    endloop
  endfacet
  facet normal 1 0 0
    outer loop
      vertex 12.1985 26.5075 5.5
      vertex 12.1985 -11.6915 5.5
      vertex 12.1985 26.5075 3.5
    endloop
  endfacet
  facet normal 1 -0 0
    outer loop
      vertex 12.1985 26.5075 3.5
      vertex 12.1985 28.295 1.14441e-07
      vertex 12.1985 28.295 3.5
    endloop
  endfacet
  facet normal 1 0 0
    outer loop
      vertex 12.1985 -11.6915 3.5
      vertex 12.1985 26.5075 3.5
      vertex 12.1985 -11.6915 5.5
    endloop
  endfacet
  facet normal 1 0 0
    outer loop
      vertex 12.1985 26.5075 3.5
      vertex 12.1985 -11.6915 3.5
      vertex 12.1985 28.295 1.14441e-07
    endloop
  endfacet
  facet normal 1 0 0
    outer loop
      vertex 12.1985 -13.479 1.14441e-07
      vertex 12.1985 -11.6915 3.5
      vertex 12.1985 -13.479 3.5
    endloop
  endfacet
  facet normal 1 0 0
    outer loop
      vertex 12.1985 -11.6915 3.5
      vertex 12.1985 -13.479 1.14441e-07
      vertex 12.1985 28.295 1.14441e-07
    endloop
  endfacet
  facet normal 0 0 -1
    outer loop
      vertex 12.1985 -13.479 1.14441e-07
      vertex 11.1985 -2.592 1.14441e-07
      vertex 12.1985 28.295 1.14441e-07
    endloop
  endfacet
  facet normal 0 0 -1
    outer loop
      vertex 7.1985 -13.479 1.14441e-07
      vertex 11.1985 -2.592 1.14441e-07
      vertex 12.1985 -13.479 1.14441e-07
    endloop
  endfacet
  facet normal -0 0 -1
    outer loop
      vertex 11.1985 -2.592 1.14441e-07
      vertex 7.1985 -13.479 1.14441e-07
      vertex 7.1985 -2.592 1.14441e-07
    endloop
  endfacet
  facet normal 0 0 -1
    outer loop
      vertex 11.1985 17.408 1.14441e-07
      vertex 12.1985 28.295 1.14441e-07
      vertex 11.1985 -2.592 1.14441e-07
    endloop
  endfacet
  facet normal 0 0 -1
    outer loop
      vertex 7.1985 28.295 1.14441e-07
      vertex 11.1985 17.408 1.14441e-07
      vertex 7.1985 17.408 1.14441e-07
    endloop
  endfacet
  facet normal 0 0 -1
    outer loop
      vertex 11.1985 17.408 1.14441e-07
      vertex 7.1985 28.295 1.14441e-07
      vertex 12.1985 28.295 1.14441e-07
    endloop
  endfacet
  facet normal -1 0 0
    outer loop
      vertex 7.1985 -13.479 1.14441e-07
      vertex 7.1985 -2.592 1.2
      vertex 7.1985 -2.592 1.14441e-07
    endloop
  endfacet
  facet normal -1 -0 0
    outer loop
      vertex 7.1985 -2.592 1.2
      vertex 7.1985 -13.479 1.14441e-07
      vertex 7.1985 -13.479 1.2
    endloop
  endfacet
  facet normal -1 0 0
    outer loop
      vertex 7.1985 17.408 1.14441e-07
      vertex 7.1985 28.295 1.2
      vertex 7.1985 28.295 1.14441e-07
    endloop
  endfacet
  facet normal -1 -0 0
    outer loop
      vertex 7.1985 28.295 1.2
      vertex 7.1985 17.408 1.14441e-07
      vertex 7.1985 17.408 1.2
    endloop
  endfacet
  facet normal -0 0 1
    outer loop
      vertex 7.1985 -2.592 1.2
      vertex 10.1985 -13.479 1.2
      vertex 10.1985 -2.592 1.2
    endloop
  endfacet
  facet normal 0 0 1
    outer loop
      vertex 10.1985 -13.479 1.2
      vertex 7.1985 -2.592 1.2
      vertex 7.1985 -13.479 1.2
    endloop
  endfacet
  facet normal -0 0 1
    outer loop
      vertex 7.1985 28.295 1.2
      vertex 10.1985 17.408 1.2
      vertex 10.1985 28.295 1.2
    endloop
  endfacet
  facet normal 0 0 1
    outer loop
      vertex 10.1985 17.408 1.2
      vertex 7.1985 28.295 1.2
      vertex 7.1985 17.408 1.2
    endloop
  endfacet
  facet normal -1 0 0
    outer loop
      vertex -15.214 -11.679 5.5
      vertex -15.214 26.495 26.33
      vertex -15.214 26.495 5.5
    endloop
  endfacet
  facet normal -1 -0 0
    outer loop
      vertex -15.214 26.495 26.33
      vertex -15.214 -11.679 5.5
      vertex -15.214 -11.679 26.33
    endloop
  endfacet
  facet normal 0 0 1
    outer loop
      vertex 12.211 26.495 26.33
      vertex 10.611 26.695 26.33
      vertex 12.211 -11.679 26.33
    endloop
  endfacet
  facet normal 0 0 1
    outer loop
      vertex 10.411 28.295 26.33
      vertex 10.611 26.695 26.33
      vertex 12.211 26.495 26.33
    endloop
  endfacet
  facet normal -0 0 1
    outer loop
      vertex -13.414 28.295 26.33
      vertex 10.611 26.695 26.33
      vertex 10.411 28.295 26.33
    endloop
  endfacet
  facet normal 0 0 1
    outer loop
      vertex -13.414 28.295 26.33
      vertex -13.614 26.695 26.33
      vertex 10.611 26.695 26.33
    endloop
  endfacet
  facet normal 0 0 1
    outer loop
      vertex -13.614 26.695 26.33
      vertex -15.214 26.495 26.33
      vertex -13.614 -11.879 26.33
    endloop
  endfacet
  facet normal 0 0 1
    outer loop
      vertex -15.214 26.495 26.33
      vertex -13.614 26.695 26.33
      vertex -13.414 28.295 26.33
    endloop
  endfacet
  facet normal 0 0 1
    outer loop
      vertex 10.611 -11.879 26.33
      vertex 12.211 -11.679 26.33
      vertex 10.611 26.695 26.33
    endloop
  endfacet
  facet normal -0 0 1
    outer loop
      vertex 10.611 -11.879 26.33
      vertex 10.411 -13.479 26.33
      vertex 12.211 -11.679 26.33
    endloop
  endfacet
  facet normal 0 0 1
    outer loop
      vertex 10.611 -11.879 26.33
      vertex -13.414 -13.479 26.33
      vertex 10.411 -13.479 26.33
    endloop
  endfacet
  facet normal -0 0 1
    outer loop
      vertex -13.614 -11.879 26.33
      vertex -13.414 -13.479 26.33
      vertex 10.611 -11.879 26.33
    endloop
  endfacet
  facet normal 0 0 1
    outer loop
      vertex -13.614 -11.879 26.33
      vertex -15.214 -11.679 26.33
      vertex -13.414 -13.479 26.33
    endloop
  endfacet
  facet normal -0 0 1
    outer loop
      vertex -15.214 -11.679 26.33
      vertex -13.614 -11.879 26.33
      vertex -15.214 26.495 26.33
    endloop
  endfacet
  facet normal 1 -0 0
    outer loop
      vertex 12.211 -11.679 26.33
      vertex 12.211 26.495 5.5
      vertex 12.211 26.495 26.33
    endloop
  endfacet
  facet normal 1 0 0
    outer loop
      vertex 12.211 26.495 5.5
      vertex 12.211 -11.679 26.33
      vertex 12.211 -11.679 5.5
    endloop
  endfacet
  facet normal 0 0 -1
    outer loop
      vertex -13.2015 -13.479 5.5
      vertex 10.1985 28.295 5.5
      vertex 10.1985 -13.479 5.5
    endloop
  endfacet
  facet normal -0 0 -1
    outer loop
      vertex 10.1985 28.295 5.5
      vertex -13.2015 -13.479 5.5
      vertex -13.2015 28.295 5.5
    endloop
  endfacet
  facet normal 0 0 -1
    outer loop
      vertex -15.214 -11.679 5.5
      vertex -15.2015 26.5075 5.5
      vertex -15.2015 -11.6915 5.5
    endloop
  endfacet
  facet normal 0 0 -1
    outer loop
      vertex -15.2015 26.5075 5.5
      vertex -15.214 -11.679 5.5
      vertex -15.214 26.495 5.5
    endloop
  endfacet
  facet normal 0 0 -1
    outer loop
      vertex 12.1985 -11.6915 5.5
      vertex 12.211 26.495 5.5
      vertex 12.211 -11.679 5.5
    endloop
  endfacet
  facet normal -0 0 -1
    outer loop
      vertex 12.211 26.495 5.5
      vertex 12.1985 -11.6915 5.5
      vertex 12.1985 26.5075 5.5
    endloop
  endfacet
  facet normal 1 -0 0
    outer loop
      vertex -14.2015 -2.592 1.3
      vertex -14.2015 17.408 1.14441e-07
      vertex -14.2015 17.408 1.3
    endloop
  endfacet
  facet normal 1 0 0
    outer loop
      vertex -14.2015 17.408 1.14441e-07
      vertex -14.2015 -2.592 1.3
      vertex -14.2015 -2.592 1.14441e-07
    endloop
  endfacet
  facet normal 0 0 -1
    outer loop
      vertex -14.2015 -2.592 1.3
      vertex -13.2015 17.408 1.3
      vertex -13.2015 -2.592 1.3
    endloop
  endfacet
  facet normal -0 0 -1
    outer loop
      vertex -13.2015 17.408 1.3
      vertex -14.2015 -2.592 1.3
      vertex -14.2015 17.408 1.3
    endloop
  endfacet
  facet normal 0 -1 0
    outer loop
      vertex -14.2015 17.408 1.3
      vertex -13.2015 17.408 1.2
      vertex -13.2015 17.408 1.3
    endloop
  endfacet
  facet normal 0 -1 0
    outer loop
      vertex -14.2015 17.408 1.14441e-07
      vertex -13.2015 17.408 1.2
      vertex -14.2015 17.408 1.3
    endloop
  endfacet
  facet normal 0 -1 0
    outer loop
      vertex -10.2015 17.408 1.14441e-07
      vertex -13.2015 17.408 1.2
      vertex -14.2015 17.408 1.14441e-07
    endloop
  endfacet
  facet normal 0 -1 0
    outer loop
      vertex -13.2015 17.408 1.2
      vertex -10.2015 17.408 1.14441e-07
      vertex -10.2015 17.408 1.2
    endloop
  endfacet
  facet normal 0 1 0
    outer loop
      vertex -10.2015 -2.592 1.2
      vertex -10.2015 -2.592 1.14441e-07
      vertex -13.2015 -2.592 1.2
    endloop
  endfacet
  facet normal 0 1 -0
    outer loop
      vertex -13.2015 -2.592 1.2
      vertex -14.2015 -2.592 1.3
      vertex -13.2015 -2.592 1.3
    endloop
  endfacet
  facet normal 0 1 0
    outer loop
      vertex -14.2015 -2.592 1.14441e-07
      vertex -13.2015 -2.592 1.2
      vertex -10.2015 -2.592 1.14441e-07
    endloop
  endfacet
  facet normal 0 1 0
    outer loop
      vertex -13.2015 -2.592 1.2
      vertex -14.2015 -2.592 1.14441e-07
      vertex -14.2015 -2.592 1.3
    endloop
  endfacet
  facet normal 0 0 -1
    outer loop
      vertex 10.1985 -2.592 1.3
      vertex 11.1985 17.408 1.3
      vertex 11.1985 -2.592 1.3
    endloop
  endfacet
  facet normal -0 0 -1
    outer loop
      vertex 11.1985 17.408 1.3
      vertex 10.1985 -2.592 1.3
      vertex 10.1985 17.408 1.3
    endloop
  endfacet
  facet normal -1 0 0
    outer loop
      vertex 11.1985 -2.592 1.14441e-07
      vertex 11.1985 17.408 1.3
      vertex 11.1985 17.408 1.14441e-07
    endloop
  endfacet
  facet normal -1 -0 0
    outer loop
      vertex 11.1985 17.408 1.3
      vertex 11.1985 -2.592 1.14441e-07
      vertex 11.1985 -2.592 1.3
    endloop
  endfacet
  facet normal 0 -1 0
    outer loop
      vertex 7.1985 17.408 1.2
      vertex 7.1985 17.408 1.14441e-07
      vertex 10.1985 17.408 1.2
    endloop
  endfacet
  facet normal 0 -1 0
    outer loop
      vertex 10.1985 17.408 1.2
      vertex 11.1985 17.408 1.3
      vertex 10.1985 17.408 1.3
    endloop
  endfacet
  facet normal 0 -1 0
    outer loop
      vertex 11.1985 17.408 1.14441e-07
      vertex 10.1985 17.408 1.2
      vertex 7.1985 17.408 1.14441e-07
    endloop
  endfacet
  facet normal 0 -1 0
    outer loop
      vertex 10.1985 17.408 1.2
      vertex 11.1985 17.408 1.14441e-07
      vertex 11.1985 17.408 1.3
    endloop
  endfacet
  facet normal 0 1 0
    outer loop
      vertex 11.1985 -2.592 1.3
      vertex 10.1985 -2.592 1.2
      vertex 10.1985 -2.592 1.3
    endloop
  endfacet
  facet normal 0 1 -0
    outer loop
      vertex 11.1985 -2.592 1.14441e-07
      vertex 10.1985 -2.592 1.2
      vertex 11.1985 -2.592 1.3
    endloop
  endfacet
  facet normal 0 1 0
    outer loop
      vertex 7.1985 -2.592 1.14441e-07
      vertex 10.1985 -2.592 1.2
      vertex 11.1985 -2.592 1.14441e-07
    endloop
  endfacet
  facet normal 0 1 0
    outer loop
      vertex 10.1985 -2.592 1.2
      vertex 7.1985 -2.592 1.14441e-07
      vertex 7.1985 -2.592 1.2
    endloop
  endfacet
  facet normal -0.707107 -0.707107 0
    outer loop
      vertex -15.2015 -11.6915 5.5
      vertex -15.214 -11.679 26.33
      vertex -15.214 -11.679 5.5
    endloop
  endfacet
  facet normal -0.707107 -0.707107 -5.98694e-17
    outer loop
      vertex -15.214 -11.679 26.33
      vertex -15.2015 -11.6915 5.5
      vertex -13.414 -13.479 26.33
    endloop
  endfacet
  facet normal -0.707107 -0.707107 0
    outer loop
      vertex -13.414 -13.479 3.5
      vertex -15.2015 -11.6915 5.5
      vertex -15.2015 -11.6915 3.5
    endloop
  endfacet
  facet normal -0.707107 -0.707107 0
    outer loop
      vertex -15.2015 -11.6915 5.5
      vertex -13.414 -13.479 3.5
      vertex -13.414 -13.479 26.33
    endloop
  endfacet
  facet normal 0 0 1
    outer loop
      vertex -13.414 -13.479 3.5
      vertex -15.2015 -11.6915 3.5
      vertex -15.2015 -13.479 3.5
    endloop
  endfacet
  facet normal 0 0 1
    outer loop
      vertex -13.414 28.295 3.5
      vertex -15.2015 28.295 3.5
      vertex -15.2015 26.5075 3.5
    endloop
  endfacet
  facet normal -0.707107 0.707107 -5.86262e-17
    outer loop
      vertex -13.414 28.295 26.33
      vertex -15.2015 26.5075 5.5
      vertex -15.214 26.495 26.33
    endloop
  endfacet
  facet normal -0.707107 0.707107 0
    outer loop
      vertex -13.414 28.295 3.5
      vertex -15.2015 26.5075 5.5
      vertex -13.414 28.295 26.33
    endloop
  endfacet
  facet normal -0.707107 0.707107 0
    outer loop
      vertex -15.2015 26.5075 5.5
      vertex -13.414 28.295 3.5
      vertex -15.2015 26.5075 3.5
    endloop
  endfacet
  facet normal -0.707107 0.707107 0
    outer loop
      vertex -15.214 26.495 26.33
      vertex -15.2015 26.5075 5.5
      vertex -15.214 26.495 5.5
    endloop
  endfacet
  facet normal 0.707107 -0.707107 -5.86262e-17
    outer loop
      vertex 10.411 -13.479 26.33
      vertex 12.1985 -11.6915 5.5
      vertex 12.211 -11.679 26.33
    endloop
  endfacet
  facet normal 0.707107 -0.707107 0
    outer loop
      vertex 10.411 -13.479 3.5
      vertex 12.1985 -11.6915 5.5
      vertex 10.411 -13.479 26.33
    endloop
  endfacet
  facet normal 0.707107 -0.707107 0
    outer loop
      vertex 12.1985 -11.6915 5.5
      vertex 10.411 -13.479 3.5
      vertex 12.1985 -11.6915 3.5
    endloop
  endfacet
  facet normal 0.707107 -0.707107 0
    outer loop
      vertex 12.211 -11.679 26.33
      vertex 12.1985 -11.6915 5.5
      vertex 12.211 -11.679 5.5
    endloop
  endfacet
  facet normal 0 -0 1
    outer loop
      vertex 12.1985 -13.479 3.5
      vertex 12.1985 -11.6915 3.5
      vertex 10.411 -13.479 3.5
    endloop
  endfacet
  facet normal 0.707107 0.707107 0
    outer loop
      vertex 12.1985 26.5075 5.5
      vertex 12.211 26.495 26.33
      vertex 12.211 26.495 5.5
    endloop
  endfacet
  facet normal 0.707107 0.707107 -6.03274e-17
    outer loop
      vertex 12.211 26.495 26.33
      vertex 12.1985 26.5075 5.5
      vertex 10.411 28.295 26.33
    endloop
  endfacet
  facet normal 0.707107 0.707107 0
    outer loop
      vertex 10.411 28.295 3.5
      vertex 12.1985 26.5075 5.5
      vertex 12.1985 26.5075 3.5
    endloop
  endfacet
  facet normal 0.707107 0.707107 0
    outer loop
      vertex 12.1985 26.5075 5.5
      vertex 10.411 28.295 3.5
      vertex 10.411 28.295 26.33
    endloop
  endfacet
  facet normal 0 -0 1
    outer loop
      vertex 12.1985 26.5075 3.5
      vertex 12.1985 28.295 3.5
      vertex 10.411 28.295 3.5
    endloop
  endfacet
  facet normal 1 -0 0
    outer loop
      vertex -12.614 -10.879 19.32
      vertex -12.614 4.7 7.1
      vertex -12.614 4.7 19.32
    endloop
  endfacet
  facet normal 1 0 0
    outer loop
      vertex -12.614 4.7 7.1
      vertex -12.614 -10.879 19.32
      vertex -12.614 -10.879 7.1
    endloop
  endfacet
  facet normal 1 -0 0
    outer loop
      vertex -12.614 7.5 19.32
      vertex -12.614 25.695 7.1
      vertex -12.614 25.695 19.32
    endloop
  endfacet
  facet normal 1 0 0
    outer loop
      vertex -12.614 25.695 7.1
      vertex -12.614 7.5 19.32
      vertex -12.614 7.5 7.1
    endloop
  endfacet
  facet normal 0 0 -1
    outer loop
      vertex 10.611 21.9 19.42
      vertex 11.111 24.7 19.42
      vertex 11.111 21.9 19.42
    endloop
  endfacet
  facet normal -0 0 -1
    outer loop
      vertex 11.111 24.7 19.42
      vertex 10.611 21.9 19.42
      vertex 10.611 24.7 19.42
    endloop
  endfacet
  facet normal 0 0 -1
    outer loop
      vertex 10.611 -2.3 19.42
      vertex 11.111 0.5 19.42
      vertex 11.111 -2.3 19.42
    endloop
  endfacet
  facet normal -0 0 -1
    outer loop
      vertex 11.111 0.5 19.42
      vertex 10.611 -2.3 19.42
      vertex 10.611 0.5 19.42
    endloop
  endfacet
  facet normal -1 0 0
    outer loop
      vertex 9.611 24.7 7.1
      vertex 9.611 25.695 19.32
      vertex 9.611 25.695 7.1
    endloop
  endfacet
  facet normal -1 -0 0
    outer loop
      vertex 9.611 25.695 19.32
      vertex 9.611 24.7 7.1
      vertex 9.611 24.7 19.32
    endloop
  endfacet
  facet normal -1 0 0
    outer loop
      vertex 9.611 -10.879 7.1
      vertex 9.611 -2.3 19.32
      vertex 9.611 -2.3 7.1
    endloop
  endfacet
  facet normal -1 -0 0
    outer loop
      vertex 9.611 -2.3 19.32
      vertex 9.611 -10.879 7.1
      vertex 9.611 -10.879 19.32
    endloop
  endfacet
  facet normal -1 0 0
    outer loop
      vertex 9.611 0.5 7.1
      vertex 9.611 21.9 19.32
      vertex 9.611 21.9 7.1
    endloop
  endfacet
  facet normal -1 -0 0
    outer loop
      vertex 9.611 21.9 19.32
      vertex 9.611 0.5 7.1
      vertex 9.611 0.5 19.32
    endloop
  endfacet
  facet normal -0 0 1
    outer loop
      vertex -13.114 7.5 7.1
      vertex -12.614 4.7 7.1
      vertex -12.614 7.5 7.1
    endloop
  endfacet
  facet normal 0 0 1
    outer loop
      vertex -12.614 4.7 7.1
      vertex -13.114 7.5 7.1
      vertex -13.114 4.7 7.1
    endloop
  endfacet
  facet normal -0 0 1
    outer loop
      vertex -12.614 25.695 7.1
      vertex 9.611 24.7 7.1
      vertex 9.611 25.695 7.1
    endloop
  endfacet
  facet normal 0 0 1
    outer loop
      vertex 9.611 24.7 7.1
      vertex -12.614 25.695 7.1
      vertex 9.611 21.9 7.1
    endloop
  endfacet
  facet normal 0 0 1
    outer loop
      vertex 9.611 21.9 7.1
      vertex -12.614 7.5 7.1
      vertex 9.611 0.5 7.1
    endloop
  endfacet
  facet normal -0 0 1
    outer loop
      vertex -12.614 4.7 7.1
      vertex 9.611 0.5 7.1
      vertex -12.614 7.5 7.1
    endloop
  endfacet
  facet normal 0 0 1
    outer loop
      vertex 9.611 21.9 7.1
      vertex -12.614 25.695 7.1
      vertex -12.614 7.5 7.1
    endloop
  endfacet
  facet normal 0 0 1
    outer loop
      vertex 9.611 0.5 7.1
      vertex -12.614 4.7 7.1
      vertex 9.611 -2.3 7.1
    endloop
  endfacet
  facet normal 0 0 1
    outer loop
      vertex -12.614 -10.879 7.1
      vertex 9.611 -2.3 7.1
      vertex -12.614 4.7 7.1
    endloop
  endfacet
  facet normal 0 0 1
    outer loop
      vertex 9.611 -2.3 7.1
      vertex -12.614 -10.879 7.1
      vertex 9.611 -10.879 7.1
    endloop
  endfacet
  facet normal -0 0 1
    outer loop
      vertex 9.611 24.7 7.1
      vertex 11.111 21.9 7.1
      vertex 11.111 24.7 7.1
    endloop
  endfacet
  facet normal 0 0 1
    outer loop
      vertex 11.111 21.9 7.1
      vertex 9.611 24.7 7.1
      vertex 9.611 21.9 7.1
    endloop
  endfacet
  facet normal -0 0 1
    outer loop
      vertex 9.611 0.5 7.1
      vertex 11.111 -2.3 7.1
      vertex 11.111 0.5 7.1
    endloop
  endfacet
  facet normal 0 0 1
    outer loop
      vertex 11.111 -2.3 7.1
      vertex 9.611 0.5 7.1
      vertex 9.611 -2.3 7.1
    endloop
  endfacet
  facet normal 0 1 0
    outer loop
      vertex 2.495 -10.879 18.92
      vertex 9.611 -10.879 19.32
      vertex 8.495 -10.879 18.92
    endloop
  endfacet
  facet normal 0 1 0
    outer loop
      vertex 9.611 -10.879 19.32
      vertex 8.495 -10.879 17.82
      vertex 8.495 -10.879 18.92
    endloop
  endfacet
  facet normal 0 1 0
    outer loop
      vertex 8.495 -10.879 17.82
      vertex 9.611 -10.879 7.1
      vertex 2.495 -10.879 17.82
    endloop
  endfacet
  facet normal 0 1 -0
    outer loop
      vertex 9.611 -10.879 7.1
      vertex 8.495 -10.879 17.82
      vertex 9.611 -10.879 19.32
    endloop
  endfacet
  facet normal 0 1 0
    outer loop
      vertex 9.611 -10.879 19.32
      vertex 2.495 -10.879 18.92
      vertex -12.614 -10.879 19.32
    endloop
  endfacet
  facet normal 0 1 -0
    outer loop
      vertex 2.495 -10.879 17.82
      vertex -12.614 -10.879 19.32
      vertex 2.495 -10.879 18.92
    endloop
  endfacet
  facet normal 0 1 0
    outer loop
      vertex -12.614 -10.879 7.1
      vertex 2.495 -10.879 17.82
      vertex 9.611 -10.879 7.1
    endloop
  endfacet
  facet normal 0 1 0
    outer loop
      vertex 2.495 -10.879 17.82
      vertex -12.614 -10.879 7.1
      vertex -12.614 -10.879 19.32
    endloop
  endfacet
  facet normal 0 -1 0
    outer loop
      vertex -12.614 25.695 19.32
      vertex 2.495 25.695 18.92
      vertex 9.611 25.695 19.32
    endloop
  endfacet
  facet normal 0 -1 0
    outer loop
      vertex -12.614 25.695 19.32
      vertex 2.495 25.695 17.82
      vertex 2.495 25.695 18.92
    endloop
  endfacet
  facet normal 0 -1 0
    outer loop
      vertex 9.611 25.695 7.1
      vertex 2.495 25.695 17.82
      vertex -12.614 25.695 7.1
    endloop
  endfacet
  facet normal 0 -1 0
    outer loop
      vertex -12.614 25.695 7.1
      vertex 2.495 25.695 17.82
      vertex -12.614 25.695 19.32
    endloop
  endfacet
  facet normal 0 -1 0
    outer loop
      vertex 8.495 25.695 18.92
      vertex 9.611 25.695 19.32
      vertex 2.495 25.695 18.92
    endloop
  endfacet
  facet normal 0 -1 0
    outer loop
      vertex 8.495 25.695 17.82
      vertex 9.611 25.695 19.32
      vertex 8.495 25.695 18.92
    endloop
  endfacet
  facet normal 0 -1 0
    outer loop
      vertex 8.495 25.695 17.82
      vertex 9.611 25.695 7.1
      vertex 9.611 25.695 19.32
    endloop
  endfacet
  facet normal 0 -1 0
    outer loop
      vertex 2.495 25.695 17.82
      vertex 9.611 25.695 7.1
      vertex 8.495 25.695 17.82
    endloop
  endfacet
  facet normal 1 -0 0
    outer loop
      vertex -13.614 -11.879 25.48
      vertex -13.614 26.695 19.32
      vertex -13.614 26.695 25.48
    endloop
  endfacet
  facet normal 1 0 0
    outer loop
      vertex -13.614 26.695 19.32
      vertex -13.614 -11.879 25.48
      vertex -13.614 -11.879 19.32
    endloop
  endfacet
  facet normal 1 -0 0
    outer loop
      vertex -13.614 -11.879 26.33
      vertex -13.614 26.695 26.08
      vertex -13.614 26.695 26.33
    endloop
  endfacet
  facet normal 1 0 0
    outer loop
      vertex -13.614 26.695 26.08
      vertex -13.614 -11.879 26.33
      vertex -13.614 -11.879 26.08
    endloop
  endfacet
  facet normal -1 0 0
    outer loop
      vertex 10.611 -2.3 19.32
      vertex 10.611 -11.879 19.32
      vertex 10.611 -2.3 19.42
    endloop
  endfacet
  facet normal -1 0 0
    outer loop
      vertex 10.611 21.9 19.32
      vertex 10.611 0.5 19.32
      vertex 10.611 21.9 19.42
    endloop
  endfacet
  facet normal -1 0 0
    outer loop
      vertex 10.611 24.7 19.42
      vertex 10.611 26.695 19.32
      vertex 10.611 24.7 19.32
    endloop
  endfacet
  facet normal -1 0 0
    outer loop
      vertex 10.611 26.695 19.32
      vertex 10.611 24.7 19.42
      vertex 10.611 26.695 25.48
    endloop
  endfacet
  facet normal -1 0 0
    outer loop
      vertex 10.611 21.9 19.42
      vertex 10.611 26.695 25.48
      vertex 10.611 24.7 19.42
    endloop
  endfacet
  facet normal -1 0 0
    outer loop
      vertex 10.611 0.5 19.42
      vertex 10.611 21.9 19.42
      vertex 10.611 0.5 19.32
    endloop
  endfacet
  facet normal -1 0 0
    outer loop
      vertex 10.611 21.9 19.42
      vertex 10.611 0.5 19.42
      vertex 10.611 26.695 25.48
    endloop
  endfacet
  facet normal -1 0 0
    outer loop
      vertex 10.611 -11.879 25.48
      vertex 10.611 0.5 19.42
      vertex 10.611 -2.3 19.42
    endloop
  endfacet
  facet normal -1 0 0
    outer loop
      vertex 10.611 -11.879 25.48
      vertex 10.611 -2.3 19.42
      vertex 10.611 -11.879 19.32
    endloop
  endfacet
  facet normal -1 0 0
    outer loop
      vertex 10.611 0.5 19.42
      vertex 10.611 -11.879 25.48
      vertex 10.611 26.695 25.48
    endloop
  endfacet
  facet normal -1 0 0
    outer loop
      vertex 10.611 -11.879 26.08
      vertex 10.611 26.695 26.33
      vertex 10.611 26.695 26.08
    endloop
  endfacet
  facet normal -1 -0 0
    outer loop
      vertex 10.611 26.695 26.33
      vertex 10.611 -11.879 26.08
      vertex 10.611 -11.879 26.33
    endloop
  endfacet
  facet normal 0 -1 0
    outer loop
      vertex -13.214 26.695 26.08
      vertex -13.614 26.695 26.33
      vertex -13.614 26.695 26.08
    endloop
  endfacet
  facet normal 0 -1 0
    outer loop
      vertex -13.614 26.695 26.33
      vertex -13.214 26.695 26.08
      vertex 10.611 26.695 26.33
    endloop
  endfacet
  facet normal 0 -1 0
    outer loop
      vertex 10.211 26.695 26.08
      vertex 10.611 26.695 26.33
      vertex -13.214 26.695 26.08
    endloop
  endfacet
  facet normal 0 -1 0
    outer loop
      vertex 10.211 26.695 26.08
      vertex 10.611 26.695 26.08
      vertex 10.611 26.695 26.33
    endloop
  endfacet
  facet normal 0 -1 0
    outer loop
      vertex 10.611 26.695 25.48
      vertex 10.611 26.695 26.08
      vertex 10.211 26.695 26.08
    endloop
  endfacet
  facet normal 0 -1 0
    outer loop
      vertex 10.611 26.695 25.48
      vertex 10.211 26.695 26.08
      vertex 10.211 26.695 25.48
    endloop
  endfacet
  facet normal 0 -1 0
    outer loop
      vertex 10.611 26.695 26.08
      vertex 10.611 26.695 25.48
      vertex 10.911 26.695 26.08
    endloop
  endfacet
  facet normal 0 -1 -0
    outer loop
      vertex 10.911 26.695 26.08
      vertex 10.611 26.695 25.48
      vertex 10.911 26.695 25.48
    endloop
  endfacet
  facet normal 0 -1 0
    outer loop
      vertex -13.614 26.695 25.48
      vertex -13.614 26.695 26.08
      vertex -13.914 26.695 26.08
    endloop
  endfacet
  facet normal 0 -1 0
    outer loop
      vertex -13.614 26.695 25.48
      vertex -13.914 26.695 26.08
      vertex -13.914 26.695 25.48
    endloop
  endfacet
  facet normal 0 -1 0
    outer loop
      vertex -13.614 26.695 26.08
      vertex -13.614 26.695 25.48
      vertex -13.214 26.695 26.08
    endloop
  endfacet
  facet normal 0 -1 0
    outer loop
      vertex -13.614 26.695 25.48
      vertex -13.214 26.695 25.48
      vertex -13.214 26.695 26.08
    endloop
  endfacet
  facet normal 0 -1 0
    outer loop
      vertex -13.614 26.695 19.32
      vertex -13.214 26.695 25.48
      vertex -13.614 26.695 25.48
    endloop
  endfacet
  facet normal 0 -1 -0
    outer loop
      vertex -13.214 26.695 25.48
      vertex -13.614 26.695 19.32
      vertex 10.211 26.695 25.48
    endloop
  endfacet
  facet normal 0 -1 0
    outer loop
      vertex 10.611 26.695 19.32
      vertex 10.211 26.695 25.48
      vertex -13.614 26.695 19.32
    endloop
  endfacet
  facet normal 0 -1 0
    outer loop
      vertex 10.211 26.695 25.48
      vertex 10.611 26.695 19.32
      vertex 10.611 26.695 25.48
    endloop
  endfacet
  facet normal 0 0 1
    outer loop
      vertex 10.611 26.695 19.32
      vertex 9.611 25.695 19.32
      vertex 10.611 24.7 19.32
    endloop
  endfacet
  facet normal 0 0 1
    outer loop
      vertex 10.611 26.695 19.32
      vertex -12.614 25.695 19.32
      vertex 9.611 25.695 19.32
    endloop
  endfacet
  facet normal 0 0 1
    outer loop
      vertex -12.614 25.695 19.32
      vertex -13.114 7.5 19.32
      vertex -12.614 7.5 19.32
    endloop
  endfacet
  facet normal 0 0 1
    outer loop
      vertex -13.114 7.5 19.32
      vertex -13.614 26.695 19.32
      vertex -13.114 4.7 19.32
    endloop
  endfacet
  facet normal 0 0 1
    outer loop
      vertex -12.614 25.695 19.32
      vertex -13.614 26.695 19.32
      vertex -13.114 7.5 19.32
    endloop
  endfacet
  facet normal -0 0 1
    outer loop
      vertex -13.614 26.695 19.32
      vertex -12.614 25.695 19.32
      vertex 10.611 26.695 19.32
    endloop
  endfacet
  facet normal 0 0 1
    outer loop
      vertex 10.611 24.7 19.32
      vertex 9.611 25.695 19.32
      vertex 9.611 24.7 19.32
    endloop
  endfacet
  facet normal 0 0 1
    outer loop
      vertex -12.614 4.7 19.32
      vertex -13.114 4.7 19.32
      vertex -12.614 -10.879 19.32
    endloop
  endfacet
  facet normal 0 0 1
    outer loop
      vertex 9.611 -10.879 19.32
      vertex 10.611 -2.3 19.32
      vertex 9.611 -2.3 19.32
    endloop
  endfacet
  facet normal 0 0 1
    outer loop
      vertex 10.611 -2.3 19.32
      vertex 9.611 -10.879 19.32
      vertex 10.611 -11.879 19.32
    endloop
  endfacet
  facet normal -0 0 1
    outer loop
      vertex -12.614 -10.879 19.32
      vertex 10.611 -11.879 19.32
      vertex 9.611 -10.879 19.32
    endloop
  endfacet
  facet normal 0 0 1
    outer loop
      vertex -12.614 -10.879 19.32
      vertex -13.614 -11.879 19.32
      vertex 10.611 -11.879 19.32
    endloop
  endfacet
  facet normal 0 0 1
    outer loop
      vertex -13.114 4.7 19.32
      vertex -13.614 -11.879 19.32
      vertex -12.614 -10.879 19.32
    endloop
  endfacet
  facet normal 0 0 1
    outer loop
      vertex -13.614 -11.879 19.32
      vertex -13.114 4.7 19.32
      vertex -13.614 26.695 19.32
    endloop
  endfacet
  facet normal -0 0 1
    outer loop
      vertex 9.611 21.9 19.32
      vertex 10.611 0.5 19.32
      vertex 10.611 21.9 19.32
    endloop
  endfacet
  facet normal 0 0 1
    outer loop
      vertex 10.611 0.5 19.32
      vertex 9.611 21.9 19.32
      vertex 9.611 0.5 19.32
    endloop
  endfacet
  facet normal 0 1 0
    outer loop
      vertex 10.211 -11.879 26.08
      vertex 10.611 -11.879 26.33
      vertex 10.611 -11.879 26.08
    endloop
  endfacet
  facet normal 0 1 0
    outer loop
      vertex 10.611 -11.879 26.33
      vertex 10.211 -11.879 26.08
      vertex -13.614 -11.879 26.33
    endloop
  endfacet
  facet normal 0 1 -0
    outer loop
      vertex -13.214 -11.879 26.08
      vertex -13.614 -11.879 26.33
      vertex 10.211 -11.879 26.08
    endloop
  endfacet
  facet normal 0 1 0
    outer loop
      vertex -13.214 -11.879 26.08
      vertex -13.614 -11.879 26.08
      vertex -13.614 -11.879 26.33
    endloop
  endfacet
  facet normal 0 1 0
    outer loop
      vertex -13.614 -11.879 25.48
      vertex -13.614 -11.879 26.08
      vertex -13.214 -11.879 26.08
    endloop
  endfacet
  facet normal 0 1 0
    outer loop
      vertex -13.614 -11.879 25.48
      vertex -13.214 -11.879 26.08
      vertex -13.214 -11.879 25.48
    endloop
  endfacet
  facet normal 0 1 0
    outer loop
      vertex -13.614 -11.879 26.08
      vertex -13.614 -11.879 25.48
      vertex -13.914 -11.879 26.08
    endloop
  endfacet
  facet normal 0 1 0
    outer loop
      vertex -13.914 -11.879 26.08
      vertex -13.614 -11.879 25.48
      vertex -13.914 -11.879 25.48
    endloop
  endfacet
  facet normal 0 1 0
    outer loop
      vertex 10.611 -11.879 25.48
      vertex 10.611 -11.879 26.08
      vertex 10.911 -11.879 26.08
    endloop
  endfacet
  facet normal 0 1 0
    outer loop
      vertex 10.611 -11.879 25.48
      vertex 10.911 -11.879 26.08
      vertex 10.911 -11.879 25.48
    endloop
  endfacet
  facet normal 0 1 0
    outer loop
      vertex 10.611 -11.879 26.08
      vertex 10.611 -11.879 25.48
      vertex 10.211 -11.879 26.08
    endloop
  endfacet
  facet normal 0 1 0
    outer loop
      vertex 10.611 -11.879 25.48
      vertex 10.211 -11.879 25.48
      vertex 10.211 -11.879 26.08
    endloop
  endfacet
  facet normal 0 1 -0
    outer loop
      vertex 10.611 -11.879 19.32
      vertex 10.211 -11.879 25.48
      vertex 10.611 -11.879 25.48
    endloop
  endfacet
  facet normal 0 1 0
    outer loop
      vertex 10.211 -11.879 25.48
      vertex -3.06 -11.879 24.15
      vertex -13.214 -11.879 25.48
    endloop
  endfacet
  facet normal 0 1 -0
    outer loop
      vertex -12.06 -11.879 24.15
      vertex -13.214 -11.879 25.48
      vertex -3.06 -11.879 24.15
    endloop
  endfacet
  facet normal 0 1 0
    outer loop
      vertex 10.211 -11.879 25.48
      vertex -3.06 -11.879 20.97
      vertex -3.06 -11.879 24.15
    endloop
  endfacet
  facet normal 0 1 0
    outer loop
      vertex -13.614 -11.879 19.32
      vertex -3.06 -11.879 20.97
      vertex 10.611 -11.879 19.32
    endloop
  endfacet
  facet normal 0 1 0
    outer loop
      vertex 10.211 -11.879 25.48
      vertex 10.611 -11.879 19.32
      vertex -3.06 -11.879 20.97
    endloop
  endfacet
  facet normal 0 1 0
    outer loop
      vertex -13.214 -11.879 25.48
      vertex -12.06 -11.879 24.15
      vertex -13.614 -11.879 25.48
    endloop
  endfacet
  facet normal 0 1 -0
    outer loop
      vertex -12.06 -11.879 20.97
      vertex -13.614 -11.879 25.48
      vertex -12.06 -11.879 24.15
    endloop
  endfacet
  facet normal 0 1 0
    outer loop
      vertex -12.06 -11.879 20.97
      vertex -13.614 -11.879 19.32
      vertex -13.614 -11.879 25.48
    endloop
  endfacet
  facet normal 0 1 0
    outer loop
      vertex -3.06 -11.879 20.97
      vertex -13.614 -11.879 19.32
      vertex -12.06 -11.879 20.97
    endloop
  endfacet
  facet normal 1 -0 0
    outer loop
      vertex -12.06 -13.479 24.15
      vertex -12.06 -11.879 20.97
      vertex -12.06 -11.879 24.15
    endloop
  endfacet
  facet normal 1 0 0
    outer loop
      vertex -12.06 -11.879 20.97
      vertex -12.06 -13.479 24.15
      vertex -12.06 -13.479 20.97
    endloop
  endfacet
  facet normal 0 0 -1
    outer loop
      vertex -12.06 -13.479 24.15
      vertex -3.06 -11.879 24.15
      vertex -3.06 -13.479 24.15
    endloop
  endfacet
  facet normal -0 0 -1
    outer loop
      vertex -3.06 -11.879 24.15
      vertex -12.06 -13.479 24.15
      vertex -12.06 -11.879 24.15
    endloop
  endfacet
  facet normal -1 0 0
    outer loop
      vertex -3.06 -13.479 20.97
      vertex -3.06 -11.879 24.15
      vertex -3.06 -11.879 20.97
    endloop
  endfacet
  facet normal -1 -0 0
    outer loop
      vertex -3.06 -11.879 24.15
      vertex -3.06 -13.479 20.97
      vertex -3.06 -13.479 24.15
    endloop
  endfacet
  facet normal -0 0 1
    outer loop
      vertex -12.06 -11.879 20.97
      vertex -3.06 -13.479 20.97
      vertex -3.06 -11.879 20.97
    endloop
  endfacet
  facet normal 0 0 1
    outer loop
      vertex -3.06 -13.479 20.97
      vertex -12.06 -11.879 20.97
      vertex -12.06 -13.479 20.97
    endloop
  endfacet
  facet normal 1 -0 0
    outer loop
      vertex 2.495 25.695 18.92
      vertex 2.495 28.295 17.82
      vertex 2.495 28.295 18.92
    endloop
  endfacet
  facet normal 1 0 0
    outer loop
      vertex 2.495 28.295 17.82
      vertex 2.495 25.695 18.92
      vertex 2.495 25.695 17.82
    endloop
  endfacet
  facet normal 0 0 -1
    outer loop
      vertex 2.495 25.695 18.92
      vertex 8.495 28.295 18.92
      vertex 8.495 25.695 18.92
    endloop
  endfacet
  facet normal -0 0 -1
    outer loop
      vertex 8.495 28.295 18.92
      vertex 2.495 25.695 18.92
      vertex 2.495 28.295 18.92
    endloop
  endfacet
  facet normal -1 0 0
    outer loop
      vertex 8.495 25.695 17.82
      vertex 8.495 28.295 18.92
      vertex 8.495 28.295 17.82
    endloop
  endfacet
  facet normal -1 -0 0
    outer loop
      vertex 8.495 28.295 18.92
      vertex 8.495 25.695 17.82
      vertex 8.495 25.695 18.92
    endloop
  endfacet
  facet normal -0 0 1
    outer loop
      vertex 2.495 28.295 17.82
      vertex 8.495 25.695 17.82
      vertex 8.495 28.295 17.82
    endloop
  endfacet
  facet normal 0 0 1
    outer loop
      vertex 8.495 25.695 17.82
      vertex 2.495 28.295 17.82
      vertex 2.495 25.695 17.82
    endloop
  endfacet
  facet normal 1 -0 0
    outer loop
      vertex 2.495 -13.479 18.92
      vertex 2.495 -10.879 17.82
      vertex 2.495 -10.879 18.92
    endloop
  endfacet
  facet normal 1 0 0
    outer loop
      vertex 2.495 -10.879 17.82
      vertex 2.495 -13.479 18.92
      vertex 2.495 -13.479 17.82
    endloop
  endfacet
  facet normal 0 0 -1
    outer loop
      vertex 2.495 -13.479 18.92
      vertex 8.495 -10.879 18.92
      vertex 8.495 -13.479 18.92
    endloop
  endfacet
  facet normal -0 0 -1
    outer loop
      vertex 8.495 -10.879 18.92
      vertex 2.495 -13.479 18.92
      vertex 2.495 -10.879 18.92
    endloop
  endfacet
  facet normal -1 0 0
    outer loop
      vertex 8.495 -13.479 17.82
      vertex 8.495 -10.879 18.92
      vertex 8.495 -10.879 17.82
    endloop
  endfacet
  facet normal -1 -0 0
    outer loop
      vertex 8.495 -10.879 18.92
      vertex 8.495 -13.479 17.82
      vertex 8.495 -13.479 18.92
    endloop
  endfacet
  facet normal -0 0 1
    outer loop
      vertex 2.495 -10.879 17.82
      vertex 8.495 -13.479 17.82
      vertex 8.495 -10.879 17.82
    endloop
  endfacet
  facet normal 0 0 1
    outer loop
      vertex 8.495 -13.479 17.82
      vertex 2.495 -10.879 17.82
      vertex 2.495 -13.479 17.82
    endloop
  endfacet
  facet normal -1 0 0
    outer loop
      vertex 11.111 21.9 7.1
      vertex 11.111 24.7 19.42
      vertex 11.111 24.7 7.1
    endloop
  endfacet
  facet normal -1 -0 0
    outer loop
      vertex 11.111 24.7 19.42
      vertex 11.111 21.9 7.1
      vertex 11.111 21.9 19.42
    endloop
  endfacet
  facet normal 0 1 0
    outer loop
      vertex 11.111 21.9 19.42
      vertex 10.611 21.9 19.32
      vertex 10.611 21.9 19.42
    endloop
  endfacet
  facet normal 0 1 -0
    outer loop
      vertex 11.111 21.9 7.1
      vertex 10.611 21.9 19.32
      vertex 11.111 21.9 19.42
    endloop
  endfacet
  facet normal 0 1 0
    outer loop
      vertex 9.611 21.9 7.1
      vertex 10.611 21.9 19.32
      vertex 11.111 21.9 7.1
    endloop
  endfacet
  facet normal 0 1 0
    outer loop
      vertex 10.611 21.9 19.32
      vertex 9.611 21.9 7.1
      vertex 9.611 21.9 19.32
    endloop
  endfacet
  facet normal 0 -1 0
    outer loop
      vertex 9.611 24.7 19.32
      vertex 9.611 24.7 7.1
      vertex 10.611 24.7 19.32
    endloop
  endfacet
  facet normal 0 -1 0
    outer loop
      vertex 10.611 24.7 19.32
      vertex 11.111 24.7 19.42
      vertex 10.611 24.7 19.42
    endloop
  endfacet
  facet normal 0 -1 0
    outer loop
      vertex 11.111 24.7 7.1
      vertex 10.611 24.7 19.32
      vertex 9.611 24.7 7.1
    endloop
  endfacet
  facet normal 0 -1 0
    outer loop
      vertex 10.611 24.7 19.32
      vertex 11.111 24.7 7.1
      vertex 11.111 24.7 19.42
    endloop
  endfacet
  facet normal -1 0 0
    outer loop
      vertex 11.111 -2.3 7.1
      vertex 11.111 0.5 19.42
      vertex 11.111 0.5 7.1
    endloop
  endfacet
  facet normal -1 -0 0
    outer loop
      vertex 11.111 0.5 19.42
      vertex 11.111 -2.3 7.1
      vertex 11.111 -2.3 19.42
    endloop
  endfacet
  facet normal 0 1 0
    outer loop
      vertex 11.111 -2.3 19.42
      vertex 10.611 -2.3 19.32
      vertex 10.611 -2.3 19.42
    endloop
  endfacet
  facet normal 0 1 -0
    outer loop
      vertex 11.111 -2.3 7.1
      vertex 10.611 -2.3 19.32
      vertex 11.111 -2.3 19.42
    endloop
  endfacet
  facet normal 0 1 0
    outer loop
      vertex 9.611 -2.3 7.1
      vertex 10.611 -2.3 19.32
      vertex 11.111 -2.3 7.1
    endloop
  endfacet
  facet normal 0 1 0
    outer loop
      vertex 10.611 -2.3 19.32
      vertex 9.611 -2.3 7.1
      vertex 9.611 -2.3 19.32
    endloop
  endfacet
  facet normal 0 -1 0
    outer loop
      vertex 9.611 0.5 19.32
      vertex 9.611 0.5 7.1
      vertex 10.611 0.5 19.32
    endloop
  endfacet
  facet normal 0 -1 0
    outer loop
      vertex 10.611 0.5 19.32
      vertex 11.111 0.5 19.42
      vertex 10.611 0.5 19.42
    endloop
  endfacet
  facet normal 0 -1 0
    outer loop
      vertex 11.111 0.5 7.1
      vertex 10.611 0.5 19.32
      vertex 9.611 0.5 7.1
    endloop
  endfacet
  facet normal 0 -1 0
    outer loop
      vertex 10.611 0.5 19.32
      vertex 11.111 0.5 7.1
      vertex 11.111 0.5 19.42
    endloop
  endfacet
  facet normal 1 -0 0
    outer loop
      vertex -13.114 4.7 19.32
      vertex -13.114 7.5 7.1
      vertex -13.114 7.5 19.32
    endloop
  endfacet
  facet normal 1 0 0
    outer loop
      vertex -13.114 7.5 7.1
      vertex -13.114 4.7 19.32
      vertex -13.114 4.7 7.1
    endloop
  endfacet
  facet normal 0 1 -0
    outer loop
      vertex -12.614 4.7 7.1
      vertex -13.114 4.7 19.32
      vertex -12.614 4.7 19.32
    endloop
  endfacet
  facet normal 0 1 0
    outer loop
      vertex -13.114 4.7 19.32
      vertex -12.614 4.7 7.1
      vertex -13.114 4.7 7.1
    endloop
  endfacet
  facet normal 0 -1 0
    outer loop
      vertex -13.114 7.5 7.1
      vertex -12.614 7.5 19.32
      vertex -13.114 7.5 19.32
    endloop
  endfacet
  facet normal 0 -1 -0
    outer loop
      vertex -12.614 7.5 19.32
      vertex -13.114 7.5 7.1
      vertex -12.614 7.5 7.1
    endloop
  endfacet
  facet normal 1 -0 0
    outer loop
      vertex -13.914 -11.879 26.08
      vertex -13.914 26.695 25.48
      vertex -13.914 26.695 26.08
    endloop
  endfacet
  facet normal 1 0 0
    outer loop
      vertex -13.914 26.695 25.48
      vertex -13.914 -11.879 26.08
      vertex -13.914 -11.879 25.48
    endloop
  endfacet
  facet normal 0 0 -1
    outer loop
      vertex -13.914 -11.879 26.08
      vertex -13.614 26.695 26.08
      vertex -13.614 -11.879 26.08
    endloop
  endfacet
  facet normal -0 0 -1
    outer loop
      vertex -13.614 26.695 26.08
      vertex -13.914 -11.879 26.08
      vertex -13.914 26.695 26.08
    endloop
  endfacet
  facet normal -0 0 1
    outer loop
      vertex -13.914 26.695 25.48
      vertex -13.614 -11.879 25.48
      vertex -13.614 26.695 25.48
    endloop
  endfacet
  facet normal 0 0 1
    outer loop
      vertex -13.614 -11.879 25.48
      vertex -13.914 26.695 25.48
      vertex -13.914 -11.879 25.48
    endloop
  endfacet
  facet normal 0 0 -1
    outer loop
      vertex 10.611 -11.879 26.08
      vertex 10.911 26.695 26.08
      vertex 10.911 -11.879 26.08
    endloop
  endfacet
  facet normal -0 0 -1
    outer loop
      vertex 10.911 26.695 26.08
      vertex 10.611 -11.879 26.08
      vertex 10.611 26.695 26.08
    endloop
  endfacet
  facet normal -1 0 0
    outer loop
      vertex 10.911 -11.879 25.48
      vertex 10.911 26.695 26.08
      vertex 10.911 26.695 25.48
    endloop
  endfacet
  facet normal -1 -0 0
    outer loop
      vertex 10.911 26.695 26.08
      vertex 10.911 -11.879 25.48
      vertex 10.911 -11.879 26.08
    endloop
  endfacet
  facet normal -0 0 1
    outer loop
      vertex 10.611 26.695 25.48
      vertex 10.911 -11.879 25.48
      vertex 10.911 26.695 25.48
    endloop
  endfacet
  facet normal 0 0 1
    outer loop
      vertex 10.911 -11.879 25.48
      vertex 10.611 26.695 25.48
      vertex 10.611 -11.879 25.48
    endloop
  endfacet
  facet normal 1 -0 0
    outer loop
      vertex -13.214 26.695 26.08
      vertex -13.214 27.095 25.48
      vertex -13.214 27.095 26.08
    endloop
  endfacet
  facet normal 1 0 0
    outer loop
      vertex -13.214 27.095 25.48
      vertex -13.214 26.695 26.08
      vertex -13.214 26.695 25.48
    endloop
  endfacet
  facet normal 0 0 -1
    outer loop
      vertex -13.214 26.695 26.08
      vertex 10.211 27.095 26.08
      vertex 10.211 26.695 26.08
    endloop
  endfacet
  facet normal -0 0 -1
    outer loop
      vertex 10.211 27.095 26.08
      vertex -13.214 26.695 26.08
      vertex -13.214 27.095 26.08
    endloop
  endfacet
  facet normal -1 0 0
    outer loop
      vertex 10.211 26.695 25.48
      vertex 10.211 27.095 26.08
      vertex 10.211 27.095 25.48
    endloop
  endfacet
  facet normal -1 -0 0
    outer loop
      vertex 10.211 27.095 26.08
      vertex 10.211 26.695 25.48
      vertex 10.211 26.695 26.08
    endloop
  endfacet
  facet normal -0 0 1
    outer loop
      vertex -13.214 27.095 25.48
      vertex 10.211 26.695 25.48
      vertex 10.211 27.095 25.48
    endloop
  endfacet
  facet normal 0 0 1
    outer loop
      vertex 10.211 26.695 25.48
      vertex -13.214 27.095 25.48
      vertex -13.214 26.695 25.48
    endloop
  endfacet
  facet normal 0 -1 0
    outer loop
      vertex -13.214 27.095 25.48
      vertex 10.211 27.095 26.08
      vertex -13.214 27.095 26.08
    endloop
  endfacet
  facet normal 0 -1 -0
    outer loop
      vertex 10.211 27.095 26.08
      vertex -13.214 27.095 25.48
      vertex 10.211 27.095 25.48
    endloop
  endfacet
  facet normal 1 -0 0
    outer loop
      vertex -13.214 -12.279 26.08
      vertex -13.214 -11.879 25.48
      vertex -13.214 -11.879 26.08
    endloop
  endfacet
  facet normal 1 0 0
    outer loop
      vertex -13.214 -11.879 25.48
      vertex -13.214 -12.279 26.08
      vertex -13.214 -12.279 25.48
    endloop
  endfacet
  facet normal 0 0 -1
    outer loop
      vertex -13.214 -12.279 26.08
      vertex 10.211 -11.879 26.08
      vertex 10.211 -12.279 26.08
    endloop
  endfacet
  facet normal -0 0 -1
    outer loop
      vertex 10.211 -11.879 26.08
      vertex -13.214 -12.279 26.08
      vertex -13.214 -11.879 26.08
    endloop
  endfacet
  facet normal -1 0 0
    outer loop
      vertex 10.211 -12.279 25.48
      vertex 10.211 -11.879 26.08
      vertex 10.211 -11.879 25.48
    endloop
  endfacet
  facet normal -1 -0 0
    outer loop
      vertex 10.211 -11.879 26.08
      vertex 10.211 -12.279 25.48
      vertex 10.211 -12.279 26.08
    endloop
  endfacet
  facet normal -0 0 1
    outer loop
      vertex -13.214 -11.879 25.48
      vertex 10.211 -12.279 25.48
      vertex 10.211 -11.879 25.48
    endloop
  endfacet
  facet normal 0 0 1
    outer loop
      vertex 10.211 -12.279 25.48
      vertex -13.214 -11.879 25.48
      vertex -13.214 -12.279 25.48
    endloop
  endfacet
  facet normal 0 1 -0
    outer loop
      vertex 10.211 -12.279 25.48
      vertex -13.214 -12.279 26.08
      vertex 10.211 -12.279 26.08
    endloop
  endfacet
  facet normal 0 1 0
    outer loop
      vertex -13.214 -12.279 26.08
      vertex 10.211 -12.279 25.48
      vertex -13.214 -12.279 25.48
    endloop
  endfacet
endsolid OpenSCAD_Model
