solid OpenSCAD_Model
  facet normal 1 -0 0
    outer loop
      vertex -12.0015 -5.217 -12.77
      vertex -12.0015 20.033 -16.57
      vertex -12.0015 20.033 -12.77
    endloop
  endfacet
  facet normal 1 0 0
    outer loop
      vertex -12.0015 20.033 -16.57
      vertex -12.0015 -5.217 -12.77
      vertex -12.0015 -5.217 -16.57
    endloop
  endfacet
  facet normal -1 0 0
    outer loop
      vertex -12.0015 20.033 -17.17
      vertex -12.0015 20.233 -16.57
      vertex -12.0015 20.233 -17.17
    endloop
  endfacet
  facet normal -1 -0 0
    outer loop
      vertex -12.0015 20.233 -16.57
      vertex -12.0015 20.033 -17.17
      vertex -12.0015 20.033 -16.57
    endloop
  endfacet
  facet normal -1 0 0
    outer loop
      vertex -12.0015 -5.417 -17.17
      vertex -12.0015 -5.217 -16.57
      vertex -12.0015 -5.217 -17.17
    endloop
  endfacet
  facet normal -1 -0 0
    outer loop
      vertex -12.0015 -5.217 -16.57
      vertex -12.0015 -5.417 -17.17
      vertex -12.0015 -5.417 -16.57
    endloop
  endfacet
  facet normal 0 0 -1
    outer loop
      vertex 0.398509 20.033 -16.17
      vertex 0.9985 20.233 -16.17
      vertex 0.9985 20.033 -16.17
    endloop
  endfacet
  facet normal -0 0 -1
    outer loop
      vertex 0.9985 20.233 -16.17
      vertex 0.398509 20.033 -16.17
      vertex 0.398509 20.233 -16.17
    endloop
  endfacet
  facet normal 0 0 -1
    outer loop
      vertex 0.398509 -5.417 -16.17
      vertex 0.9985 -5.217 -16.17
      vertex 0.9985 -5.417 -16.17
    endloop
  endfacet
  facet normal -0 0 -1
    outer loop
      vertex 0.9985 -5.217 -16.17
      vertex 0.398509 -5.417 -16.17
      vertex 0.398509 -5.217 -16.17
    endloop
  endfacet
  facet normal -0 0 1
    outer loop
      vertex -3.40151 20.033 -16.17
      vertex 0.398509 -5.217 -16.17
      vertex 0.398509 20.033 -16.17
    endloop
  endfacet
  facet normal 0 0 1
    outer loop
      vertex 0.398509 -5.217 -16.17
      vertex -3.40151 20.033 -16.17
      vertex -3.40151 -5.217 -16.17
    endloop
  endfacet
  facet normal 0 0 -1
    outer loop
      vertex -4.0015 20.033 -16.17
      vertex -3.40151 20.233 -16.17
      vertex -3.40151 20.033 -16.17
    endloop
  endfacet
  facet normal -0 0 -1
    outer loop
      vertex -3.40151 20.233 -16.17
      vertex -4.0015 20.033 -16.17
      vertex -4.0015 20.233 -16.17
    endloop
  endfacet
  facet normal 0 0 -1
    outer loop
      vertex -4.0015 -5.417 -16.17
      vertex -3.40151 -5.217 -16.17
      vertex -3.40151 -5.417 -16.17
    endloop
  endfacet
  facet normal -0 0 -1
    outer loop
      vertex -3.40151 -5.217 -16.17
      vertex -4.0015 -5.417 -16.17
      vertex -4.0015 -5.217 -16.17
    endloop
  endfacet
  facet normal 1 -0 0
    outer loop
      vertex -4.0015 20.033 -16.17
      vertex -4.0015 20.233 -16.77
      vertex -4.0015 20.233 -16.17
    endloop
  endfacet
  facet normal 1 0 0
    outer loop
      vertex -4.0015 20.233 -16.77
      vertex -4.0015 20.033 -16.17
      vertex -4.0015 20.033 -16.77
    endloop
  endfacet
  facet normal 1 -0 0
    outer loop
      vertex -4.0015 -5.417 -16.17
      vertex -4.0015 -5.217 -16.77
      vertex -4.0015 -5.217 -16.17
    endloop
  endfacet
  facet normal 1 0 0
    outer loop
      vertex -4.0015 -5.217 -16.77
      vertex -4.0015 -5.417 -16.17
      vertex -4.0015 -5.417 -16.77
    endloop
  endfacet
  facet normal -1 0 0
    outer loop
      vertex -4.0015 -5.217 -17.17
      vertex -4.0015 20.033 -16.77
      vertex -4.0015 20.033 -17.17
    endloop
  endfacet
  facet normal -1 -0 0
    outer loop
      vertex -4.0015 20.033 -16.77
      vertex -4.0015 -5.217 -17.17
      vertex -4.0015 -5.217 -16.77
    endloop
  endfacet
  facet normal 0 1 0
    outer loop
      vertex 0.398509 -5.217 -16.17
      vertex 8.9985 -5.217 -12.77
      vertex 0.9985 -5.217 -16.17
    endloop
  endfacet
  facet normal 0 1 -0
    outer loop
      vertex 8.9985 -5.217 -16.57
      vertex 0.9985 -5.217 -16.17
      vertex 8.9985 -5.217 -12.77
    endloop
  endfacet
  facet normal 0 1 0
    outer loop
      vertex 8.9985 -5.217 -16.57
      vertex 0.9985 -5.217 -16.77
      vertex 0.9985 -5.217 -16.17
    endloop
  endfacet
  facet normal 0 1 -0
    outer loop
      vertex 8.9985 -5.217 -17.17
      vertex 0.9985 -5.217 -16.77
      vertex 8.9985 -5.217 -16.57
    endloop
  endfacet
  facet normal 0 1 0
    outer loop
      vertex 0.9985 -5.217 -16.77
      vertex 8.9985 -5.217 -17.17
      vertex 0.9985 -5.217 -17.17
    endloop
  endfacet
  facet normal 0 1 0
    outer loop
      vertex 8.9985 -5.217 -12.77
      vertex 0.398509 -5.217 -16.17
      vertex -12.0015 -5.217 -12.77
    endloop
  endfacet
  facet normal 0 1 -0
    outer loop
      vertex -3.40151 -5.217 -16.17
      vertex -12.0015 -5.217 -12.77
      vertex 0.398509 -5.217 -16.17
    endloop
  endfacet
  facet normal 0 1 -0
    outer loop
      vertex -4.0015 -5.217 -16.17
      vertex -12.0015 -5.217 -12.77
      vertex -3.40151 -5.217 -16.17
    endloop
  endfacet
  facet normal 0 1 0
    outer loop
      vertex -4.0015 -5.217 -16.17
      vertex -12.0015 -5.217 -16.57
      vertex -12.0015 -5.217 -12.77
    endloop
  endfacet
  facet normal 0 1 -0
    outer loop
      vertex -4.0015 -5.217 -16.77
      vertex -12.0015 -5.217 -16.57
      vertex -4.0015 -5.217 -16.17
    endloop
  endfacet
  facet normal 0 1 0
    outer loop
      vertex -12.0015 -5.217 -17.17
      vertex -4.0015 -5.217 -16.77
      vertex -4.0015 -5.217 -17.17
    endloop
  endfacet
  facet normal 0 1 0
    outer loop
      vertex -4.0015 -5.217 -16.77
      vertex -12.0015 -5.217 -17.17
      vertex -12.0015 -5.217 -16.57
    endloop
  endfacet
  facet normal 0 -1 0
    outer loop
      vertex -3.40151 20.033 -16.17
      vertex -12.0015 20.033 -12.77
      vertex -4.0015 20.033 -16.17
    endloop
  endfacet
  facet normal 0 -1 0
    outer loop
      vertex -12.0015 20.033 -16.57
      vertex -4.0015 20.033 -16.17
      vertex -12.0015 20.033 -12.77
    endloop
  endfacet
  facet normal 0 -1 0
    outer loop
      vertex -12.0015 20.033 -16.57
      vertex -4.0015 20.033 -16.77
      vertex -4.0015 20.033 -16.17
    endloop
  endfacet
  facet normal 0 -1 0
    outer loop
      vertex -12.0015 20.033 -17.17
      vertex -4.0015 20.033 -16.77
      vertex -12.0015 20.033 -16.57
    endloop
  endfacet
  facet normal 0 -1 -0
    outer loop
      vertex -4.0015 20.033 -16.77
      vertex -12.0015 20.033 -17.17
      vertex -4.0015 20.033 -17.17
    endloop
  endfacet
  facet normal 0 -1 0
    outer loop
      vertex -12.0015 20.033 -12.77
      vertex -3.40151 20.033 -16.17
      vertex 8.9985 20.033 -12.77
    endloop
  endfacet
  facet normal 0 -1 0
    outer loop
      vertex 0.398509 20.033 -16.17
      vertex 8.9985 20.033 -12.77
      vertex -3.40151 20.033 -16.17
    endloop
  endfacet
  facet normal 0 -1 0
    outer loop
      vertex 0.9985 20.033 -16.17
      vertex 8.9985 20.033 -12.77
      vertex 0.398509 20.033 -16.17
    endloop
  endfacet
  facet normal 0 -1 0
    outer loop
      vertex 0.9985 20.033 -16.17
      vertex 8.9985 20.033 -16.57
      vertex 8.9985 20.033 -12.77
    endloop
  endfacet
  facet normal 0 -1 0
    outer loop
      vertex 0.9985 20.033 -16.77
      vertex 8.9985 20.033 -16.57
      vertex 0.9985 20.033 -16.17
    endloop
  endfacet
  facet normal 0 -1 0
    outer loop
      vertex 8.9985 20.033 -17.17
      vertex 0.9985 20.033 -16.77
      vertex 0.9985 20.033 -17.17
    endloop
  endfacet
  facet normal 0 -1 0
    outer loop
      vertex 0.9985 20.033 -16.77
      vertex 8.9985 20.033 -17.17
      vertex 8.9985 20.033 -16.57
    endloop
  endfacet
  facet normal -1 0 0
    outer loop
      vertex 0.9985 20.033 -16.77
      vertex 0.9985 20.233 -16.17
      vertex 0.9985 20.233 -16.77
    endloop
  endfacet
  facet normal -1 -0 0
    outer loop
      vertex 0.9985 20.233 -16.17
      vertex 0.9985 20.033 -16.77
      vertex 0.9985 20.033 -16.17
    endloop
  endfacet
  facet normal -1 0 0
    outer loop
      vertex 0.9985 -5.417 -16.77
      vertex 0.9985 -5.217 -16.17
      vertex 0.9985 -5.217 -16.77
    endloop
  endfacet
  facet normal -1 -0 0
    outer loop
      vertex 0.9985 -5.217 -16.17
      vertex 0.9985 -5.417 -16.77
      vertex 0.9985 -5.417 -16.17
    endloop
  endfacet
  facet normal 1 -0 0
    outer loop
      vertex 0.9985 -5.217 -16.77
      vertex 0.9985 20.033 -17.17
      vertex 0.9985 20.033 -16.77
    endloop
  endfacet
  facet normal 1 0 0
    outer loop
      vertex 0.9985 20.033 -17.17
      vertex 0.9985 -5.217 -16.77
      vertex 0.9985 -5.217 -17.17
    endloop
  endfacet
  facet normal -1 0 0
    outer loop
      vertex 8.9985 -5.217 -16.57
      vertex 8.9985 20.033 -12.77
      vertex 8.9985 20.033 -16.57
    endloop
  endfacet
  facet normal -1 -0 0
    outer loop
      vertex 8.9985 20.033 -12.77
      vertex 8.9985 -5.217 -16.57
      vertex 8.9985 -5.217 -12.77
    endloop
  endfacet
  facet normal 1 -0 0
    outer loop
      vertex 8.9985 20.033 -16.57
      vertex 8.9985 20.233 -17.17
      vertex 8.9985 20.233 -16.57
    endloop
  endfacet
  facet normal 1 0 0
    outer loop
      vertex 8.9985 20.233 -17.17
      vertex 8.9985 20.033 -16.57
      vertex 8.9985 20.033 -17.17
    endloop
  endfacet
  facet normal 1 -0 0
    outer loop
      vertex 8.9985 -5.417 -16.57
      vertex 8.9985 -5.217 -17.17
      vertex 8.9985 -5.217 -16.57
    endloop
  endfacet
  facet normal 1 0 0
    outer loop
      vertex 8.9985 -5.217 -17.17
      vertex 8.9985 -5.417 -16.57
      vertex 8.9985 -5.417 -17.17
    endloop
  endfacet
  facet normal 0 0 -1
    outer loop
      vertex -12.0015 -5.217 -12.77
      vertex 8.9985 20.033 -12.77
      vertex 8.9985 -5.217 -12.77
    endloop
  endfacet
  facet normal -0 0 -1
    outer loop
      vertex 8.9985 20.033 -12.77
      vertex -12.0015 -5.217 -12.77
      vertex -12.0015 20.033 -12.77
    endloop
  endfacet
  facet normal 0 0 -1
    outer loop
      vertex 10.411 -12.879 -12.77
      vertex 11.611 -6.617 -12.77
      vertex 11.611 -11.679 -12.77
    endloop
  endfacet
  facet normal 0 0 -1
    outer loop
      vertex -13.414 -12.879 -12.77
      vertex 11.611 -6.617 -12.77
      vertex 10.411 -12.879 -12.77
    endloop
  endfacet
  facet normal 0 0 -1
    outer loop
      vertex -14.614 -6.617 -12.77
      vertex -13.414 -12.879 -12.77
      vertex -14.614 -11.679 -12.77
    endloop
  endfacet
  facet normal 0 0 -1
    outer loop
      vertex -13.414 -12.879 -12.77
      vertex -14.614 -6.617 -12.77
      vertex 11.611 -6.617 -12.77
    endloop
  endfacet
  facet normal 0 0 -1
    outer loop
      vertex 11.611 21.433 -12.77
      vertex 10.411 27.695 -12.77
      vertex 11.611 26.495 -12.77
    endloop
  endfacet
  facet normal 0 0 -1
    outer loop
      vertex 11.611 21.433 -12.77
      vertex -13.414 27.695 -12.77
      vertex 10.411 27.695 -12.77
    endloop
  endfacet
  facet normal 0 0 -1
    outer loop
      vertex -14.614 21.433 -12.77
      vertex -13.414 27.695 -12.77
      vertex 11.611 21.433 -12.77
    endloop
  endfacet
  facet normal 0 0 -1
    outer loop
      vertex -13.414 27.695 -12.77
      vertex -14.614 21.433 -12.77
      vertex -14.614 26.495 -12.77
    endloop
  endfacet
  facet normal 0 -1 0
    outer loop
      vertex -12.0015 20.233 -17.17
      vertex -12.0015 20.233 -16.57
      vertex -12.6015 20.233 -17.17
    endloop
  endfacet
  facet normal -0 0 -1
    outer loop
      vertex -4.0015 -5.217 -17.17
      vertex -12.0015 -5.417 -17.17
      vertex -12.0015 -5.217 -17.17
    endloop
  endfacet
  facet normal 0 0 -1
    outer loop
      vertex 8.9985 20.033 -17.17
      vertex 0.9985 20.033 -17.17
      vertex 8.9985 20.233 -17.17
    endloop
  endfacet
  facet normal 0 0 -1
    outer loop
      vertex 12.5235 -6.617 -17.17
      vertex 9.59849 -5.417 -17.17
      vertex 12.5235 21.433 -17.17
    endloop
  endfacet
  facet normal 0 0 -1
    outer loop
      vertex 12.5235 -6.617 -17.17
      vertex 8.9985 -5.417 -17.17
      vertex 9.59849 -5.417 -17.17
    endloop
  endfacet
  facet normal 0 0 -1
    outer loop
      vertex 8.9985 -5.417 -17.17
      vertex 0.9985 -5.217 -17.17
      vertex 8.9985 -5.217 -17.17
    endloop
  endfacet
  facet normal 0 0 -1
    outer loop
      vertex 12.5235 -6.617 -17.17
      vertex 0.9985 -5.217 -17.17
      vertex 8.9985 -5.417 -17.17
    endloop
  endfacet
  facet normal 0 0 -1
    outer loop
      vertex 0.9985 -5.217 -17.17
      vertex -4.0015 -5.217 -17.17
      vertex 0.9985 20.033 -17.17
    endloop
  endfacet
  facet normal 0 0 -1
    outer loop
      vertex 12.5235 -6.617 -17.17
      vertex -4.0015 -5.217 -17.17
      vertex 0.9985 -5.217 -17.17
    endloop
  endfacet
  facet normal 0 0 -1
    outer loop
      vertex -15.5265 -6.617 -17.17
      vertex -4.0015 -5.217 -17.17
      vertex 12.5235 -6.617 -17.17
    endloop
  endfacet
  facet normal 0 0 -1
    outer loop
      vertex -4.0015 -5.217 -17.17
      vertex -15.5265 -6.617 -17.17
      vertex -12.0015 -5.417 -17.17
    endloop
  endfacet
  facet normal -0 0 -1
    outer loop
      vertex -12.6015 -5.417 -17.17
      vertex -15.5265 -6.617 -17.17
      vertex -12.6015 20.233 -17.17
    endloop
  endfacet
  facet normal -0 0 -1
    outer loop
      vertex -12.0015 -5.417 -17.17
      vertex -15.5265 -6.617 -17.17
      vertex -12.6015 -5.417 -17.17
    endloop
  endfacet
  facet normal 0 0 -1
    outer loop
      vertex 9.59849 20.233 -17.17
      vertex 12.5235 21.433 -17.17
      vertex 9.59849 -5.417 -17.17
    endloop
  endfacet
  facet normal 0 0 -1
    outer loop
      vertex 8.9985 20.233 -17.17
      vertex 12.5235 21.433 -17.17
      vertex 9.59849 20.233 -17.17
    endloop
  endfacet
  facet normal 0 0 -1
    outer loop
      vertex 0.9985 20.033 -17.17
      vertex 12.5235 21.433 -17.17
      vertex 8.9985 20.233 -17.17
    endloop
  endfacet
  facet normal 0 0 -1
    outer loop
      vertex -4.0015 20.033 -17.17
      vertex 0.9985 20.033 -17.17
      vertex -4.0015 -5.217 -17.17
    endloop
  endfacet
  facet normal 0 0 -1
    outer loop
      vertex -4.0015 20.033 -17.17
      vertex 12.5235 21.433 -17.17
      vertex 0.9985 20.033 -17.17
    endloop
  endfacet
  facet normal 0 0 -1
    outer loop
      vertex -12.0015 20.233 -17.17
      vertex -4.0015 20.033 -17.17
      vertex -12.0015 20.033 -17.17
    endloop
  endfacet
  facet normal 0 0 -1
    outer loop
      vertex -15.5265 21.433 -17.17
      vertex -4.0015 20.033 -17.17
      vertex -12.0015 20.233 -17.17
    endloop
  endfacet
  facet normal 0 0 -1
    outer loop
      vertex -15.5265 21.433 -17.17
      vertex -12.0015 20.233 -17.17
      vertex -12.6015 20.233 -17.17
    endloop
  endfacet
  facet normal 0 0 -1
    outer loop
      vertex -4.0015 20.033 -17.17
      vertex -15.5265 21.433 -17.17
      vertex 12.5235 21.433 -17.17
    endloop
  endfacet
  facet normal 0 0 -1
    outer loop
      vertex -15.5265 21.433 -17.17
      vertex -12.6015 20.233 -17.17
      vertex -15.5265 -6.617 -17.17
    endloop
  endfacet
  facet normal 0 1 0
    outer loop
      vertex -12.0015 -5.417 -16.57
      vertex -12.0015 -5.417 -17.17
      vertex -12.6015 -5.417 -17.17
    endloop
  endfacet
  facet normal 0.707107 0 -0.707107
    outer loop
      vertex -12.0015 20.033 -16.57
      vertex -12.6015 20.233 -17.17
      vertex -12.0015 20.233 -16.57
    endloop
  endfacet
  facet normal 0.707107 0 -0.707107
    outer loop
      vertex -12.0015 -5.217 -16.57
      vertex -12.6015 20.233 -17.17
      vertex -12.0015 20.033 -16.57
    endloop
  endfacet
  facet normal 0.707107 0 -0.707107
    outer loop
      vertex -12.6015 -5.417 -17.17
      vertex -12.0015 -5.217 -16.57
      vertex -12.0015 -5.417 -16.57
    endloop
  endfacet
  facet normal 0.707107 0 -0.707107
    outer loop
      vertex -12.0015 -5.217 -16.57
      vertex -12.6015 -5.417 -17.17
      vertex -12.6015 20.233 -17.17
    endloop
  endfacet
  facet normal 0 -1 0
    outer loop
      vertex 9.59849 20.233 -17.17
      vertex 8.9985 20.233 -16.57
      vertex 8.9985 20.233 -17.17
    endloop
  endfacet
  facet normal -0.707113 0 -0.707101
    outer loop
      vertex 9.59849 20.233 -17.17
      vertex 8.9985 20.033 -16.57
      vertex 8.9985 20.233 -16.57
    endloop
  endfacet
  facet normal -0.707113 0 -0.707101
    outer loop
      vertex 9.59849 20.233 -17.17
      vertex 8.9985 -5.217 -16.57
      vertex 8.9985 20.033 -16.57
    endloop
  endfacet
  facet normal -0.707113 0 -0.707101
    outer loop
      vertex 9.59849 -5.417 -17.17
      vertex 8.9985 -5.217 -16.57
      vertex 9.59849 20.233 -17.17
    endloop
  endfacet
  facet normal -0.707113 -0 -0.707101
    outer loop
      vertex 8.9985 -5.217 -16.57
      vertex 9.59849 -5.417 -17.17
      vertex 8.9985 -5.417 -16.57
    endloop
  endfacet
  facet normal 0 1 0
    outer loop
      vertex 8.9985 -5.417 -16.57
      vertex 9.59849 -5.417 -17.17
      vertex 8.9985 -5.417 -17.17
    endloop
  endfacet
  facet normal -0 -1 0
    outer loop
      vertex -3.40151 20.233 -16.17
      vertex -4.0015 20.233 -16.17
      vertex -4.0015 20.233 -16.77
    endloop
  endfacet
  facet normal -0.707113 0 0.707101
    outer loop
      vertex -4.0015 20.033 -16.77
      vertex -3.40151 20.233 -16.17
      vertex -4.0015 20.233 -16.77
    endloop
  endfacet
  facet normal -0.707113 0 0.707101
    outer loop
      vertex -4.0015 20.033 -16.77
      vertex -3.40151 20.033 -16.17
      vertex -3.40151 20.233 -16.17
    endloop
  endfacet
  facet normal -0.707113 0 0.707101
    outer loop
      vertex -4.0015 -5.217 -16.77
      vertex -3.40151 20.033 -16.17
      vertex -4.0015 20.033 -16.77
    endloop
  endfacet
  facet normal -0.707113 0 0.707101
    outer loop
      vertex -4.0015 -5.217 -16.77
      vertex -3.40151 -5.217 -16.17
      vertex -3.40151 20.033 -16.17
    endloop
  endfacet
  facet normal -0.707113 0 0.707101
    outer loop
      vertex -4.0015 -5.417 -16.77
      vertex -3.40151 -5.217 -16.17
      vertex -4.0015 -5.217 -16.77
    endloop
  endfacet
  facet normal -0.707113 0 0.707101
    outer loop
      vertex -3.40151 -5.217 -16.17
      vertex -4.0015 -5.417 -16.77
      vertex -3.40151 -5.417 -16.17
    endloop
  endfacet
  facet normal -0 1 0
    outer loop
      vertex -4.0015 -5.417 -16.17
      vertex -3.40151 -5.417 -16.17
      vertex -4.0015 -5.417 -16.77
    endloop
  endfacet
  facet normal 0 -1 0
    outer loop
      vertex 0.9985 20.233 -16.77
      vertex 0.9985 20.233 -16.17
      vertex 0.398509 20.233 -16.17
    endloop
  endfacet
  facet normal 0.707112 -0 0.707101
    outer loop
      vertex 0.398509 20.033 -16.17
      vertex 0.9985 20.233 -16.77
      vertex 0.398509 20.233 -16.17
    endloop
  endfacet
  facet normal 0.707112 0 0.707101
    outer loop
      vertex 0.398509 20.033 -16.17
      vertex 0.9985 20.033 -16.77
      vertex 0.9985 20.233 -16.77
    endloop
  endfacet
  facet normal 0.707112 -0 0.707101
    outer loop
      vertex 0.398509 -5.217 -16.17
      vertex 0.9985 20.033 -16.77
      vertex 0.398509 20.033 -16.17
    endloop
  endfacet
  facet normal 0.707112 0 0.707101
    outer loop
      vertex 0.398509 -5.217 -16.17
      vertex 0.9985 -5.217 -16.77
      vertex 0.9985 20.033 -16.77
    endloop
  endfacet
  facet normal 0.707112 -0 0.707101
    outer loop
      vertex 0.398509 -5.417 -16.17
      vertex 0.9985 -5.217 -16.77
      vertex 0.398509 -5.217 -16.17
    endloop
  endfacet
  facet normal 0.707112 0 0.707101
    outer loop
      vertex 0.9985 -5.217 -16.77
      vertex 0.398509 -5.417 -16.17
      vertex 0.9985 -5.417 -16.77
    endloop
  endfacet
  facet normal 0 1 0
    outer loop
      vertex 0.9985 -5.417 -16.17
      vertex 0.9985 -5.417 -16.77
      vertex 0.398509 -5.417 -16.17
    endloop
  endfacet
  facet normal -1 0 0
    outer loop
      vertex -15.5265 -6.617 -17.17
      vertex -15.5265 21.433 -12.27
      vertex -15.5265 21.433 -17.17
    endloop
  endfacet
  facet normal -1 -0 0
    outer loop
      vertex -15.5265 21.433 -12.27
      vertex -15.5265 -6.617 -17.17
      vertex -15.5265 -6.617 -12.27
    endloop
  endfacet
  facet normal -0 0 1
    outer loop
      vertex 11.611 21.433 -12.27
      vertex 12.5235 -6.617 -12.27
      vertex 12.5235 21.433 -12.27
    endloop
  endfacet
  facet normal 0 0 1
    outer loop
      vertex 12.5235 -6.617 -12.27
      vertex 11.611 21.433 -12.27
      vertex 11.611 -6.617 -12.27
    endloop
  endfacet
  facet normal -0 0 1
    outer loop
      vertex -15.5265 21.433 -12.27
      vertex -14.614 -6.617 -12.27
      vertex -14.614 21.433 -12.27
    endloop
  endfacet
  facet normal 0 0 1
    outer loop
      vertex -14.614 -6.617 -12.27
      vertex -15.5265 21.433 -12.27
      vertex -15.5265 -6.617 -12.27
    endloop
  endfacet
  facet normal 1 -0 0
    outer loop
      vertex 12.5235 -6.617 -12.27
      vertex 12.5235 21.433 -17.17
      vertex 12.5235 21.433 -12.27
    endloop
  endfacet
  facet normal 1 0 0
    outer loop
      vertex 12.5235 21.433 -17.17
      vertex 12.5235 -6.617 -12.27
      vertex 12.5235 -6.617 -17.17
    endloop
  endfacet
  facet normal 0 -1 0
    outer loop
      vertex -15.5265 -6.617 -12.27
      vertex -14.614 -6.617 -12.77
      vertex -14.614 -6.617 -12.27
    endloop
  endfacet
  facet normal 0 -1 -0
    outer loop
      vertex -14.614 -6.617 -12.77
      vertex -15.5265 -6.617 -17.17
      vertex 11.611 -6.617 -12.77
    endloop
  endfacet
  facet normal 0 -1 0
    outer loop
      vertex -15.5265 -6.617 -17.17
      vertex -14.614 -6.617 -12.77
      vertex -15.5265 -6.617 -12.27
    endloop
  endfacet
  facet normal 0 -1 0
    outer loop
      vertex 11.611 -6.617 -12.77
      vertex 12.5235 -6.617 -12.27
      vertex 11.611 -6.617 -12.27
    endloop
  endfacet
  facet normal 0 -1 0
    outer loop
      vertex 11.611 -6.617 -12.77
      vertex 12.5235 -6.617 -17.17
      vertex 12.5235 -6.617 -12.27
    endloop
  endfacet
  facet normal 0 -1 0
    outer loop
      vertex 12.5235 -6.617 -17.17
      vertex 11.611 -6.617 -12.77
      vertex -15.5265 -6.617 -17.17
    endloop
  endfacet
  facet normal 0 1 0
    outer loop
      vertex 12.5235 21.433 -12.27
      vertex 11.611 21.433 -12.77
      vertex 11.611 21.433 -12.27
    endloop
  endfacet
  facet normal 0 1 0
    outer loop
      vertex 11.611 21.433 -12.77
      vertex 12.5235 21.433 -17.17
      vertex -14.614 21.433 -12.77
    endloop
  endfacet
  facet normal 0 1 -0
    outer loop
      vertex 12.5235 21.433 -17.17
      vertex 11.611 21.433 -12.77
      vertex 12.5235 21.433 -12.27
    endloop
  endfacet
  facet normal 0 1 -0
    outer loop
      vertex -14.614 21.433 -12.77
      vertex -15.5265 21.433 -12.27
      vertex -14.614 21.433 -12.27
    endloop
  endfacet
  facet normal 0 1 0
    outer loop
      vertex -14.614 21.433 -12.77
      vertex -15.5265 21.433 -17.17
      vertex -15.5265 21.433 -12.27
    endloop
  endfacet
  facet normal 0 1 0
    outer loop
      vertex -15.5265 21.433 -17.17
      vertex -14.614 21.433 -12.77
      vertex 12.5235 21.433 -17.17
    endloop
  endfacet
  facet normal -1 0 0
    outer loop
      vertex -14.614 -6.617 -12.77
      vertex -14.614 -11.679 -12.77
      vertex -14.614 -6.617 -12.27
    endloop
  endfacet
  facet normal -1 0 0
    outer loop
      vertex -14.614 21.433 -12.27
      vertex -14.614 26.495 -12.77
      vertex -14.614 21.433 -12.77
    endloop
  endfacet
  facet normal -1 0 0
    outer loop
      vertex -14.614 26.495 -12.77
      vertex -14.614 21.433 -12.27
      vertex -14.614 26.495 6.76
    endloop
  endfacet
  facet normal -1 0 0
    outer loop
      vertex -14.614 -6.617 -12.27
      vertex -14.614 26.495 6.76
      vertex -14.614 21.433 -12.27
    endloop
  endfacet
  facet normal -1 0 0
    outer loop
      vertex -14.614 -11.679 6.76
      vertex -14.614 -6.617 -12.27
      vertex -14.614 -11.679 -12.77
    endloop
  endfacet
  facet normal -1 0 0
    outer loop
      vertex -14.614 -6.617 -12.27
      vertex -14.614 -11.679 6.76
      vertex -14.614 26.495 6.76
    endloop
  endfacet
  facet normal -0 0 1
    outer loop
      vertex -13.414 27.695 6.76
      vertex 10.411 26.495 6.76
      vertex 10.411 27.695 6.76
    endloop
  endfacet
  facet normal 0 0 1
    outer loop
      vertex -13.414 27.695 6.76
      vertex -13.414 26.495 6.76
      vertex 10.411 26.495 6.76
    endloop
  endfacet
  facet normal 0 0 1
    outer loop
      vertex -14.614 26.495 6.76
      vertex -13.414 26.495 6.76
      vertex -13.414 27.695 6.76
    endloop
  endfacet
  facet normal 0 0 1
    outer loop
      vertex -13.414 26.495 6.76
      vertex -14.614 26.495 6.76
      vertex -13.414 -11.679 6.76
    endloop
  endfacet
  facet normal 0 0 1
    outer loop
      vertex -14.614 -11.679 6.76
      vertex -13.414 -11.679 6.76
      vertex -14.614 26.495 6.76
    endloop
  endfacet
  facet normal 0 0 1
    outer loop
      vertex -13.414 -11.679 6.76
      vertex -14.614 -11.679 6.76
      vertex -13.414 -12.879 6.76
    endloop
  endfacet
  facet normal 0 0 1
    outer loop
      vertex 10.411 26.495 6.76
      vertex 11.611 26.495 6.76
      vertex 10.411 27.695 6.76
    endloop
  endfacet
  facet normal 0 0 1
    outer loop
      vertex 11.611 26.495 6.76
      vertex 10.411 26.495 6.76
      vertex 11.611 -11.679 6.76
    endloop
  endfacet
  facet normal 0 0 1
    outer loop
      vertex 10.411 -11.679 6.76
      vertex 11.611 -11.679 6.76
      vertex 10.411 26.495 6.76
    endloop
  endfacet
  facet normal -0 0 1
    outer loop
      vertex 10.411 -11.679 6.76
      vertex 10.411 -12.879 6.76
      vertex 11.611 -11.679 6.76
    endloop
  endfacet
  facet normal -0 0 1
    outer loop
      vertex -13.414 -11.679 6.76
      vertex 10.411 -12.879 6.76
      vertex 10.411 -11.679 6.76
    endloop
  endfacet
  facet normal 0 0 1
    outer loop
      vertex 10.411 -12.879 6.76
      vertex -13.414 -11.679 6.76
      vertex -13.414 -12.879 6.76
    endloop
  endfacet
  facet normal 1 0 0
    outer loop
      vertex 11.611 26.495 6.76
      vertex 11.611 21.433 -12.27
      vertex 11.611 26.495 -12.77
    endloop
  endfacet
  facet normal 1 0 0
    outer loop
      vertex 11.611 26.495 6.76
      vertex 11.611 -6.617 -12.27
      vertex 11.611 21.433 -12.27
    endloop
  endfacet
  facet normal 1 -0 0
    outer loop
      vertex 11.611 -11.679 6.76
      vertex 11.611 -6.617 -12.27
      vertex 11.611 26.495 6.76
    endloop
  endfacet
  facet normal 1 0 0
    outer loop
      vertex 11.611 -11.679 -12.77
      vertex 11.611 -6.617 -12.27
      vertex 11.611 -11.679 6.76
    endloop
  endfacet
  facet normal 1 0 0
    outer loop
      vertex 11.611 -6.617 -12.27
      vertex 11.611 -11.679 -12.77
      vertex 11.611 -6.617 -12.77
    endloop
  endfacet
  facet normal 1 0 0
    outer loop
      vertex 11.611 26.495 -12.77
      vertex 11.611 21.433 -12.27
      vertex 11.611 21.433 -12.77
    endloop
  endfacet
  facet normal 0 1 0
    outer loop
      vertex 2.495 27.695 -0.45
      vertex 10.411 27.695 6.76
      vertex 8.495 27.695 -0.45
    endloop
  endfacet
  facet normal 0 1 0
    outer loop
      vertex 10.411 27.695 6.76
      vertex 8.495 27.695 -1.15
      vertex 8.495 27.695 -0.45
    endloop
  endfacet
  facet normal 0 1 0
    outer loop
      vertex 8.495 27.695 -1.15
      vertex 10.411 27.695 -12.77
      vertex 2.495 27.695 -1.15
    endloop
  endfacet
  facet normal 0 1 -0
    outer loop
      vertex 10.411 27.695 -12.77
      vertex 8.495 27.695 -1.15
      vertex 10.411 27.695 6.76
    endloop
  endfacet
  facet normal 0 1 0
    outer loop
      vertex 10.411 27.695 6.76
      vertex 2.495 27.695 -0.45
      vertex -13.414 27.695 6.76
    endloop
  endfacet
  facet normal 0 1 -0
    outer loop
      vertex 2.495 27.695 -1.15
      vertex -13.414 27.695 6.76
      vertex 2.495 27.695 -0.45
    endloop
  endfacet
  facet normal 0 1 0
    outer loop
      vertex -13.414 27.695 -12.77
      vertex 2.495 27.695 -1.15
      vertex 10.411 27.695 -12.77
    endloop
  endfacet
  facet normal 0 1 0
    outer loop
      vertex 2.495 27.695 -1.15
      vertex -13.414 27.695 -12.77
      vertex -13.414 27.695 6.76
    endloop
  endfacet
  facet normal 0 -1 0
    outer loop
      vertex -3.06 -12.879 4.78
      vertex -13.414 -12.879 6.76
      vertex -12.06 -12.879 4.78
    endloop
  endfacet
  facet normal 0 -1 0
    outer loop
      vertex -13.414 -12.879 6.76
      vertex -12.06 -12.879 1.6
      vertex -12.06 -12.879 4.78
    endloop
  endfacet
  facet normal 0 -1 0
    outer loop
      vertex -13.414 -12.879 -12.77
      vertex -3.06 -12.879 1.6
      vertex -12.06 -12.879 1.6
    endloop
  endfacet
  facet normal 0 -1 0
    outer loop
      vertex -3.06 -12.879 1.6
      vertex 2.495 -12.879 -1.15
      vertex 2.495 -12.879 -0.45
    endloop
  endfacet
  facet normal 0 -1 0
    outer loop
      vertex 10.411 -12.879 -12.77
      vertex 2.495 -12.879 -1.15
      vertex -13.414 -12.879 -12.77
    endloop
  endfacet
  facet normal 0 -1 -0
    outer loop
      vertex -3.06 -12.879 1.6
      vertex -13.414 -12.879 -12.77
      vertex 2.495 -12.879 -1.15
    endloop
  endfacet
  facet normal 0 -1 0
    outer loop
      vertex -13.414 -12.879 -12.77
      vertex -12.06 -12.879 1.6
      vertex -13.414 -12.879 6.76
    endloop
  endfacet
  facet normal 0 -1 0
    outer loop
      vertex -13.414 -12.879 6.76
      vertex -3.06 -12.879 4.78
      vertex 10.411 -12.879 6.76
    endloop
  endfacet
  facet normal 0 -1 0
    outer loop
      vertex 2.495 -12.879 -0.45
      vertex -3.06 -12.879 4.78
      vertex -3.06 -12.879 1.6
    endloop
  endfacet
  facet normal 0 -1 0
    outer loop
      vertex -3.06 -12.879 4.78
      vertex 2.495 -12.879 -0.45
      vertex 10.411 -12.879 6.76
    endloop
  endfacet
  facet normal 0 -1 0
    outer loop
      vertex 8.495 -12.879 -0.45
      vertex 10.411 -12.879 6.76
      vertex 2.495 -12.879 -0.45
    endloop
  endfacet
  facet normal 0 -1 0
    outer loop
      vertex 8.495 -12.879 -1.15
      vertex 10.411 -12.879 6.76
      vertex 8.495 -12.879 -0.45
    endloop
  endfacet
  facet normal 0 -1 0
    outer loop
      vertex 8.495 -12.879 -1.15
      vertex 10.411 -12.879 -12.77
      vertex 10.411 -12.879 6.76
    endloop
  endfacet
  facet normal 0 -1 0
    outer loop
      vertex 2.495 -12.879 -1.15
      vertex 10.411 -12.879 -12.77
      vertex 8.495 -12.879 -1.15
    endloop
  endfacet
  facet normal -0.707107 -0.707107 0
    outer loop
      vertex -13.414 -12.879 -12.77
      vertex -14.614 -11.679 6.76
      vertex -14.614 -11.679 -12.77
    endloop
  endfacet
  facet normal -0.707107 -0.707107 0
    outer loop
      vertex -14.614 -11.679 6.76
      vertex -13.414 -12.879 -12.77
      vertex -13.414 -12.879 6.76
    endloop
  endfacet
  facet normal -0.707107 0.707107 0
    outer loop
      vertex -14.614 26.495 -12.77
      vertex -13.414 27.695 6.76
      vertex -13.414 27.695 -12.77
    endloop
  endfacet
  facet normal -0.707107 0.707107 0
    outer loop
      vertex -13.414 27.695 6.76
      vertex -14.614 26.495 -12.77
      vertex -14.614 26.495 6.76
    endloop
  endfacet
  facet normal 0.707107 -0.707107 0
    outer loop
      vertex 10.411 -12.879 6.76
      vertex 11.611 -11.679 -12.77
      vertex 11.611 -11.679 6.76
    endloop
  endfacet
  facet normal 0.707107 -0.707107 0
    outer loop
      vertex 11.611 -11.679 -12.77
      vertex 10.411 -12.879 6.76
      vertex 10.411 -12.879 -12.77
    endloop
  endfacet
  facet normal 0.707107 0.707107 0
    outer loop
      vertex 11.611 26.495 6.76
      vertex 10.411 27.695 -12.77
      vertex 10.411 27.695 6.76
    endloop
  endfacet
  facet normal 0.707107 0.707107 0
    outer loop
      vertex 10.411 27.695 -12.77
      vertex 11.611 26.495 6.76
      vertex 11.611 26.495 -12.77
    endloop
  endfacet
  facet normal 1 -0 0
    outer loop
      vertex -12.614 -10.879 -0.0499992
      vertex -12.614 4.7 -11.57
      vertex -12.614 4.7 -0.0499992
    endloop
  endfacet
  facet normal 1 0 0
    outer loop
      vertex -12.614 4.7 -11.57
      vertex -12.614 -10.879 -0.0499992
      vertex -12.614 -10.879 -11.57
    endloop
  endfacet
  facet normal 1 -0 0
    outer loop
      vertex -12.614 7.5 -0.0499992
      vertex -12.614 25.695 -11.57
      vertex -12.614 25.695 -0.0499992
    endloop
  endfacet
  facet normal 1 0 0
    outer loop
      vertex -12.614 25.695 -11.57
      vertex -12.614 7.5 -0.0499992
      vertex -12.614 7.5 -11.57
    endloop
  endfacet
  facet normal 0 0 -1
    outer loop
      vertex 10.411 -2.3 0.0499992
      vertex 10.911 0.5 0.0499992
      vertex 10.911 -2.3 0.0499992
    endloop
  endfacet
  facet normal -0 0 -1
    outer loop
      vertex 10.911 0.5 0.0499992
      vertex 10.411 -2.3 0.0499992
      vertex 10.411 0.5 0.0499992
    endloop
  endfacet
  facet normal -1 0 0
    outer loop
      vertex 9.611 24.7 -11.57
      vertex 9.611 25.695 -0.0499992
      vertex 9.611 25.695 -11.57
    endloop
  endfacet
  facet normal -1 -0 0
    outer loop
      vertex 9.611 25.695 -0.0499992
      vertex 9.611 24.7 -11.57
      vertex 9.611 24.7 -0.0499992
    endloop
  endfacet
  facet normal -1 0 0
    outer loop
      vertex 9.611 -10.879 -11.57
      vertex 9.611 -2.3 -0.0499992
      vertex 9.611 -2.3 -11.57
    endloop
  endfacet
  facet normal -1 -0 0
    outer loop
      vertex 9.611 -2.3 -0.0499992
      vertex 9.611 -10.879 -11.57
      vertex 9.611 -10.879 -0.0499992
    endloop
  endfacet
  facet normal -1 0 0
    outer loop
      vertex 9.611 0.5 -11.57
      vertex 9.611 21.9 -0.0499992
      vertex 9.611 21.9 -11.57
    endloop
  endfacet
  facet normal -1 -0 0
    outer loop
      vertex 9.611 21.9 -0.0499992
      vertex 9.611 0.5 -11.57
      vertex 9.611 0.5 -0.0499992
    endloop
  endfacet
  facet normal 0 -1 0
    outer loop
      vertex -12.614 25.695 -0.0499992
      vertex 2.495 25.695 -0.45
      vertex 9.611 25.695 -0.0499992
    endloop
  endfacet
  facet normal 0 -1 0
    outer loop
      vertex -12.614 25.695 -0.0499992
      vertex 2.495 25.695 -1.15
      vertex 2.495 25.695 -0.45
    endloop
  endfacet
  facet normal 0 -1 0
    outer loop
      vertex 9.611 25.695 -11.57
      vertex 2.495 25.695 -1.15
      vertex -12.614 25.695 -11.57
    endloop
  endfacet
  facet normal 0 -1 0
    outer loop
      vertex -12.614 25.695 -11.57
      vertex 2.495 25.695 -1.15
      vertex -12.614 25.695 -0.0499992
    endloop
  endfacet
  facet normal 0 -1 0
    outer loop
      vertex 8.495 25.695 -0.45
      vertex 9.611 25.695 -0.0499992
      vertex 2.495 25.695 -0.45
    endloop
  endfacet
  facet normal 0 -1 0
    outer loop
      vertex 8.495 25.695 -1.15
      vertex 9.611 25.695 -0.0499992
      vertex 8.495 25.695 -0.45
    endloop
  endfacet
  facet normal 0 -1 0
    outer loop
      vertex 8.495 25.695 -1.15
      vertex 9.611 25.695 -11.57
      vertex 9.611 25.695 -0.0499992
    endloop
  endfacet
  facet normal 0 -1 0
    outer loop
      vertex 2.495 25.695 -1.15
      vertex 9.611 25.695 -11.57
      vertex 8.495 25.695 -1.15
    endloop
  endfacet
  facet normal -0 0 1
    outer loop
      vertex -13.114 7.5 -11.57
      vertex -12.614 4.7 -11.57
      vertex -12.614 7.5 -11.57
    endloop
  endfacet
  facet normal 0 0 1
    outer loop
      vertex -12.614 4.7 -11.57
      vertex -13.114 7.5 -11.57
      vertex -13.114 4.7 -11.57
    endloop
  endfacet
  facet normal -0 0 1
    outer loop
      vertex -12.614 25.695 -11.57
      vertex 9.611 24.7 -11.57
      vertex 9.611 25.695 -11.57
    endloop
  endfacet
  facet normal 0 0 1
    outer loop
      vertex 9.611 24.7 -11.57
      vertex -12.614 25.695 -11.57
      vertex 9.611 21.9 -11.57
    endloop
  endfacet
  facet normal 0 0 1
    outer loop
      vertex 9.611 21.9 -11.57
      vertex -12.614 7.5 -11.57
      vertex 9.611 0.5 -11.57
    endloop
  endfacet
  facet normal -0 0 1
    outer loop
      vertex -12.614 4.7 -11.57
      vertex 9.611 0.5 -11.57
      vertex -12.614 7.5 -11.57
    endloop
  endfacet
  facet normal 0 0 1
    outer loop
      vertex 9.611 21.9 -11.57
      vertex -12.614 25.695 -11.57
      vertex -12.614 7.5 -11.57
    endloop
  endfacet
  facet normal 0 0 1
    outer loop
      vertex 9.611 0.5 -11.57
      vertex -12.614 4.7 -11.57
      vertex 9.611 -2.3 -11.57
    endloop
  endfacet
  facet normal 0 0 1
    outer loop
      vertex -12.614 -10.879 -11.57
      vertex 9.611 -2.3 -11.57
      vertex -12.614 4.7 -11.57
    endloop
  endfacet
  facet normal 0 0 1
    outer loop
      vertex 9.611 -2.3 -11.57
      vertex -12.614 -10.879 -11.57
      vertex 9.611 -10.879 -11.57
    endloop
  endfacet
  facet normal -0 0 1
    outer loop
      vertex 9.611 24.7 -11.57
      vertex 10.911 21.9 -11.57
      vertex 10.911 24.7 -11.57
    endloop
  endfacet
  facet normal 0 0 1
    outer loop
      vertex 10.911 21.9 -11.57
      vertex 9.611 24.7 -11.57
      vertex 9.611 21.9 -11.57
    endloop
  endfacet
  facet normal -0 0 1
    outer loop
      vertex 9.611 0.5 -11.57
      vertex 10.911 -2.3 -11.57
      vertex 10.911 0.5 -11.57
    endloop
  endfacet
  facet normal 0 0 1
    outer loop
      vertex 10.911 -2.3 -11.57
      vertex 9.611 0.5 -11.57
      vertex 9.611 -2.3 -11.57
    endloop
  endfacet
  facet normal 0 1 0
    outer loop
      vertex 2.495 -10.879 -0.45
      vertex 9.611 -10.879 -0.0499992
      vertex 8.495 -10.879 -0.45
    endloop
  endfacet
  facet normal 0 1 0
    outer loop
      vertex 9.611 -10.879 -0.0499992
      vertex 8.495 -10.879 -1.15
      vertex 8.495 -10.879 -0.45
    endloop
  endfacet
  facet normal 0 1 0
    outer loop
      vertex 8.495 -10.879 -1.15
      vertex 9.611 -10.879 -11.57
      vertex 2.495 -10.879 -1.15
    endloop
  endfacet
  facet normal 0 1 -0
    outer loop
      vertex 9.611 -10.879 -11.57
      vertex 8.495 -10.879 -1.15
      vertex 9.611 -10.879 -0.0499992
    endloop
  endfacet
  facet normal 0 1 0
    outer loop
      vertex 9.611 -10.879 -0.0499992
      vertex 2.495 -10.879 -0.45
      vertex -12.614 -10.879 -0.0499992
    endloop
  endfacet
  facet normal 0 1 -0
    outer loop
      vertex 2.495 -10.879 -1.15
      vertex -12.614 -10.879 -0.0499992
      vertex 2.495 -10.879 -0.45
    endloop
  endfacet
  facet normal 0 1 0
    outer loop
      vertex -12.614 -10.879 -11.57
      vertex 2.495 -10.879 -1.15
      vertex 9.611 -10.879 -11.57
    endloop
  endfacet
  facet normal 0 1 0
    outer loop
      vertex 2.495 -10.879 -1.15
      vertex -12.614 -10.879 -11.57
      vertex -12.614 -10.879 -0.0499992
    endloop
  endfacet
  facet normal 1 -0 0
    outer loop
      vertex -13.414 -11.679 5.91
      vertex -13.414 26.495 -0.0499992
      vertex -13.414 26.495 5.91
    endloop
  endfacet
  facet normal 1 0 0
    outer loop
      vertex -13.414 26.495 -0.0499992
      vertex -13.414 -11.679 5.91
      vertex -13.414 -11.679 -0.0499992
    endloop
  endfacet
  facet normal 1 -0 0
    outer loop
      vertex -13.414 -11.679 6.76
      vertex -13.414 26.495 6.51
      vertex -13.414 26.495 6.76
    endloop
  endfacet
  facet normal 1 0 0
    outer loop
      vertex -13.414 26.495 6.51
      vertex -13.414 -11.679 6.76
      vertex -13.414 -11.679 6.51
    endloop
  endfacet
  facet normal -1 0 0
    outer loop
      vertex 10.411 -2.3 -0.0499992
      vertex 10.411 -11.679 -0.0499992
      vertex 10.411 -2.3 0.0499992
    endloop
  endfacet
  facet normal -1 0 0
    outer loop
      vertex 10.411 21.9 -0.0499992
      vertex 10.411 0.5 -0.0499992
      vertex 10.411 21.9 0.0499992
    endloop
  endfacet
  facet normal -1 0 0
    outer loop
      vertex 10.411 24.7 0.0499992
      vertex 10.411 26.495 -0.0499992
      vertex 10.411 24.7 -0.0499992
    endloop
  endfacet
  facet normal -1 0 0
    outer loop
      vertex 10.411 26.495 -0.0499992
      vertex 10.411 24.7 0.0499992
      vertex 10.411 26.495 5.91
    endloop
  endfacet
  facet normal -1 0 0
    outer loop
      vertex 10.411 21.9 0.0499992
      vertex 10.411 26.495 5.91
      vertex 10.411 24.7 0.0499992
    endloop
  endfacet
  facet normal -1 0 0
    outer loop
      vertex 10.411 0.5 0.0499992
      vertex 10.411 21.9 0.0499992
      vertex 10.411 0.5 -0.0499992
    endloop
  endfacet
  facet normal -1 0 0
    outer loop
      vertex 10.411 21.9 0.0499992
      vertex 10.411 0.5 0.0499992
      vertex 10.411 26.495 5.91
    endloop
  endfacet
  facet normal -1 0 0
    outer loop
      vertex 10.411 -11.679 5.91
      vertex 10.411 0.5 0.0499992
      vertex 10.411 -2.3 0.0499992
    endloop
  endfacet
  facet normal -1 0 0
    outer loop
      vertex 10.411 -11.679 5.91
      vertex 10.411 -2.3 0.0499992
      vertex 10.411 -11.679 -0.0499992
    endloop
  endfacet
  facet normal -1 0 0
    outer loop
      vertex 10.411 0.5 0.0499992
      vertex 10.411 -11.679 5.91
      vertex 10.411 26.495 5.91
    endloop
  endfacet
  facet normal -1 0 0
    outer loop
      vertex 10.411 -11.679 6.51
      vertex 10.411 26.495 6.76
      vertex 10.411 26.495 6.51
    endloop
  endfacet
  facet normal -1 -0 0
    outer loop
      vertex 10.411 26.495 6.76
      vertex 10.411 -11.679 6.51
      vertex 10.411 -11.679 6.76
    endloop
  endfacet
  facet normal 0 -1 0
    outer loop
      vertex -13.014 26.495 6.51
      vertex -13.414 26.495 6.76
      vertex -13.414 26.495 6.51
    endloop
  endfacet
  facet normal 0 -1 0
    outer loop
      vertex -13.414 26.495 6.76
      vertex -13.014 26.495 6.51
      vertex 10.411 26.495 6.76
    endloop
  endfacet
  facet normal 0 -1 0
    outer loop
      vertex 10.011 26.495 6.51
      vertex 10.411 26.495 6.76
      vertex -13.014 26.495 6.51
    endloop
  endfacet
  facet normal 0 -1 0
    outer loop
      vertex 10.011 26.495 6.51
      vertex 10.411 26.495 6.51
      vertex 10.411 26.495 6.76
    endloop
  endfacet
  facet normal 0 -1 0
    outer loop
      vertex 10.411 26.495 5.91
      vertex 10.411 26.495 6.51
      vertex 10.011 26.495 6.51
    endloop
  endfacet
  facet normal 0 -1 0
    outer loop
      vertex 10.411 26.495 5.91
      vertex 10.011 26.495 6.51
      vertex 10.011 26.495 5.91
    endloop
  endfacet
  facet normal 0 -1 0
    outer loop
      vertex 10.411 26.495 6.51
      vertex 10.411 26.495 5.91
      vertex 10.711 26.495 6.51
    endloop
  endfacet
  facet normal 0 -1 -0
    outer loop
      vertex 10.711 26.495 6.51
      vertex 10.411 26.495 5.91
      vertex 10.711 26.495 5.91
    endloop
  endfacet
  facet normal 0 -1 0
    outer loop
      vertex -13.414 26.495 5.91
      vertex -13.414 26.495 6.51
      vertex -13.714 26.495 6.51
    endloop
  endfacet
  facet normal 0 -1 0
    outer loop
      vertex -13.414 26.495 5.91
      vertex -13.714 26.495 6.51
      vertex -13.714 26.495 5.91
    endloop
  endfacet
  facet normal 0 -1 0
    outer loop
      vertex -13.414 26.495 6.51
      vertex -13.414 26.495 5.91
      vertex -13.014 26.495 6.51
    endloop
  endfacet
  facet normal 0 -1 0
    outer loop
      vertex -13.414 26.495 5.91
      vertex -13.014 26.495 5.91
      vertex -13.014 26.495 6.51
    endloop
  endfacet
  facet normal 0 -1 0
    outer loop
      vertex -13.414 26.495 -0.0499992
      vertex -13.014 26.495 5.91
      vertex -13.414 26.495 5.91
    endloop
  endfacet
  facet normal 0 -1 -0
    outer loop
      vertex -13.014 26.495 5.91
      vertex -13.414 26.495 -0.0499992
      vertex 10.011 26.495 5.91
    endloop
  endfacet
  facet normal 0 -1 0
    outer loop
      vertex 10.411 26.495 -0.0499992
      vertex 10.011 26.495 5.91
      vertex -13.414 26.495 -0.0499992
    endloop
  endfacet
  facet normal 0 -1 0
    outer loop
      vertex 10.011 26.495 5.91
      vertex 10.411 26.495 -0.0499992
      vertex 10.411 26.495 5.91
    endloop
  endfacet
  facet normal 0 0 1
    outer loop
      vertex 10.411 26.495 -0.0499992
      vertex 9.611 25.695 -0.0499992
      vertex 10.411 24.7 -0.0499992
    endloop
  endfacet
  facet normal 0 0 1
    outer loop
      vertex 10.411 26.495 -0.0499992
      vertex -12.614 25.695 -0.0499992
      vertex 9.611 25.695 -0.0499992
    endloop
  endfacet
  facet normal 0 0 1
    outer loop
      vertex -12.614 25.695 -0.0499992
      vertex -13.114 7.5 -0.0499992
      vertex -12.614 7.5 -0.0499992
    endloop
  endfacet
  facet normal 0 0 1
    outer loop
      vertex -13.114 7.5 -0.0499992
      vertex -13.414 26.495 -0.0499992
      vertex -13.114 4.7 -0.0499992
    endloop
  endfacet
  facet normal 0 0 1
    outer loop
      vertex -12.614 25.695 -0.0499992
      vertex -13.414 26.495 -0.0499992
      vertex -13.114 7.5 -0.0499992
    endloop
  endfacet
  facet normal -0 0 1
    outer loop
      vertex -13.414 26.495 -0.0499992
      vertex -12.614 25.695 -0.0499992
      vertex 10.411 26.495 -0.0499992
    endloop
  endfacet
  facet normal 0 0 1
    outer loop
      vertex 10.411 24.7 -0.0499992
      vertex 9.611 25.695 -0.0499992
      vertex 9.611 24.7 -0.0499992
    endloop
  endfacet
  facet normal 0 0 1
    outer loop
      vertex -12.614 4.7 -0.0499992
      vertex -13.114 4.7 -0.0499992
      vertex -12.614 -10.879 -0.0499992
    endloop
  endfacet
  facet normal 0 0 1
    outer loop
      vertex 9.611 -10.879 -0.0499992
      vertex 10.411 -2.3 -0.0499992
      vertex 9.611 -2.3 -0.0499992
    endloop
  endfacet
  facet normal 0 0 1
    outer loop
      vertex 10.411 -2.3 -0.0499992
      vertex 9.611 -10.879 -0.0499992
      vertex 10.411 -11.679 -0.0499992
    endloop
  endfacet
  facet normal -0 0 1
    outer loop
      vertex -12.614 -10.879 -0.0499992
      vertex 10.411 -11.679 -0.0499992
      vertex 9.611 -10.879 -0.0499992
    endloop
  endfacet
  facet normal 0 0 1
    outer loop
      vertex -12.614 -10.879 -0.0499992
      vertex -13.414 -11.679 -0.0499992
      vertex 10.411 -11.679 -0.0499992
    endloop
  endfacet
  facet normal 0 0 1
    outer loop
      vertex -13.114 4.7 -0.0499992
      vertex -13.414 -11.679 -0.0499992
      vertex -12.614 -10.879 -0.0499992
    endloop
  endfacet
  facet normal 0 0 1
    outer loop
      vertex -13.414 -11.679 -0.0499992
      vertex -13.114 4.7 -0.0499992
      vertex -13.414 26.495 -0.0499992
    endloop
  endfacet
  facet normal -0 0 1
    outer loop
      vertex 9.611 21.9 -0.0499992
      vertex 10.411 0.5 -0.0499992
      vertex 10.411 21.9 -0.0499992
    endloop
  endfacet
  facet normal 0 0 1
    outer loop
      vertex 10.411 0.5 -0.0499992
      vertex 9.611 21.9 -0.0499992
      vertex 9.611 0.5 -0.0499992
    endloop
  endfacet
  facet normal 0 1 0
    outer loop
      vertex 10.011 -11.679 6.51
      vertex 10.411 -11.679 6.76
      vertex 10.411 -11.679 6.51
    endloop
  endfacet
  facet normal 0 1 0
    outer loop
      vertex 10.411 -11.679 6.76
      vertex 10.011 -11.679 6.51
      vertex -13.414 -11.679 6.76
    endloop
  endfacet
  facet normal 0 1 -0
    outer loop
      vertex -13.014 -11.679 6.51
      vertex -13.414 -11.679 6.76
      vertex 10.011 -11.679 6.51
    endloop
  endfacet
  facet normal 0 1 0
    outer loop
      vertex -13.014 -11.679 6.51
      vertex -13.414 -11.679 6.51
      vertex -13.414 -11.679 6.76
    endloop
  endfacet
  facet normal 0 1 0
    outer loop
      vertex -13.414 -11.679 5.91
      vertex -13.414 -11.679 6.51
      vertex -13.014 -11.679 6.51
    endloop
  endfacet
  facet normal 0 1 0
    outer loop
      vertex -13.414 -11.679 5.91
      vertex -13.014 -11.679 6.51
      vertex -13.014 -11.679 5.91
    endloop
  endfacet
  facet normal 0 1 0
    outer loop
      vertex -13.414 -11.679 6.51
      vertex -13.414 -11.679 5.91
      vertex -13.714 -11.679 6.51
    endloop
  endfacet
  facet normal 0 1 0
    outer loop
      vertex -13.714 -11.679 6.51
      vertex -13.414 -11.679 5.91
      vertex -13.714 -11.679 5.91
    endloop
  endfacet
  facet normal 0 1 0
    outer loop
      vertex 10.411 -11.679 5.91
      vertex 10.411 -11.679 6.51
      vertex 10.711 -11.679 6.51
    endloop
  endfacet
  facet normal 0 1 0
    outer loop
      vertex 10.411 -11.679 5.91
      vertex 10.711 -11.679 6.51
      vertex 10.711 -11.679 5.91
    endloop
  endfacet
  facet normal 0 1 0
    outer loop
      vertex 10.411 -11.679 6.51
      vertex 10.411 -11.679 5.91
      vertex 10.011 -11.679 6.51
    endloop
  endfacet
  facet normal 0 1 0
    outer loop
      vertex 10.411 -11.679 5.91
      vertex 10.011 -11.679 5.91
      vertex 10.011 -11.679 6.51
    endloop
  endfacet
  facet normal 0 1 -0
    outer loop
      vertex 10.411 -11.679 -0.0499992
      vertex 10.011 -11.679 5.91
      vertex 10.411 -11.679 5.91
    endloop
  endfacet
  facet normal 0 1 0
    outer loop
      vertex 10.011 -11.679 5.91
      vertex -3.06 -11.679 4.78
      vertex -13.014 -11.679 5.91
    endloop
  endfacet
  facet normal 0 1 -0
    outer loop
      vertex -12.06 -11.679 4.78
      vertex -13.014 -11.679 5.91
      vertex -3.06 -11.679 4.78
    endloop
  endfacet
  facet normal 0 1 0
    outer loop
      vertex 10.011 -11.679 5.91
      vertex -3.06 -11.679 1.6
      vertex -3.06 -11.679 4.78
    endloop
  endfacet
  facet normal 0 1 0
    outer loop
      vertex -13.414 -11.679 -0.0499992
      vertex -3.06 -11.679 1.6
      vertex 10.411 -11.679 -0.0499992
    endloop
  endfacet
  facet normal 0 1 0
    outer loop
      vertex 10.011 -11.679 5.91
      vertex 10.411 -11.679 -0.0499992
      vertex -3.06 -11.679 1.6
    endloop
  endfacet
  facet normal 0 1 0
    outer loop
      vertex -13.014 -11.679 5.91
      vertex -12.06 -11.679 4.78
      vertex -13.414 -11.679 5.91
    endloop
  endfacet
  facet normal 0 1 -0
    outer loop
      vertex -12.06 -11.679 1.6
      vertex -13.414 -11.679 5.91
      vertex -12.06 -11.679 4.78
    endloop
  endfacet
  facet normal 0 1 0
    outer loop
      vertex -12.06 -11.679 1.6
      vertex -13.414 -11.679 -0.0499992
      vertex -13.414 -11.679 5.91
    endloop
  endfacet
  facet normal 0 1 0
    outer loop
      vertex -3.06 -11.679 1.6
      vertex -13.414 -11.679 -0.0499992
      vertex -12.06 -11.679 1.6
    endloop
  endfacet
  facet normal 1 -0 0
    outer loop
      vertex -12.06 -12.879 4.78
      vertex -12.06 -11.679 1.6
      vertex -12.06 -11.679 4.78
    endloop
  endfacet
  facet normal 1 0 0
    outer loop
      vertex -12.06 -11.679 1.6
      vertex -12.06 -12.879 4.78
      vertex -12.06 -12.879 1.6
    endloop
  endfacet
  facet normal 0 0 -1
    outer loop
      vertex -12.06 -12.879 4.78
      vertex -3.06 -11.679 4.78
      vertex -3.06 -12.879 4.78
    endloop
  endfacet
  facet normal -0 0 -1
    outer loop
      vertex -3.06 -11.679 4.78
      vertex -12.06 -12.879 4.78
      vertex -12.06 -11.679 4.78
    endloop
  endfacet
  facet normal -1 0 0
    outer loop
      vertex -3.06 -12.879 1.6
      vertex -3.06 -11.679 4.78
      vertex -3.06 -11.679 1.6
    endloop
  endfacet
  facet normal -1 -0 0
    outer loop
      vertex -3.06 -11.679 4.78
      vertex -3.06 -12.879 1.6
      vertex -3.06 -12.879 4.78
    endloop
  endfacet
  facet normal -0 0 1
    outer loop
      vertex -12.06 -11.679 1.6
      vertex -3.06 -12.879 1.6
      vertex -3.06 -11.679 1.6
    endloop
  endfacet
  facet normal 0 0 1
    outer loop
      vertex -3.06 -12.879 1.6
      vertex -12.06 -11.679 1.6
      vertex -12.06 -12.879 1.6
    endloop
  endfacet
  facet normal 1 -0 0
    outer loop
      vertex 2.495 25.695 -0.45
      vertex 2.495 27.695 -1.15
      vertex 2.495 27.695 -0.45
    endloop
  endfacet
  facet normal 1 0 0
    outer loop
      vertex 2.495 27.695 -1.15
      vertex 2.495 25.695 -0.45
      vertex 2.495 25.695 -1.15
    endloop
  endfacet
  facet normal 0 0 -1
    outer loop
      vertex 2.495 25.695 -0.45
      vertex 8.495 27.695 -0.45
      vertex 8.495 25.695 -0.45
    endloop
  endfacet
  facet normal -0 0 -1
    outer loop
      vertex 8.495 27.695 -0.45
      vertex 2.495 25.695 -0.45
      vertex 2.495 27.695 -0.45
    endloop
  endfacet
  facet normal -1 0 0
    outer loop
      vertex 8.495 25.695 -1.15
      vertex 8.495 27.695 -0.45
      vertex 8.495 27.695 -1.15
    endloop
  endfacet
  facet normal -1 -0 0
    outer loop
      vertex 8.495 27.695 -0.45
      vertex 8.495 25.695 -1.15
      vertex 8.495 25.695 -0.45
    endloop
  endfacet
  facet normal -0 0 1
    outer loop
      vertex 2.495 27.695 -1.15
      vertex 8.495 25.695 -1.15
      vertex 8.495 27.695 -1.15
    endloop
  endfacet
  facet normal 0 0 1
    outer loop
      vertex 8.495 25.695 -1.15
      vertex 2.495 27.695 -1.15
      vertex 2.495 25.695 -1.15
    endloop
  endfacet
  facet normal 1 -0 0
    outer loop
      vertex 2.495 -12.879 -0.45
      vertex 2.495 -10.879 -1.15
      vertex 2.495 -10.879 -0.45
    endloop
  endfacet
  facet normal 1 0 0
    outer loop
      vertex 2.495 -10.879 -1.15
      vertex 2.495 -12.879 -0.45
      vertex 2.495 -12.879 -1.15
    endloop
  endfacet
  facet normal 0 0 -1
    outer loop
      vertex 2.495 -12.879 -0.45
      vertex 8.495 -10.879 -0.45
      vertex 8.495 -12.879 -0.45
    endloop
  endfacet
  facet normal -0 0 -1
    outer loop
      vertex 8.495 -10.879 -0.45
      vertex 2.495 -12.879 -0.45
      vertex 2.495 -10.879 -0.45
    endloop
  endfacet
  facet normal -1 0 0
    outer loop
      vertex 8.495 -12.879 -1.15
      vertex 8.495 -10.879 -0.45
      vertex 8.495 -10.879 -1.15
    endloop
  endfacet
  facet normal -1 -0 0
    outer loop
      vertex 8.495 -10.879 -0.45
      vertex 8.495 -12.879 -1.15
      vertex 8.495 -12.879 -0.45
    endloop
  endfacet
  facet normal -0 0 1
    outer loop
      vertex 2.495 -10.879 -1.15
      vertex 8.495 -12.879 -1.15
      vertex 8.495 -10.879 -1.15
    endloop
  endfacet
  facet normal 0 0 1
    outer loop
      vertex 8.495 -12.879 -1.15
      vertex 2.495 -10.879 -1.15
      vertex 2.495 -12.879 -1.15
    endloop
  endfacet
  facet normal 0 0 -1
    outer loop
      vertex 10.411 21.9 0.0499992
      vertex 10.911 24.7 0.0499992
      vertex 10.911 21.9 0.0499992
    endloop
  endfacet
  facet normal -0 0 -1
    outer loop
      vertex 10.911 24.7 0.0499992
      vertex 10.411 21.9 0.0499992
      vertex 10.411 24.7 0.0499992
    endloop
  endfacet
  facet normal -1 0 0
    outer loop
      vertex 10.911 21.9 -11.57
      vertex 10.911 24.7 0.0499992
      vertex 10.911 24.7 -11.57
    endloop
  endfacet
  facet normal -1 -0 0
    outer loop
      vertex 10.911 24.7 0.0499992
      vertex 10.911 21.9 -11.57
      vertex 10.911 21.9 0.0499992
    endloop
  endfacet
  facet normal 0 -1 0
    outer loop
      vertex 9.611 24.7 -0.0499992
      vertex 9.611 24.7 -11.57
      vertex 10.411 24.7 -0.0499992
    endloop
  endfacet
  facet normal 0 -1 0
    outer loop
      vertex 10.411 24.7 -0.0499992
      vertex 10.911 24.7 0.0499992
      vertex 10.411 24.7 0.0499992
    endloop
  endfacet
  facet normal 0 -1 0
    outer loop
      vertex 10.911 24.7 -11.57
      vertex 10.411 24.7 -0.0499992
      vertex 9.611 24.7 -11.57
    endloop
  endfacet
  facet normal 0 -1 0
    outer loop
      vertex 10.411 24.7 -0.0499992
      vertex 10.911 24.7 -11.57
      vertex 10.911 24.7 0.0499992
    endloop
  endfacet
  facet normal 0 1 0
    outer loop
      vertex 10.911 21.9 0.0499992
      vertex 10.411 21.9 -0.0499992
      vertex 10.411 21.9 0.0499992
    endloop
  endfacet
  facet normal 0 1 -0
    outer loop
      vertex 10.911 21.9 -11.57
      vertex 10.411 21.9 -0.0499992
      vertex 10.911 21.9 0.0499992
    endloop
  endfacet
  facet normal 0 1 0
    outer loop
      vertex 9.611 21.9 -11.57
      vertex 10.411 21.9 -0.0499992
      vertex 10.911 21.9 -11.57
    endloop
  endfacet
  facet normal 0 1 0
    outer loop
      vertex 10.411 21.9 -0.0499992
      vertex 9.611 21.9 -11.57
      vertex 9.611 21.9 -0.0499992
    endloop
  endfacet
  facet normal -1 0 0
    outer loop
      vertex 10.911 -2.3 -11.57
      vertex 10.911 0.5 0.0499992
      vertex 10.911 0.5 -11.57
    endloop
  endfacet
  facet normal -1 -0 0
    outer loop
      vertex 10.911 0.5 0.0499992
      vertex 10.911 -2.3 -11.57
      vertex 10.911 -2.3 0.0499992
    endloop
  endfacet
  facet normal 0 1 0
    outer loop
      vertex 10.911 -2.3 0.0499992
      vertex 10.411 -2.3 -0.0499992
      vertex 10.411 -2.3 0.0499992
    endloop
  endfacet
  facet normal 0 1 -0
    outer loop
      vertex 10.911 -2.3 -11.57
      vertex 10.411 -2.3 -0.0499992
      vertex 10.911 -2.3 0.0499992
    endloop
  endfacet
  facet normal 0 1 0
    outer loop
      vertex 9.611 -2.3 -11.57
      vertex 10.411 -2.3 -0.0499992
      vertex 10.911 -2.3 -11.57
    endloop
  endfacet
  facet normal 0 1 0
    outer loop
      vertex 10.411 -2.3 -0.0499992
      vertex 9.611 -2.3 -11.57
      vertex 9.611 -2.3 -0.0499992
    endloop
  endfacet
  facet normal 0 -1 0
    outer loop
      vertex 9.611 0.5 -0.0499992
      vertex 9.611 0.5 -11.57
      vertex 10.411 0.5 -0.0499992
    endloop
  endfacet
  facet normal 0 -1 0
    outer loop
      vertex 10.411 0.5 -0.0499992
      vertex 10.911 0.5 0.0499992
      vertex 10.411 0.5 0.0499992
    endloop
  endfacet
  facet normal 0 -1 0
    outer loop
      vertex 10.911 0.5 -11.57
      vertex 10.411 0.5 -0.0499992
      vertex 9.611 0.5 -11.57
    endloop
  endfacet
  facet normal 0 -1 0
    outer loop
      vertex 10.411 0.5 -0.0499992
      vertex 10.911 0.5 -11.57
      vertex 10.911 0.5 0.0499992
    endloop
  endfacet
  facet normal 1 -0 0
    outer loop
      vertex -13.114 4.7 -0.0499992
      vertex -13.114 7.5 -11.57
      vertex -13.114 7.5 -0.0499992
    endloop
  endfacet
  facet normal 1 0 0
    outer loop
      vertex -13.114 7.5 -11.57
      vertex -13.114 4.7 -0.0499992
      vertex -13.114 4.7 -11.57
    endloop
  endfacet
  facet normal 0 -1 0
    outer loop
      vertex -13.114 7.5 -11.57
      vertex -12.614 7.5 -0.0499992
      vertex -13.114 7.5 -0.0499992
    endloop
  endfacet
  facet normal 0 -1 -0
    outer loop
      vertex -12.614 7.5 -0.0499992
      vertex -13.114 7.5 -11.57
      vertex -12.614 7.5 -11.57
    endloop
  endfacet
  facet normal 0 1 -0
    outer loop
      vertex -12.614 4.7 -11.57
      vertex -13.114 4.7 -0.0499992
      vertex -12.614 4.7 -0.0499992
    endloop
  endfacet
  facet normal 0 1 0
    outer loop
      vertex -13.114 4.7 -0.0499992
      vertex -12.614 4.7 -11.57
      vertex -13.114 4.7 -11.57
    endloop
  endfacet
  facet normal 1 -0 0
    outer loop
      vertex -13.714 -11.679 6.51
      vertex -13.714 26.495 5.91
      vertex -13.714 26.495 6.51
    endloop
  endfacet
  facet normal 1 0 0
    outer loop
      vertex -13.714 26.495 5.91
      vertex -13.714 -11.679 6.51
      vertex -13.714 -11.679 5.91
    endloop
  endfacet
  facet normal 0 0 -1
    outer loop
      vertex -13.714 -11.679 6.51
      vertex -13.414 26.495 6.51
      vertex -13.414 -11.679 6.51
    endloop
  endfacet
  facet normal -0 0 -1
    outer loop
      vertex -13.414 26.495 6.51
      vertex -13.714 -11.679 6.51
      vertex -13.714 26.495 6.51
    endloop
  endfacet
  facet normal -0 0 1
    outer loop
      vertex -13.714 26.495 5.91
      vertex -13.414 -11.679 5.91
      vertex -13.414 26.495 5.91
    endloop
  endfacet
  facet normal 0 0 1
    outer loop
      vertex -13.414 -11.679 5.91
      vertex -13.714 26.495 5.91
      vertex -13.714 -11.679 5.91
    endloop
  endfacet
  facet normal 0 0 -1
    outer loop
      vertex 10.411 -11.679 6.51
      vertex 10.711 26.495 6.51
      vertex 10.711 -11.679 6.51
    endloop
  endfacet
  facet normal -0 0 -1
    outer loop
      vertex 10.711 26.495 6.51
      vertex 10.411 -11.679 6.51
      vertex 10.411 26.495 6.51
    endloop
  endfacet
  facet normal -1 0 0
    outer loop
      vertex 10.711 -11.679 5.91
      vertex 10.711 26.495 6.51
      vertex 10.711 26.495 5.91
    endloop
  endfacet
  facet normal -1 -0 0
    outer loop
      vertex 10.711 26.495 6.51
      vertex 10.711 -11.679 5.91
      vertex 10.711 -11.679 6.51
    endloop
  endfacet
  facet normal -0 0 1
    outer loop
      vertex 10.411 26.495 5.91
      vertex 10.711 -11.679 5.91
      vertex 10.711 26.495 5.91
    endloop
  endfacet
  facet normal 0 0 1
    outer loop
      vertex 10.711 -11.679 5.91
      vertex 10.411 26.495 5.91
      vertex 10.411 -11.679 5.91
    endloop
  endfacet
  facet normal 1 -0 0
    outer loop
      vertex -13.014 26.495 6.51
      vertex -13.014 26.895 5.91
      vertex -13.014 26.895 6.51
    endloop
  endfacet
  facet normal 1 0 0
    outer loop
      vertex -13.014 26.895 5.91
      vertex -13.014 26.495 6.51
      vertex -13.014 26.495 5.91
    endloop
  endfacet
  facet normal 0 0 -1
    outer loop
      vertex -13.014 26.495 6.51
      vertex 10.011 26.895 6.51
      vertex 10.011 26.495 6.51
    endloop
  endfacet
  facet normal -0 0 -1
    outer loop
      vertex 10.011 26.895 6.51
      vertex -13.014 26.495 6.51
      vertex -13.014 26.895 6.51
    endloop
  endfacet
  facet normal -1 0 0
    outer loop
      vertex 10.011 26.495 5.91
      vertex 10.011 26.895 6.51
      vertex 10.011 26.895 5.91
    endloop
  endfacet
  facet normal -1 -0 0
    outer loop
      vertex 10.011 26.895 6.51
      vertex 10.011 26.495 5.91
      vertex 10.011 26.495 6.51
    endloop
  endfacet
  facet normal -0 0 1
    outer loop
      vertex -13.014 26.895 5.91
      vertex 10.011 26.495 5.91
      vertex 10.011 26.895 5.91
    endloop
  endfacet
  facet normal 0 0 1
    outer loop
      vertex 10.011 26.495 5.91
      vertex -13.014 26.895 5.91
      vertex -13.014 26.495 5.91
    endloop
  endfacet
  facet normal 0 -1 0
    outer loop
      vertex -13.014 26.895 5.91
      vertex 10.011 26.895 6.51
      vertex -13.014 26.895 6.51
    endloop
  endfacet
  facet normal 0 -1 -0
    outer loop
      vertex 10.011 26.895 6.51
      vertex -13.014 26.895 5.91
      vertex 10.011 26.895 5.91
    endloop
  endfacet
  facet normal 1 -0 0
    outer loop
      vertex -13.014 -12.079 6.51
      vertex -13.014 -11.679 5.91
      vertex -13.014 -11.679 6.51
    endloop
  endfacet
  facet normal 1 0 0
    outer loop
      vertex -13.014 -11.679 5.91
      vertex -13.014 -12.079 6.51
      vertex -13.014 -12.079 5.91
    endloop
  endfacet
  facet normal 0 0 -1
    outer loop
      vertex -13.014 -12.079 6.51
      vertex 10.011 -11.679 6.51
      vertex 10.011 -12.079 6.51
    endloop
  endfacet
  facet normal -0 0 -1
    outer loop
      vertex 10.011 -11.679 6.51
      vertex -13.014 -12.079 6.51
      vertex -13.014 -11.679 6.51
    endloop
  endfacet
  facet normal -1 0 0
    outer loop
      vertex 10.011 -12.079 5.91
      vertex 10.011 -11.679 6.51
      vertex 10.011 -11.679 5.91
    endloop
  endfacet
  facet normal -1 -0 0
    outer loop
      vertex 10.011 -11.679 6.51
      vertex 10.011 -12.079 5.91
      vertex 10.011 -12.079 6.51
    endloop
  endfacet
  facet normal -0 0 1
    outer loop
      vertex -13.014 -11.679 5.91
      vertex 10.011 -12.079 5.91
      vertex 10.011 -11.679 5.91
    endloop
  endfacet
  facet normal 0 0 1
    outer loop
      vertex 10.011 -12.079 5.91
      vertex -13.014 -11.679 5.91
      vertex -13.014 -12.079 5.91
    endloop
  endfacet
  facet normal 0 1 -0
    outer loop
      vertex 10.011 -12.079 5.91
      vertex -13.014 -12.079 6.51
      vertex 10.011 -12.079 6.51
    endloop
  endfacet
  facet normal 0 1 0
    outer loop
      vertex -13.014 -12.079 6.51
      vertex 10.011 -12.079 5.91
      vertex -13.014 -12.079 5.91
    endloop
  endfacet
endsolid OpenSCAD_Model
