solid OpenSCAD_Model
  facet normal 1 -0 0
    outer loop
      vertex -11.0015 -5.367 -15.07
      vertex -11.0015 20.183 -19.47
      vertex -11.0015 20.183 -15.07
    endloop
  endfacet
  facet normal 1 0 0
    outer loop
      vertex -11.0015 20.183 -19.47
      vertex -11.0015 -5.367 -15.07
      vertex -11.0015 -5.367 -19.47
    endloop
  endfacet
  facet normal -1 0 0
    outer loop
      vertex -11.0015 20.183 -20.07
      vertex -11.0015 20.383 -19.47
      vertex -11.0015 20.383 -20.07
    endloop
  endfacet
  facet normal -1 -0 0
    outer loop
      vertex -11.0015 20.383 -19.47
      vertex -11.0015 20.183 -20.07
      vertex -11.0015 20.183 -19.47
    endloop
  endfacet
  facet normal -1 0 0
    outer loop
      vertex -11.0015 -5.567 -20.07
      vertex -11.0015 -5.367 -19.47
      vertex -11.0015 -5.367 -20.07
    endloop
  endfacet
  facet normal -1 -0 0
    outer loop
      vertex -11.0015 -5.367 -19.47
      vertex -11.0015 -5.567 -20.07
      vertex -11.0015 -5.567 -19.47
    endloop
  endfacet
  facet normal 0 0 -1
    outer loop
      vertex 0.398509 20.183 -18.47
      vertex 0.9985 20.383 -18.47
      vertex 0.9985 20.183 -18.47
    endloop
  endfacet
  facet normal -0 0 -1
    outer loop
      vertex 0.9985 20.383 -18.47
      vertex 0.398509 20.183 -18.47
      vertex 0.398509 20.383 -18.47
    endloop
  endfacet
  facet normal 0 0 -1
    outer loop
      vertex 0.398509 -5.567 -18.47
      vertex 0.9985 -5.367 -18.47
      vertex 0.9985 -5.567 -18.47
    endloop
  endfacet
  facet normal -0 0 -1
    outer loop
      vertex 0.9985 -5.367 -18.47
      vertex 0.398509 -5.567 -18.47
      vertex 0.398509 -5.367 -18.47
    endloop
  endfacet
  facet normal -0 0 1
    outer loop
      vertex -3.40151 20.183 -18.47
      vertex 0.398509 -5.367 -18.47
      vertex 0.398509 20.183 -18.47
    endloop
  endfacet
  facet normal 0 0 1
    outer loop
      vertex 0.398509 -5.367 -18.47
      vertex -3.40151 20.183 -18.47
      vertex -3.40151 -5.367 -18.47
    endloop
  endfacet
  facet normal 0 0 -1
    outer loop
      vertex -4.0015 20.183 -18.47
      vertex -3.40151 20.383 -18.47
      vertex -3.40151 20.183 -18.47
    endloop
  endfacet
  facet normal -0 0 -1
    outer loop
      vertex -3.40151 20.383 -18.47
      vertex -4.0015 20.183 -18.47
      vertex -4.0015 20.383 -18.47
    endloop
  endfacet
  facet normal 0 0 -1
    outer loop
      vertex -4.0015 -5.567 -18.47
      vertex -3.40151 -5.367 -18.47
      vertex -3.40151 -5.567 -18.47
    endloop
  endfacet
  facet normal -0 0 -1
    outer loop
      vertex -3.40151 -5.367 -18.47
      vertex -4.0015 -5.567 -18.47
      vertex -4.0015 -5.367 -18.47
    endloop
  endfacet
  facet normal 1 -0 0
    outer loop
      vertex -4.0015 20.183 -18.47
      vertex -4.0015 20.383 -19.07
      vertex -4.0015 20.383 -18.47
    endloop
  endfacet
  facet normal 1 0 0
    outer loop
      vertex -4.0015 20.383 -19.07
      vertex -4.0015 20.183 -18.47
      vertex -4.0015 20.183 -19.07
    endloop
  endfacet
  facet normal 1 -0 0
    outer loop
      vertex -4.0015 -5.567 -18.47
      vertex -4.0015 -5.367 -19.07
      vertex -4.0015 -5.367 -18.47
    endloop
  endfacet
  facet normal 1 0 0
    outer loop
      vertex -4.0015 -5.367 -19.07
      vertex -4.0015 -5.567 -18.47
      vertex -4.0015 -5.567 -19.07
    endloop
  endfacet
  facet normal -1 0 0
    outer loop
      vertex -4.0015 -5.367 -20.07
      vertex -4.0015 20.183 -19.07
      vertex -4.0015 20.183 -20.07
    endloop
  endfacet
  facet normal -1 -0 0
    outer loop
      vertex -4.0015 20.183 -19.07
      vertex -4.0015 -5.367 -20.07
      vertex -4.0015 -5.367 -19.07
    endloop
  endfacet
  facet normal 0 1 0
    outer loop
      vertex 0.398509 -5.367 -18.47
      vertex 7.9985 -5.367 -15.07
      vertex 0.9985 -5.367 -18.47
    endloop
  endfacet
  facet normal 0 1 -0
    outer loop
      vertex 7.9985 -5.367 -19.47
      vertex 0.9985 -5.367 -18.47
      vertex 7.9985 -5.367 -15.07
    endloop
  endfacet
  facet normal 0 1 0
    outer loop
      vertex 0.9985 -5.367 -18.47
      vertex 7.9985 -5.367 -19.47
      vertex 0.9985 -5.367 -19.07
    endloop
  endfacet
  facet normal 0 1 0
    outer loop
      vertex 0.9985 -5.367 -20.07
      vertex 7.9985 -5.367 -19.47
      vertex 7.9985 -5.367 -20.07
    endloop
  endfacet
  facet normal 0 1 0
    outer loop
      vertex 7.9985 -5.367 -19.47
      vertex 0.9985 -5.367 -20.07
      vertex 0.9985 -5.367 -19.07
    endloop
  endfacet
  facet normal 0 1 0
    outer loop
      vertex 7.9985 -5.367 -15.07
      vertex 0.398509 -5.367 -18.47
      vertex -11.0015 -5.367 -15.07
    endloop
  endfacet
  facet normal 0 1 -0
    outer loop
      vertex -3.40151 -5.367 -18.47
      vertex -11.0015 -5.367 -15.07
      vertex 0.398509 -5.367 -18.47
    endloop
  endfacet
  facet normal 0 1 -0
    outer loop
      vertex -4.0015 -5.367 -18.47
      vertex -11.0015 -5.367 -15.07
      vertex -3.40151 -5.367 -18.47
    endloop
  endfacet
  facet normal 0 1 0
    outer loop
      vertex -11.0015 -5.367 -19.47
      vertex -4.0015 -5.367 -18.47
      vertex -4.0015 -5.367 -19.07
    endloop
  endfacet
  facet normal 0 1 0
    outer loop
      vertex -4.0015 -5.367 -18.47
      vertex -11.0015 -5.367 -19.47
      vertex -11.0015 -5.367 -15.07
    endloop
  endfacet
  facet normal 0 1 -0
    outer loop
      vertex -4.0015 -5.367 -20.07
      vertex -11.0015 -5.367 -19.47
      vertex -4.0015 -5.367 -19.07
    endloop
  endfacet
  facet normal 0 1 0
    outer loop
      vertex -11.0015 -5.367 -19.47
      vertex -4.0015 -5.367 -20.07
      vertex -11.0015 -5.367 -20.07
    endloop
  endfacet
  facet normal 0 -1 0
    outer loop
      vertex -3.40151 20.183 -18.47
      vertex -11.0015 20.183 -15.07
      vertex -4.0015 20.183 -18.47
    endloop
  endfacet
  facet normal 0 -1 0
    outer loop
      vertex -11.0015 20.183 -19.47
      vertex -4.0015 20.183 -18.47
      vertex -11.0015 20.183 -15.07
    endloop
  endfacet
  facet normal 0 -1 -0
    outer loop
      vertex -4.0015 20.183 -18.47
      vertex -11.0015 20.183 -19.47
      vertex -4.0015 20.183 -19.07
    endloop
  endfacet
  facet normal 0 -1 0
    outer loop
      vertex -4.0015 20.183 -20.07
      vertex -11.0015 20.183 -19.47
      vertex -11.0015 20.183 -20.07
    endloop
  endfacet
  facet normal 0 -1 0
    outer loop
      vertex -11.0015 20.183 -19.47
      vertex -4.0015 20.183 -20.07
      vertex -4.0015 20.183 -19.07
    endloop
  endfacet
  facet normal 0 -1 0
    outer loop
      vertex -11.0015 20.183 -15.07
      vertex -3.40151 20.183 -18.47
      vertex 7.9985 20.183 -15.07
    endloop
  endfacet
  facet normal 0 -1 0
    outer loop
      vertex 0.398509 20.183 -18.47
      vertex 7.9985 20.183 -15.07
      vertex -3.40151 20.183 -18.47
    endloop
  endfacet
  facet normal 0 -1 0
    outer loop
      vertex 0.9985 20.183 -18.47
      vertex 7.9985 20.183 -15.07
      vertex 0.398509 20.183 -18.47
    endloop
  endfacet
  facet normal 0 -1 0
    outer loop
      vertex 7.9985 20.183 -19.47
      vertex 0.9985 20.183 -18.47
      vertex 0.9985 20.183 -19.07
    endloop
  endfacet
  facet normal 0 -1 0
    outer loop
      vertex 0.9985 20.183 -18.47
      vertex 7.9985 20.183 -19.47
      vertex 7.9985 20.183 -15.07
    endloop
  endfacet
  facet normal 0 -1 0
    outer loop
      vertex 0.9985 20.183 -20.07
      vertex 7.9985 20.183 -19.47
      vertex 0.9985 20.183 -19.07
    endloop
  endfacet
  facet normal 0 -1 -0
    outer loop
      vertex 7.9985 20.183 -19.47
      vertex 0.9985 20.183 -20.07
      vertex 7.9985 20.183 -20.07
    endloop
  endfacet
  facet normal -1 0 0
    outer loop
      vertex 0.9985 20.183 -19.07
      vertex 0.9985 20.383 -18.47
      vertex 0.9985 20.383 -19.07
    endloop
  endfacet
  facet normal -1 -0 0
    outer loop
      vertex 0.9985 20.383 -18.47
      vertex 0.9985 20.183 -19.07
      vertex 0.9985 20.183 -18.47
    endloop
  endfacet
  facet normal -1 0 0
    outer loop
      vertex 0.9985 -5.567 -19.07
      vertex 0.9985 -5.367 -18.47
      vertex 0.9985 -5.367 -19.07
    endloop
  endfacet
  facet normal -1 -0 0
    outer loop
      vertex 0.9985 -5.367 -18.47
      vertex 0.9985 -5.567 -19.07
      vertex 0.9985 -5.567 -18.47
    endloop
  endfacet
  facet normal 1 -0 0
    outer loop
      vertex 0.9985 -5.367 -19.07
      vertex 0.9985 20.183 -20.07
      vertex 0.9985 20.183 -19.07
    endloop
  endfacet
  facet normal 1 0 0
    outer loop
      vertex 0.9985 20.183 -20.07
      vertex 0.9985 -5.367 -19.07
      vertex 0.9985 -5.367 -20.07
    endloop
  endfacet
  facet normal -1 0 0
    outer loop
      vertex 7.9985 -5.367 -19.47
      vertex 7.9985 20.183 -15.07
      vertex 7.9985 20.183 -19.47
    endloop
  endfacet
  facet normal -1 -0 0
    outer loop
      vertex 7.9985 20.183 -15.07
      vertex 7.9985 -5.367 -19.47
      vertex 7.9985 -5.367 -15.07
    endloop
  endfacet
  facet normal 1 -0 0
    outer loop
      vertex 7.9985 20.183 -19.47
      vertex 7.9985 20.383 -20.07
      vertex 7.9985 20.383 -19.47
    endloop
  endfacet
  facet normal 1 0 0
    outer loop
      vertex 7.9985 20.383 -20.07
      vertex 7.9985 20.183 -19.47
      vertex 7.9985 20.183 -20.07
    endloop
  endfacet
  facet normal 1 -0 0
    outer loop
      vertex 7.9985 -5.567 -19.47
      vertex 7.9985 -5.367 -20.07
      vertex 7.9985 -5.367 -19.47
    endloop
  endfacet
  facet normal 1 0 0
    outer loop
      vertex 7.9985 -5.367 -20.07
      vertex 7.9985 -5.567 -19.47
      vertex 7.9985 -5.567 -20.07
    endloop
  endfacet
  facet normal 0 0 -1
    outer loop
      vertex -11.0015 -5.367 -15.07
      vertex 7.9985 20.183 -15.07
      vertex 7.9985 -5.367 -15.07
    endloop
  endfacet
  facet normal -0 0 -1
    outer loop
      vertex 7.9985 20.183 -15.07
      vertex -11.0015 -5.367 -15.07
      vertex -11.0015 20.183 -15.07
    endloop
  endfacet
  facet normal 0 0 -1
    outer loop
      vertex 12.811 22.383 -15.07
      vertex 10.811 28.895 -15.07
      vertex 12.811 26.895 -15.07
    endloop
  endfacet
  facet normal 0 0 -1
    outer loop
      vertex 12.811 22.383 -15.07
      vertex -13.814 28.895 -15.07
      vertex 10.811 28.895 -15.07
    endloop
  endfacet
  facet normal 0 0 -1
    outer loop
      vertex -15.814 22.383 -15.07
      vertex -13.814 28.895 -15.07
      vertex 12.811 22.383 -15.07
    endloop
  endfacet
  facet normal 0 0 -1
    outer loop
      vertex -13.814 28.895 -15.07
      vertex -15.814 22.383 -15.07
      vertex -15.814 26.895 -15.07
    endloop
  endfacet
  facet normal 0 0 -1
    outer loop
      vertex 10.811 -14.079 -15.07
      vertex 12.811 -7.567 -15.07
      vertex 12.811 -12.079 -15.07
    endloop
  endfacet
  facet normal 0 0 -1
    outer loop
      vertex -13.814 -14.079 -15.07
      vertex 12.811 -7.567 -15.07
      vertex 10.811 -14.079 -15.07
    endloop
  endfacet
  facet normal 0 0 -1
    outer loop
      vertex -15.814 -7.567 -15.07
      vertex -13.814 -14.079 -15.07
      vertex -15.814 -12.079 -15.07
    endloop
  endfacet
  facet normal 0 0 -1
    outer loop
      vertex -13.814 -14.079 -15.07
      vertex -15.814 -7.567 -15.07
      vertex 12.811 -7.567 -15.07
    endloop
  endfacet
  facet normal 0 -1 0
    outer loop
      vertex -11.0015 20.383 -20.07
      vertex -11.0015 20.383 -19.47
      vertex -11.6015 20.383 -20.07
    endloop
  endfacet
  facet normal -0 0 -1
    outer loop
      vertex -4.0015 -5.367 -20.07
      vertex -11.0015 -5.567 -20.07
      vertex -11.0015 -5.367 -20.07
    endloop
  endfacet
  facet normal 0 0 -1
    outer loop
      vertex 7.9985 20.183 -20.07
      vertex 0.9985 20.183 -20.07
      vertex 7.9985 20.383 -20.07
    endloop
  endfacet
  facet normal 0 0 -1
    outer loop
      vertex 13.4735 -7.567 -20.07
      vertex 8.59849 -5.567 -20.07
      vertex 13.4735 22.383 -20.07
    endloop
  endfacet
  facet normal 0 0 -1
    outer loop
      vertex 13.4735 -7.567 -20.07
      vertex 7.9985 -5.567 -20.07
      vertex 8.59849 -5.567 -20.07
    endloop
  endfacet
  facet normal 0 0 -1
    outer loop
      vertex 7.9985 -5.567 -20.07
      vertex 0.9985 -5.367 -20.07
      vertex 7.9985 -5.367 -20.07
    endloop
  endfacet
  facet normal 0 0 -1
    outer loop
      vertex 13.4735 -7.567 -20.07
      vertex 0.9985 -5.367 -20.07
      vertex 7.9985 -5.567 -20.07
    endloop
  endfacet
  facet normal 0 0 -1
    outer loop
      vertex 0.9985 -5.367 -20.07
      vertex -4.0015 -5.367 -20.07
      vertex 0.9985 20.183 -20.07
    endloop
  endfacet
  facet normal 0 0 -1
    outer loop
      vertex 13.4735 -7.567 -20.07
      vertex -4.0015 -5.367 -20.07
      vertex 0.9985 -5.367 -20.07
    endloop
  endfacet
  facet normal 0 0 -1
    outer loop
      vertex -16.4765 -7.567 -20.07
      vertex -4.0015 -5.367 -20.07
      vertex 13.4735 -7.567 -20.07
    endloop
  endfacet
  facet normal 0 0 -1
    outer loop
      vertex -4.0015 -5.367 -20.07
      vertex -16.4765 -7.567 -20.07
      vertex -11.0015 -5.567 -20.07
    endloop
  endfacet
  facet normal -0 0 -1
    outer loop
      vertex -11.6015 -5.567 -20.07
      vertex -16.4765 -7.567 -20.07
      vertex -11.6015 20.383 -20.07
    endloop
  endfacet
  facet normal -0 0 -1
    outer loop
      vertex -11.0015 -5.567 -20.07
      vertex -16.4765 -7.567 -20.07
      vertex -11.6015 -5.567 -20.07
    endloop
  endfacet
  facet normal 0 0 -1
    outer loop
      vertex 8.59849 20.383 -20.07
      vertex 13.4735 22.383 -20.07
      vertex 8.59849 -5.567 -20.07
    endloop
  endfacet
  facet normal 0 0 -1
    outer loop
      vertex 7.9985 20.383 -20.07
      vertex 13.4735 22.383 -20.07
      vertex 8.59849 20.383 -20.07
    endloop
  endfacet
  facet normal 0 0 -1
    outer loop
      vertex 0.9985 20.183 -20.07
      vertex 13.4735 22.383 -20.07
      vertex 7.9985 20.383 -20.07
    endloop
  endfacet
  facet normal 0 0 -1
    outer loop
      vertex -4.0015 20.183 -20.07
      vertex 0.9985 20.183 -20.07
      vertex -4.0015 -5.367 -20.07
    endloop
  endfacet
  facet normal 0 0 -1
    outer loop
      vertex -4.0015 20.183 -20.07
      vertex 13.4735 22.383 -20.07
      vertex 0.9985 20.183 -20.07
    endloop
  endfacet
  facet normal 0 0 -1
    outer loop
      vertex -11.0015 20.383 -20.07
      vertex -4.0015 20.183 -20.07
      vertex -11.0015 20.183 -20.07
    endloop
  endfacet
  facet normal 0 0 -1
    outer loop
      vertex -16.4765 22.383 -20.07
      vertex -4.0015 20.183 -20.07
      vertex -11.0015 20.383 -20.07
    endloop
  endfacet
  facet normal 0 0 -1
    outer loop
      vertex -16.4765 22.383 -20.07
      vertex -11.0015 20.383 -20.07
      vertex -11.6015 20.383 -20.07
    endloop
  endfacet
  facet normal 0 0 -1
    outer loop
      vertex -4.0015 20.183 -20.07
      vertex -16.4765 22.383 -20.07
      vertex 13.4735 22.383 -20.07
    endloop
  endfacet
  facet normal 0 0 -1
    outer loop
      vertex -16.4765 22.383 -20.07
      vertex -11.6015 20.383 -20.07
      vertex -16.4765 -7.567 -20.07
    endloop
  endfacet
  facet normal 0 1 0
    outer loop
      vertex -11.0015 -5.567 -19.47
      vertex -11.0015 -5.567 -20.07
      vertex -11.6015 -5.567 -20.07
    endloop
  endfacet
  facet normal 0.707107 0 -0.707107
    outer loop
      vertex -11.0015 20.183 -19.47
      vertex -11.6015 20.383 -20.07
      vertex -11.0015 20.383 -19.47
    endloop
  endfacet
  facet normal 0.707107 0 -0.707107
    outer loop
      vertex -11.0015 -5.367 -19.47
      vertex -11.6015 20.383 -20.07
      vertex -11.0015 20.183 -19.47
    endloop
  endfacet
  facet normal 0.707107 0 -0.707107
    outer loop
      vertex -11.6015 -5.567 -20.07
      vertex -11.0015 -5.367 -19.47
      vertex -11.0015 -5.567 -19.47
    endloop
  endfacet
  facet normal 0.707107 0 -0.707107
    outer loop
      vertex -11.0015 -5.367 -19.47
      vertex -11.6015 -5.567 -20.07
      vertex -11.6015 20.383 -20.07
    endloop
  endfacet
  facet normal 0 -1 0
    outer loop
      vertex 8.59849 20.383 -20.07
      vertex 7.9985 20.383 -19.47
      vertex 7.9985 20.383 -20.07
    endloop
  endfacet
  facet normal -0.707113 0 -0.707101
    outer loop
      vertex 8.59849 20.383 -20.07
      vertex 7.9985 20.183 -19.47
      vertex 7.9985 20.383 -19.47
    endloop
  endfacet
  facet normal -0.707113 0 -0.707101
    outer loop
      vertex 8.59849 20.383 -20.07
      vertex 7.9985 -5.367 -19.47
      vertex 7.9985 20.183 -19.47
    endloop
  endfacet
  facet normal -0.707113 0 -0.707101
    outer loop
      vertex 8.59849 -5.567 -20.07
      vertex 7.9985 -5.367 -19.47
      vertex 8.59849 20.383 -20.07
    endloop
  endfacet
  facet normal -0.707113 -0 -0.707101
    outer loop
      vertex 7.9985 -5.367 -19.47
      vertex 8.59849 -5.567 -20.07
      vertex 7.9985 -5.567 -19.47
    endloop
  endfacet
  facet normal 0 1 0
    outer loop
      vertex 7.9985 -5.567 -19.47
      vertex 8.59849 -5.567 -20.07
      vertex 7.9985 -5.567 -20.07
    endloop
  endfacet
  facet normal -0 -1 0
    outer loop
      vertex -3.40151 20.383 -18.47
      vertex -4.0015 20.383 -18.47
      vertex -4.0015 20.383 -19.07
    endloop
  endfacet
  facet normal -0.707113 0 0.707101
    outer loop
      vertex -4.0015 20.183 -19.07
      vertex -3.40151 20.383 -18.47
      vertex -4.0015 20.383 -19.07
    endloop
  endfacet
  facet normal -0.707113 0 0.707101
    outer loop
      vertex -4.0015 20.183 -19.07
      vertex -3.40151 20.183 -18.47
      vertex -3.40151 20.383 -18.47
    endloop
  endfacet
  facet normal -0.707113 0 0.707101
    outer loop
      vertex -4.0015 -5.367 -19.07
      vertex -3.40151 20.183 -18.47
      vertex -4.0015 20.183 -19.07
    endloop
  endfacet
  facet normal -0.707113 0 0.707101
    outer loop
      vertex -4.0015 -5.367 -19.07
      vertex -3.40151 -5.367 -18.47
      vertex -3.40151 20.183 -18.47
    endloop
  endfacet
  facet normal -0.707113 0 0.707101
    outer loop
      vertex -4.0015 -5.567 -19.07
      vertex -3.40151 -5.367 -18.47
      vertex -4.0015 -5.367 -19.07
    endloop
  endfacet
  facet normal -0.707113 0 0.707101
    outer loop
      vertex -3.40151 -5.367 -18.47
      vertex -4.0015 -5.567 -19.07
      vertex -3.40151 -5.567 -18.47
    endloop
  endfacet
  facet normal -0 1 0
    outer loop
      vertex -4.0015 -5.567 -18.47
      vertex -3.40151 -5.567 -18.47
      vertex -4.0015 -5.567 -19.07
    endloop
  endfacet
  facet normal 0 -1 0
    outer loop
      vertex 0.9985 20.383 -19.07
      vertex 0.9985 20.383 -18.47
      vertex 0.398509 20.383 -18.47
    endloop
  endfacet
  facet normal 0.707112 -0 0.707101
    outer loop
      vertex 0.398509 20.183 -18.47
      vertex 0.9985 20.383 -19.07
      vertex 0.398509 20.383 -18.47
    endloop
  endfacet
  facet normal 0.707112 0 0.707101
    outer loop
      vertex 0.398509 20.183 -18.47
      vertex 0.9985 20.183 -19.07
      vertex 0.9985 20.383 -19.07
    endloop
  endfacet
  facet normal 0.707112 -0 0.707101
    outer loop
      vertex 0.398509 -5.367 -18.47
      vertex 0.9985 20.183 -19.07
      vertex 0.398509 20.183 -18.47
    endloop
  endfacet
  facet normal 0.707112 0 0.707101
    outer loop
      vertex 0.398509 -5.367 -18.47
      vertex 0.9985 -5.367 -19.07
      vertex 0.9985 20.183 -19.07
    endloop
  endfacet
  facet normal 0.707112 -0 0.707101
    outer loop
      vertex 0.398509 -5.567 -18.47
      vertex 0.9985 -5.367 -19.07
      vertex 0.398509 -5.367 -18.47
    endloop
  endfacet
  facet normal 0.707112 0 0.707101
    outer loop
      vertex 0.9985 -5.367 -19.07
      vertex 0.398509 -5.567 -18.47
      vertex 0.9985 -5.567 -19.07
    endloop
  endfacet
  facet normal 0 1 0
    outer loop
      vertex 0.9985 -5.567 -18.47
      vertex 0.9985 -5.567 -19.07
      vertex 0.398509 -5.567 -18.47
    endloop
  endfacet
  facet normal -1 0 0
    outer loop
      vertex -16.4765 -7.567 -20.07
      vertex -16.4765 22.383 -14.57
      vertex -16.4765 22.383 -20.07
    endloop
  endfacet
  facet normal -1 -0 0
    outer loop
      vertex -16.4765 22.383 -14.57
      vertex -16.4765 -7.567 -20.07
      vertex -16.4765 -7.567 -14.57
    endloop
  endfacet
  facet normal -0 0 1
    outer loop
      vertex 12.811 22.383 -14.57
      vertex 13.4735 -7.567 -14.57
      vertex 13.4735 22.383 -14.57
    endloop
  endfacet
  facet normal 0 0 1
    outer loop
      vertex 13.4735 -7.567 -14.57
      vertex 12.811 22.383 -14.57
      vertex 12.811 -7.567 -14.57
    endloop
  endfacet
  facet normal -0 0 1
    outer loop
      vertex -16.4765 22.383 -14.57
      vertex -15.814 -7.567 -14.57
      vertex -15.814 22.383 -14.57
    endloop
  endfacet
  facet normal 0 0 1
    outer loop
      vertex -15.814 -7.567 -14.57
      vertex -16.4765 22.383 -14.57
      vertex -16.4765 -7.567 -14.57
    endloop
  endfacet
  facet normal 1 -0 0
    outer loop
      vertex 13.4735 -7.567 -14.57
      vertex 13.4735 22.383 -20.07
      vertex 13.4735 22.383 -14.57
    endloop
  endfacet
  facet normal 1 0 0
    outer loop
      vertex 13.4735 22.383 -20.07
      vertex 13.4735 -7.567 -14.57
      vertex 13.4735 -7.567 -20.07
    endloop
  endfacet
  facet normal 0 1 0
    outer loop
      vertex 13.4735 22.383 -14.57
      vertex 12.811 22.383 -15.07
      vertex 12.811 22.383 -14.57
    endloop
  endfacet
  facet normal 0 1 0
    outer loop
      vertex 12.811 22.383 -15.07
      vertex 13.4735 22.383 -20.07
      vertex -15.814 22.383 -15.07
    endloop
  endfacet
  facet normal 0 1 -0
    outer loop
      vertex 13.4735 22.383 -20.07
      vertex 12.811 22.383 -15.07
      vertex 13.4735 22.383 -14.57
    endloop
  endfacet
  facet normal 0 1 -0
    outer loop
      vertex -15.814 22.383 -15.07
      vertex -16.4765 22.383 -14.57
      vertex -15.814 22.383 -14.57
    endloop
  endfacet
  facet normal 0 1 0
    outer loop
      vertex -15.814 22.383 -15.07
      vertex -16.4765 22.383 -20.07
      vertex -16.4765 22.383 -14.57
    endloop
  endfacet
  facet normal 0 1 0
    outer loop
      vertex -16.4765 22.383 -20.07
      vertex -15.814 22.383 -15.07
      vertex 13.4735 22.383 -20.07
    endloop
  endfacet
  facet normal 0 -1 0
    outer loop
      vertex -16.4765 -7.567 -14.57
      vertex -15.814 -7.567 -15.07
      vertex -15.814 -7.567 -14.57
    endloop
  endfacet
  facet normal 0 -1 -0
    outer loop
      vertex -15.814 -7.567 -15.07
      vertex -16.4765 -7.567 -20.07
      vertex 12.811 -7.567 -15.07
    endloop
  endfacet
  facet normal 0 -1 0
    outer loop
      vertex -16.4765 -7.567 -20.07
      vertex -15.814 -7.567 -15.07
      vertex -16.4765 -7.567 -14.57
    endloop
  endfacet
  facet normal 0 -1 0
    outer loop
      vertex 12.811 -7.567 -15.07
      vertex 13.4735 -7.567 -14.57
      vertex 12.811 -7.567 -14.57
    endloop
  endfacet
  facet normal 0 -1 0
    outer loop
      vertex 12.811 -7.567 -15.07
      vertex 13.4735 -7.567 -20.07
      vertex 13.4735 -7.567 -14.57
    endloop
  endfacet
  facet normal 0 -1 0
    outer loop
      vertex 13.4735 -7.567 -20.07
      vertex 12.811 -7.567 -15.07
      vertex -16.4765 -7.567 -20.07
    endloop
  endfacet
  facet normal -1 0 0
    outer loop
      vertex -15.814 -7.567 -15.07
      vertex -15.814 -12.079 -15.07
      vertex -15.814 -7.567 -14.57
    endloop
  endfacet
  facet normal -1 0 0
    outer loop
      vertex -15.814 22.383 -14.57
      vertex -15.814 26.895 -15.07
      vertex -15.814 22.383 -15.07
    endloop
  endfacet
  facet normal -1 0 0
    outer loop
      vertex -15.814 26.895 -15.07
      vertex -15.814 22.383 -14.57
      vertex -15.814 26.895 7.16
    endloop
  endfacet
  facet normal -1 0 0
    outer loop
      vertex -15.814 -7.567 -14.57
      vertex -15.814 26.895 7.16
      vertex -15.814 22.383 -14.57
    endloop
  endfacet
  facet normal -1 0 0
    outer loop
      vertex -15.814 -12.079 7.16
      vertex -15.814 -7.567 -14.57
      vertex -15.814 -12.079 -15.07
    endloop
  endfacet
  facet normal -1 0 0
    outer loop
      vertex -15.814 -7.567 -14.57
      vertex -15.814 -12.079 7.16
      vertex -15.814 26.895 7.16
    endloop
  endfacet
  facet normal -0 0 1
    outer loop
      vertex -13.814 28.895 7.16
      vertex 10.811 26.895 7.16
      vertex 10.811 28.895 7.16
    endloop
  endfacet
  facet normal 0 0 1
    outer loop
      vertex -13.814 28.895 7.16
      vertex -13.814 26.895 7.16
      vertex 10.811 26.895 7.16
    endloop
  endfacet
  facet normal 0 0 1
    outer loop
      vertex -15.814 26.895 7.16
      vertex -13.814 26.895 7.16
      vertex -13.814 28.895 7.16
    endloop
  endfacet
  facet normal 0 0 1
    outer loop
      vertex -13.814 26.895 7.16
      vertex -15.814 26.895 7.16
      vertex -13.814 -12.079 7.16
    endloop
  endfacet
  facet normal 0 0 1
    outer loop
      vertex -15.814 -12.079 7.16
      vertex -13.814 -12.079 7.16
      vertex -15.814 26.895 7.16
    endloop
  endfacet
  facet normal 0 0 1
    outer loop
      vertex -13.814 -12.079 7.16
      vertex -15.814 -12.079 7.16
      vertex -13.814 -14.079 7.16
    endloop
  endfacet
  facet normal 0 0 1
    outer loop
      vertex 10.811 26.895 7.16
      vertex 12.811 26.895 7.16
      vertex 10.811 28.895 7.16
    endloop
  endfacet
  facet normal 0 0 1
    outer loop
      vertex 12.811 26.895 7.16
      vertex 10.811 26.895 7.16
      vertex 12.811 -12.079 7.16
    endloop
  endfacet
  facet normal 0 0 1
    outer loop
      vertex 10.811 -12.079 7.16
      vertex 12.811 -12.079 7.16
      vertex 10.811 26.895 7.16
    endloop
  endfacet
  facet normal -0 0 1
    outer loop
      vertex 10.811 -12.079 7.16
      vertex 10.811 -14.079 7.16
      vertex 12.811 -12.079 7.16
    endloop
  endfacet
  facet normal -0 0 1
    outer loop
      vertex -13.814 -12.079 7.16
      vertex 10.811 -14.079 7.16
      vertex 10.811 -12.079 7.16
    endloop
  endfacet
  facet normal 0 0 1
    outer loop
      vertex 10.811 -14.079 7.16
      vertex -13.814 -12.079 7.16
      vertex -13.814 -14.079 7.16
    endloop
  endfacet
  facet normal 1 0 0
    outer loop
      vertex 12.811 26.895 7.16
      vertex 12.811 22.383 -14.57
      vertex 12.811 26.895 -15.07
    endloop
  endfacet
  facet normal 1 0 0
    outer loop
      vertex 12.811 26.895 7.16
      vertex 12.811 -7.567 -14.57
      vertex 12.811 22.383 -14.57
    endloop
  endfacet
  facet normal 1 -0 0
    outer loop
      vertex 12.811 -12.079 7.16
      vertex 12.811 -7.567 -14.57
      vertex 12.811 26.895 7.16
    endloop
  endfacet
  facet normal 1 0 0
    outer loop
      vertex 12.811 -12.079 -15.07
      vertex 12.811 -7.567 -14.57
      vertex 12.811 -12.079 7.16
    endloop
  endfacet
  facet normal 1 0 0
    outer loop
      vertex 12.811 -7.567 -14.57
      vertex 12.811 -12.079 -15.07
      vertex 12.811 -7.567 -15.07
    endloop
  endfacet
  facet normal 1 0 0
    outer loop
      vertex 12.811 26.895 -15.07
      vertex 12.811 22.383 -14.57
      vertex 12.811 22.383 -15.07
    endloop
  endfacet
  facet normal 0 1 0
    outer loop
      vertex 2.495 28.895 -0.45
      vertex 10.811 28.895 7.16
      vertex 8.495 28.895 -0.45
    endloop
  endfacet
  facet normal 0 1 0
    outer loop
      vertex 10.811 28.895 7.16
      vertex 8.495 28.895 -1.95
      vertex 8.495 28.895 -0.45
    endloop
  endfacet
  facet normal 0 1 0
    outer loop
      vertex 8.495 28.895 -1.95
      vertex 10.811 28.895 -15.07
      vertex 2.495 28.895 -1.95
    endloop
  endfacet
  facet normal 0 1 -0
    outer loop
      vertex 10.811 28.895 -15.07
      vertex 8.495 28.895 -1.95
      vertex 10.811 28.895 7.16
    endloop
  endfacet
  facet normal 0 1 0
    outer loop
      vertex 10.811 28.895 7.16
      vertex 2.495 28.895 -0.45
      vertex -13.814 28.895 7.16
    endloop
  endfacet
  facet normal 0 1 -0
    outer loop
      vertex 2.495 28.895 -1.95
      vertex -13.814 28.895 7.16
      vertex 2.495 28.895 -0.45
    endloop
  endfacet
  facet normal 0 1 0
    outer loop
      vertex -13.814 28.895 -15.07
      vertex 2.495 28.895 -1.95
      vertex 10.811 28.895 -15.07
    endloop
  endfacet
  facet normal 0 1 0
    outer loop
      vertex 2.495 28.895 -1.95
      vertex -13.814 28.895 -15.07
      vertex -13.814 28.895 7.16
    endloop
  endfacet
  facet normal 0 -1 0
    outer loop
      vertex -3.06 -14.079 4.78
      vertex -13.814 -14.079 7.16
      vertex -12.06 -14.079 4.78
    endloop
  endfacet
  facet normal 0 -1 0
    outer loop
      vertex -13.814 -14.079 7.16
      vertex -12.06 -14.079 1.6
      vertex -12.06 -14.079 4.78
    endloop
  endfacet
  facet normal 0 -1 0
    outer loop
      vertex -13.814 -14.079 -15.07
      vertex -3.06 -14.079 1.6
      vertex -12.06 -14.079 1.6
    endloop
  endfacet
  facet normal 0 -1 0
    outer loop
      vertex -3.06 -14.079 1.6
      vertex 2.495 -14.079 -1.95
      vertex 2.495 -14.079 -0.45
    endloop
  endfacet
  facet normal 0 -1 0
    outer loop
      vertex 10.811 -14.079 -15.07
      vertex 2.495 -14.079 -1.95
      vertex -13.814 -14.079 -15.07
    endloop
  endfacet
  facet normal 0 -1 -0
    outer loop
      vertex -3.06 -14.079 1.6
      vertex -13.814 -14.079 -15.07
      vertex 2.495 -14.079 -1.95
    endloop
  endfacet
  facet normal 0 -1 0
    outer loop
      vertex -13.814 -14.079 -15.07
      vertex -12.06 -14.079 1.6
      vertex -13.814 -14.079 7.16
    endloop
  endfacet
  facet normal 0 -1 0
    outer loop
      vertex -13.814 -14.079 7.16
      vertex -3.06 -14.079 4.78
      vertex 10.811 -14.079 7.16
    endloop
  endfacet
  facet normal 0 -1 0
    outer loop
      vertex 2.495 -14.079 -0.45
      vertex -3.06 -14.079 4.78
      vertex -3.06 -14.079 1.6
    endloop
  endfacet
  facet normal 0 -1 0
    outer loop
      vertex -3.06 -14.079 4.78
      vertex 2.495 -14.079 -0.45
      vertex 10.811 -14.079 7.16
    endloop
  endfacet
  facet normal 0 -1 0
    outer loop
      vertex 8.495 -14.079 -0.45
      vertex 10.811 -14.079 7.16
      vertex 2.495 -14.079 -0.45
    endloop
  endfacet
  facet normal 0 -1 0
    outer loop
      vertex 8.495 -14.079 -1.95
      vertex 10.811 -14.079 7.16
      vertex 8.495 -14.079 -0.45
    endloop
  endfacet
  facet normal 0 -1 0
    outer loop
      vertex 8.495 -14.079 -1.95
      vertex 10.811 -14.079 -15.07
      vertex 10.811 -14.079 7.16
    endloop
  endfacet
  facet normal 0 -1 0
    outer loop
      vertex 2.495 -14.079 -1.95
      vertex 10.811 -14.079 -15.07
      vertex 8.495 -14.079 -1.95
    endloop
  endfacet
  facet normal -0.707107 -0.707107 0
    outer loop
      vertex -13.814 -14.079 -15.07
      vertex -15.814 -12.079 7.16
      vertex -15.814 -12.079 -15.07
    endloop
  endfacet
  facet normal -0.707107 -0.707107 0
    outer loop
      vertex -15.814 -12.079 7.16
      vertex -13.814 -14.079 -15.07
      vertex -13.814 -14.079 7.16
    endloop
  endfacet
  facet normal -0.707107 0.707107 0
    outer loop
      vertex -15.814 26.895 -15.07
      vertex -13.814 28.895 7.16
      vertex -13.814 28.895 -15.07
    endloop
  endfacet
  facet normal -0.707107 0.707107 0
    outer loop
      vertex -13.814 28.895 7.16
      vertex -15.814 26.895 -15.07
      vertex -15.814 26.895 7.16
    endloop
  endfacet
  facet normal 0.707107 -0.707107 0
    outer loop
      vertex 10.811 -14.079 7.16
      vertex 12.811 -12.079 -15.07
      vertex 12.811 -12.079 7.16
    endloop
  endfacet
  facet normal 0.707107 -0.707107 0
    outer loop
      vertex 12.811 -12.079 -15.07
      vertex 10.811 -14.079 7.16
      vertex 10.811 -14.079 -15.07
    endloop
  endfacet
  facet normal 0.707107 0.707107 0
    outer loop
      vertex 12.811 26.895 7.16
      vertex 10.811 28.895 -15.07
      vertex 10.811 28.895 7.16
    endloop
  endfacet
  facet normal 0.707107 0.707107 0
    outer loop
      vertex 10.811 28.895 -15.07
      vertex 12.811 26.895 7.16
      vertex 12.811 26.895 -15.07
    endloop
  endfacet
  facet normal 1 -0 0
    outer loop
      vertex -12.614 -10.879 -0.0499992
      vertex -12.614 4.7 -13.07
      vertex -12.614 4.7 -0.0499992
    endloop
  endfacet
  facet normal 1 0 0
    outer loop
      vertex -12.614 4.7 -13.07
      vertex -12.614 -10.879 -0.0499992
      vertex -12.614 -10.879 -13.07
    endloop
  endfacet
  facet normal 1 -0 0
    outer loop
      vertex -12.614 7.5 -0.0499992
      vertex -12.614 25.695 -13.07
      vertex -12.614 25.695 -0.0499992
    endloop
  endfacet
  facet normal 1 0 0
    outer loop
      vertex -12.614 25.695 -13.07
      vertex -12.614 7.5 -0.0499992
      vertex -12.614 7.5 -13.07
    endloop
  endfacet
  facet normal 0 0 -1
    outer loop
      vertex 10.811 -2.3 0.0499992
      vertex 11.311 0.5 0.0499992
      vertex 11.311 -2.3 0.0499992
    endloop
  endfacet
  facet normal -0 0 -1
    outer loop
      vertex 11.311 0.5 0.0499992
      vertex 10.811 -2.3 0.0499992
      vertex 10.811 0.5 0.0499992
    endloop
  endfacet
  facet normal -1 0 0
    outer loop
      vertex 9.611 24.7 -13.07
      vertex 9.611 25.695 -0.0499992
      vertex 9.611 25.695 -13.07
    endloop
  endfacet
  facet normal -1 -0 0
    outer loop
      vertex 9.611 25.695 -0.0499992
      vertex 9.611 24.7 -13.07
      vertex 9.611 24.7 -0.0499992
    endloop
  endfacet
  facet normal -1 0 0
    outer loop
      vertex 9.611 -10.879 -13.07
      vertex 9.611 -2.3 -0.0499992
      vertex 9.611 -2.3 -13.07
    endloop
  endfacet
  facet normal -1 -0 0
    outer loop
      vertex 9.611 -2.3 -0.0499992
      vertex 9.611 -10.879 -13.07
      vertex 9.611 -10.879 -0.0499992
    endloop
  endfacet
  facet normal -1 0 0
    outer loop
      vertex 9.611 0.5 -13.07
      vertex 9.611 21.9 -0.0499992
      vertex 9.611 21.9 -13.07
    endloop
  endfacet
  facet normal -1 -0 0
    outer loop
      vertex 9.611 21.9 -0.0499992
      vertex 9.611 0.5 -13.07
      vertex 9.611 0.5 -0.0499992
    endloop
  endfacet
  facet normal 0 -1 0
    outer loop
      vertex -12.614 25.695 -0.0499992
      vertex 2.495 25.695 -0.45
      vertex 9.611 25.695 -0.0499992
    endloop
  endfacet
  facet normal 0 -1 0
    outer loop
      vertex -12.614 25.695 -0.0499992
      vertex 2.495 25.695 -1.95
      vertex 2.495 25.695 -0.45
    endloop
  endfacet
  facet normal 0 -1 0
    outer loop
      vertex 9.611 25.695 -13.07
      vertex 2.495 25.695 -1.95
      vertex -12.614 25.695 -13.07
    endloop
  endfacet
  facet normal 0 -1 0
    outer loop
      vertex -12.614 25.695 -13.07
      vertex 2.495 25.695 -1.95
      vertex -12.614 25.695 -0.0499992
    endloop
  endfacet
  facet normal 0 -1 0
    outer loop
      vertex 8.495 25.695 -0.45
      vertex 9.611 25.695 -0.0499992
      vertex 2.495 25.695 -0.45
    endloop
  endfacet
  facet normal 0 -1 0
    outer loop
      vertex 8.495 25.695 -1.95
      vertex 9.611 25.695 -0.0499992
      vertex 8.495 25.695 -0.45
    endloop
  endfacet
  facet normal 0 -1 0
    outer loop
      vertex 8.495 25.695 -1.95
      vertex 9.611 25.695 -13.07
      vertex 9.611 25.695 -0.0499992
    endloop
  endfacet
  facet normal 0 -1 0
    outer loop
      vertex 2.495 25.695 -1.95
      vertex 9.611 25.695 -13.07
      vertex 8.495 25.695 -1.95
    endloop
  endfacet
  facet normal -0 0 1
    outer loop
      vertex -13.114 7.5 -13.07
      vertex -12.614 4.7 -13.07
      vertex -12.614 7.5 -13.07
    endloop
  endfacet
  facet normal 0 0 1
    outer loop
      vertex -12.614 4.7 -13.07
      vertex -13.114 7.5 -13.07
      vertex -13.114 4.7 -13.07
    endloop
  endfacet
  facet normal -0 0 1
    outer loop
      vertex -12.614 25.695 -13.07
      vertex 9.611 24.7 -13.07
      vertex 9.611 25.695 -13.07
    endloop
  endfacet
  facet normal 0 0 1
    outer loop
      vertex 9.611 24.7 -13.07
      vertex -12.614 25.695 -13.07
      vertex 9.611 21.9 -13.07
    endloop
  endfacet
  facet normal 0 0 1
    outer loop
      vertex 9.611 21.9 -13.07
      vertex -12.614 7.5 -13.07
      vertex 9.611 0.5 -13.07
    endloop
  endfacet
  facet normal -0 0 1
    outer loop
      vertex -12.614 4.7 -13.07
      vertex 9.611 0.5 -13.07
      vertex -12.614 7.5 -13.07
    endloop
  endfacet
  facet normal 0 0 1
    outer loop
      vertex 9.611 21.9 -13.07
      vertex -12.614 25.695 -13.07
      vertex -12.614 7.5 -13.07
    endloop
  endfacet
  facet normal 0 0 1
    outer loop
      vertex 9.611 0.5 -13.07
      vertex -12.614 4.7 -13.07
      vertex 9.611 -2.3 -13.07
    endloop
  endfacet
  facet normal 0 0 1
    outer loop
      vertex -12.614 -10.879 -13.07
      vertex 9.611 -2.3 -13.07
      vertex -12.614 4.7 -13.07
    endloop
  endfacet
  facet normal 0 0 1
    outer loop
      vertex 9.611 -2.3 -13.07
      vertex -12.614 -10.879 -13.07
      vertex 9.611 -10.879 -13.07
    endloop
  endfacet
  facet normal -0 0 1
    outer loop
      vertex 9.611 24.7 -13.07
      vertex 11.311 21.9 -13.07
      vertex 11.311 24.7 -13.07
    endloop
  endfacet
  facet normal 0 0 1
    outer loop
      vertex 11.311 21.9 -13.07
      vertex 9.611 24.7 -13.07
      vertex 9.611 21.9 -13.07
    endloop
  endfacet
  facet normal -0 0 1
    outer loop
      vertex 9.611 0.5 -13.07
      vertex 11.311 -2.3 -13.07
      vertex 11.311 0.5 -13.07
    endloop
  endfacet
  facet normal 0 0 1
    outer loop
      vertex 11.311 -2.3 -13.07
      vertex 9.611 0.5 -13.07
      vertex 9.611 -2.3 -13.07
    endloop
  endfacet
  facet normal 0 1 0
    outer loop
      vertex 2.495 -10.879 -0.45
      vertex 9.611 -10.879 -0.0499992
      vertex 8.495 -10.879 -0.45
    endloop
  endfacet
  facet normal 0 1 0
    outer loop
      vertex 9.611 -10.879 -0.0499992
      vertex 8.495 -10.879 -1.95
      vertex 8.495 -10.879 -0.45
    endloop
  endfacet
  facet normal 0 1 0
    outer loop
      vertex 8.495 -10.879 -1.95
      vertex 9.611 -10.879 -13.07
      vertex 2.495 -10.879 -1.95
    endloop
  endfacet
  facet normal 0 1 -0
    outer loop
      vertex 9.611 -10.879 -13.07
      vertex 8.495 -10.879 -1.95
      vertex 9.611 -10.879 -0.0499992
    endloop
  endfacet
  facet normal 0 1 0
    outer loop
      vertex 9.611 -10.879 -0.0499992
      vertex 2.495 -10.879 -0.45
      vertex -12.614 -10.879 -0.0499992
    endloop
  endfacet
  facet normal 0 1 -0
    outer loop
      vertex 2.495 -10.879 -1.95
      vertex -12.614 -10.879 -0.0499992
      vertex 2.495 -10.879 -0.45
    endloop
  endfacet
  facet normal 0 1 0
    outer loop
      vertex -12.614 -10.879 -13.07
      vertex 2.495 -10.879 -1.95
      vertex 9.611 -10.879 -13.07
    endloop
  endfacet
  facet normal 0 1 0
    outer loop
      vertex 2.495 -10.879 -1.95
      vertex -12.614 -10.879 -13.07
      vertex -12.614 -10.879 -0.0499992
    endloop
  endfacet
  facet normal 1 -0 0
    outer loop
      vertex -13.814 -12.079 6.31
      vertex -13.814 26.895 -0.0499992
      vertex -13.814 26.895 6.31
    endloop
  endfacet
  facet normal 1 0 0
    outer loop
      vertex -13.814 26.895 -0.0499992
      vertex -13.814 -12.079 6.31
      vertex -13.814 -12.079 -0.0499992
    endloop
  endfacet
  facet normal 1 -0 0
    outer loop
      vertex -13.814 -12.079 7.16
      vertex -13.814 26.895 6.91
      vertex -13.814 26.895 7.16
    endloop
  endfacet
  facet normal 1 0 0
    outer loop
      vertex -13.814 26.895 6.91
      vertex -13.814 -12.079 7.16
      vertex -13.814 -12.079 6.91
    endloop
  endfacet
  facet normal -1 0 0
    outer loop
      vertex 10.811 -2.3 -0.0499992
      vertex 10.811 -12.079 -0.0499992
      vertex 10.811 -2.3 0.0499992
    endloop
  endfacet
  facet normal -1 0 0
    outer loop
      vertex 10.811 21.9 -0.0499992
      vertex 10.811 0.5 -0.0499992
      vertex 10.811 21.9 0.0499992
    endloop
  endfacet
  facet normal -1 0 0
    outer loop
      vertex 10.811 24.7 0.0499992
      vertex 10.811 26.895 -0.0499992
      vertex 10.811 24.7 -0.0499992
    endloop
  endfacet
  facet normal -1 0 0
    outer loop
      vertex 10.811 26.895 -0.0499992
      vertex 10.811 24.7 0.0499992
      vertex 10.811 26.895 6.31
    endloop
  endfacet
  facet normal -1 0 0
    outer loop
      vertex 10.811 21.9 0.0499992
      vertex 10.811 26.895 6.31
      vertex 10.811 24.7 0.0499992
    endloop
  endfacet
  facet normal -1 0 0
    outer loop
      vertex 10.811 0.5 0.0499992
      vertex 10.811 21.9 0.0499992
      vertex 10.811 0.5 -0.0499992
    endloop
  endfacet
  facet normal -1 0 0
    outer loop
      vertex 10.811 21.9 0.0499992
      vertex 10.811 0.5 0.0499992
      vertex 10.811 26.895 6.31
    endloop
  endfacet
  facet normal -1 0 0
    outer loop
      vertex 10.811 -12.079 6.31
      vertex 10.811 0.5 0.0499992
      vertex 10.811 -2.3 0.0499992
    endloop
  endfacet
  facet normal -1 0 0
    outer loop
      vertex 10.811 -12.079 6.31
      vertex 10.811 -2.3 0.0499992
      vertex 10.811 -12.079 -0.0499992
    endloop
  endfacet
  facet normal -1 0 0
    outer loop
      vertex 10.811 0.5 0.0499992
      vertex 10.811 -12.079 6.31
      vertex 10.811 26.895 6.31
    endloop
  endfacet
  facet normal -1 0 0
    outer loop
      vertex 10.811 -12.079 6.91
      vertex 10.811 26.895 7.16
      vertex 10.811 26.895 6.91
    endloop
  endfacet
  facet normal -1 -0 0
    outer loop
      vertex 10.811 26.895 7.16
      vertex 10.811 -12.079 6.91
      vertex 10.811 -12.079 7.16
    endloop
  endfacet
  facet normal 0 0 1
    outer loop
      vertex 10.811 26.895 -0.0499992
      vertex 9.611 25.695 -0.0499992
      vertex 10.811 24.7 -0.0499992
    endloop
  endfacet
  facet normal 0 0 1
    outer loop
      vertex 10.811 26.895 -0.0499992
      vertex -12.614 25.695 -0.0499992
      vertex 9.611 25.695 -0.0499992
    endloop
  endfacet
  facet normal 0 0 1
    outer loop
      vertex -12.614 25.695 -0.0499992
      vertex -13.114 7.5 -0.0499992
      vertex -12.614 7.5 -0.0499992
    endloop
  endfacet
  facet normal 0 0 1
    outer loop
      vertex -13.114 7.5 -0.0499992
      vertex -13.814 26.895 -0.0499992
      vertex -13.114 4.7 -0.0499992
    endloop
  endfacet
  facet normal 0 0 1
    outer loop
      vertex -12.614 25.695 -0.0499992
      vertex -13.814 26.895 -0.0499992
      vertex -13.114 7.5 -0.0499992
    endloop
  endfacet
  facet normal -0 0 1
    outer loop
      vertex -13.814 26.895 -0.0499992
      vertex -12.614 25.695 -0.0499992
      vertex 10.811 26.895 -0.0499992
    endloop
  endfacet
  facet normal 0 0 1
    outer loop
      vertex 10.811 24.7 -0.0499992
      vertex 9.611 25.695 -0.0499992
      vertex 9.611 24.7 -0.0499992
    endloop
  endfacet
  facet normal 0 0 1
    outer loop
      vertex -12.614 4.7 -0.0499992
      vertex -13.114 4.7 -0.0499992
      vertex -12.614 -10.879 -0.0499992
    endloop
  endfacet
  facet normal 0 0 1
    outer loop
      vertex 9.611 -10.879 -0.0499992
      vertex 10.811 -2.3 -0.0499992
      vertex 9.611 -2.3 -0.0499992
    endloop
  endfacet
  facet normal 0 0 1
    outer loop
      vertex 10.811 -2.3 -0.0499992
      vertex 9.611 -10.879 -0.0499992
      vertex 10.811 -12.079 -0.0499992
    endloop
  endfacet
  facet normal -0 0 1
    outer loop
      vertex -12.614 -10.879 -0.0499992
      vertex 10.811 -12.079 -0.0499992
      vertex 9.611 -10.879 -0.0499992
    endloop
  endfacet
  facet normal 0 0 1
    outer loop
      vertex -12.614 -10.879 -0.0499992
      vertex -13.814 -12.079 -0.0499992
      vertex 10.811 -12.079 -0.0499992
    endloop
  endfacet
  facet normal 0 0 1
    outer loop
      vertex -13.114 4.7 -0.0499992
      vertex -13.814 -12.079 -0.0499992
      vertex -12.614 -10.879 -0.0499992
    endloop
  endfacet
  facet normal 0 0 1
    outer loop
      vertex -13.814 -12.079 -0.0499992
      vertex -13.114 4.7 -0.0499992
      vertex -13.814 26.895 -0.0499992
    endloop
  endfacet
  facet normal -0 0 1
    outer loop
      vertex 9.611 21.9 -0.0499992
      vertex 10.811 0.5 -0.0499992
      vertex 10.811 21.9 -0.0499992
    endloop
  endfacet
  facet normal 0 0 1
    outer loop
      vertex 10.811 0.5 -0.0499992
      vertex 9.611 21.9 -0.0499992
      vertex 9.611 0.5 -0.0499992
    endloop
  endfacet
  facet normal 0 1 0
    outer loop
      vertex 10.411 -12.079 6.91
      vertex 10.811 -12.079 7.16
      vertex 10.811 -12.079 6.91
    endloop
  endfacet
  facet normal 0 1 0
    outer loop
      vertex 10.811 -12.079 7.16
      vertex 10.411 -12.079 6.91
      vertex -13.814 -12.079 7.16
    endloop
  endfacet
  facet normal 0 1 -0
    outer loop
      vertex -13.414 -12.079 6.91
      vertex -13.814 -12.079 7.16
      vertex 10.411 -12.079 6.91
    endloop
  endfacet
  facet normal 0 1 0
    outer loop
      vertex -13.414 -12.079 6.91
      vertex -13.814 -12.079 6.91
      vertex -13.814 -12.079 7.16
    endloop
  endfacet
  facet normal 0 1 0
    outer loop
      vertex -13.814 -12.079 6.31
      vertex -13.814 -12.079 6.91
      vertex -13.414 -12.079 6.91
    endloop
  endfacet
  facet normal 0 1 0
    outer loop
      vertex -13.814 -12.079 6.31
      vertex -13.414 -12.079 6.91
      vertex -13.414 -12.079 6.31
    endloop
  endfacet
  facet normal 0 1 0
    outer loop
      vertex -13.814 -12.079 6.91
      vertex -13.814 -12.079 6.31
      vertex -14.114 -12.079 6.91
    endloop
  endfacet
  facet normal 0 1 0
    outer loop
      vertex -14.114 -12.079 6.91
      vertex -13.814 -12.079 6.31
      vertex -14.114 -12.079 6.31
    endloop
  endfacet
  facet normal 0 1 0
    outer loop
      vertex 10.811 -12.079 6.31
      vertex 10.811 -12.079 6.91
      vertex 11.111 -12.079 6.91
    endloop
  endfacet
  facet normal 0 1 0
    outer loop
      vertex 10.811 -12.079 6.31
      vertex 11.111 -12.079 6.91
      vertex 11.111 -12.079 6.31
    endloop
  endfacet
  facet normal 0 1 0
    outer loop
      vertex 10.811 -12.079 6.91
      vertex 10.811 -12.079 6.31
      vertex 10.411 -12.079 6.91
    endloop
  endfacet
  facet normal 0 1 0
    outer loop
      vertex 10.811 -12.079 6.31
      vertex 10.411 -12.079 6.31
      vertex 10.411 -12.079 6.91
    endloop
  endfacet
  facet normal 0 1 -0
    outer loop
      vertex 10.811 -12.079 -0.0499992
      vertex 10.411 -12.079 6.31
      vertex 10.811 -12.079 6.31
    endloop
  endfacet
  facet normal 0 1 0
    outer loop
      vertex 10.411 -12.079 6.31
      vertex -3.06 -12.079 4.78
      vertex -13.414 -12.079 6.31
    endloop
  endfacet
  facet normal 0 1 -0
    outer loop
      vertex -12.06 -12.079 4.78
      vertex -13.414 -12.079 6.31
      vertex -3.06 -12.079 4.78
    endloop
  endfacet
  facet normal 0 1 0
    outer loop
      vertex 10.411 -12.079 6.31
      vertex -3.06 -12.079 1.6
      vertex -3.06 -12.079 4.78
    endloop
  endfacet
  facet normal 0 1 0
    outer loop
      vertex -13.814 -12.079 -0.0499992
      vertex -3.06 -12.079 1.6
      vertex 10.811 -12.079 -0.0499992
    endloop
  endfacet
  facet normal 0 1 0
    outer loop
      vertex 10.411 -12.079 6.31
      vertex 10.811 -12.079 -0.0499992
      vertex -3.06 -12.079 1.6
    endloop
  endfacet
  facet normal 0 1 0
    outer loop
      vertex -13.414 -12.079 6.31
      vertex -12.06 -12.079 4.78
      vertex -13.814 -12.079 6.31
    endloop
  endfacet
  facet normal 0 1 -0
    outer loop
      vertex -12.06 -12.079 1.6
      vertex -13.814 -12.079 6.31
      vertex -12.06 -12.079 4.78
    endloop
  endfacet
  facet normal 0 1 0
    outer loop
      vertex -12.06 -12.079 1.6
      vertex -13.814 -12.079 -0.0499992
      vertex -13.814 -12.079 6.31
    endloop
  endfacet
  facet normal 0 1 0
    outer loop
      vertex -3.06 -12.079 1.6
      vertex -13.814 -12.079 -0.0499992
      vertex -12.06 -12.079 1.6
    endloop
  endfacet
  facet normal 0 -1 0
    outer loop
      vertex -13.414 26.895 6.91
      vertex -13.814 26.895 7.16
      vertex -13.814 26.895 6.91
    endloop
  endfacet
  facet normal 0 -1 0
    outer loop
      vertex -13.814 26.895 7.16
      vertex -13.414 26.895 6.91
      vertex 10.811 26.895 7.16
    endloop
  endfacet
  facet normal 0 -1 0
    outer loop
      vertex 10.411 26.895 6.91
      vertex 10.811 26.895 7.16
      vertex -13.414 26.895 6.91
    endloop
  endfacet
  facet normal 0 -1 0
    outer loop
      vertex 10.411 26.895 6.91
      vertex 10.811 26.895 6.91
      vertex 10.811 26.895 7.16
    endloop
  endfacet
  facet normal 0 -1 0
    outer loop
      vertex 10.811 26.895 6.31
      vertex 10.811 26.895 6.91
      vertex 10.411 26.895 6.91
    endloop
  endfacet
  facet normal 0 -1 0
    outer loop
      vertex 10.811 26.895 6.31
      vertex 10.411 26.895 6.91
      vertex 10.411 26.895 6.31
    endloop
  endfacet
  facet normal 0 -1 0
    outer loop
      vertex 10.811 26.895 6.91
      vertex 10.811 26.895 6.31
      vertex 11.111 26.895 6.91
    endloop
  endfacet
  facet normal 0 -1 -0
    outer loop
      vertex 11.111 26.895 6.91
      vertex 10.811 26.895 6.31
      vertex 11.111 26.895 6.31
    endloop
  endfacet
  facet normal 0 -1 0
    outer loop
      vertex -13.814 26.895 6.31
      vertex -13.814 26.895 6.91
      vertex -14.114 26.895 6.91
    endloop
  endfacet
  facet normal 0 -1 0
    outer loop
      vertex -13.814 26.895 6.31
      vertex -14.114 26.895 6.91
      vertex -14.114 26.895 6.31
    endloop
  endfacet
  facet normal 0 -1 0
    outer loop
      vertex -13.814 26.895 6.91
      vertex -13.814 26.895 6.31
      vertex -13.414 26.895 6.91
    endloop
  endfacet
  facet normal 0 -1 0
    outer loop
      vertex -13.814 26.895 6.31
      vertex -13.414 26.895 6.31
      vertex -13.414 26.895 6.91
    endloop
  endfacet
  facet normal 0 -1 0
    outer loop
      vertex -13.814 26.895 -0.0499992
      vertex -13.414 26.895 6.31
      vertex -13.814 26.895 6.31
    endloop
  endfacet
  facet normal 0 -1 -0
    outer loop
      vertex -13.414 26.895 6.31
      vertex -13.814 26.895 -0.0499992
      vertex 10.411 26.895 6.31
    endloop
  endfacet
  facet normal 0 -1 0
    outer loop
      vertex 10.811 26.895 -0.0499992
      vertex 10.411 26.895 6.31
      vertex -13.814 26.895 -0.0499992
    endloop
  endfacet
  facet normal 0 -1 0
    outer loop
      vertex 10.411 26.895 6.31
      vertex 10.811 26.895 -0.0499992
      vertex 10.811 26.895 6.31
    endloop
  endfacet
  facet normal 1 -0 0
    outer loop
      vertex -12.06 -14.079 4.78
      vertex -12.06 -12.079 1.6
      vertex -12.06 -12.079 4.78
    endloop
  endfacet
  facet normal 1 0 0
    outer loop
      vertex -12.06 -12.079 1.6
      vertex -12.06 -14.079 4.78
      vertex -12.06 -14.079 1.6
    endloop
  endfacet
  facet normal 0 0 -1
    outer loop
      vertex -12.06 -14.079 4.78
      vertex -3.06 -12.079 4.78
      vertex -3.06 -14.079 4.78
    endloop
  endfacet
  facet normal -0 0 -1
    outer loop
      vertex -3.06 -12.079 4.78
      vertex -12.06 -14.079 4.78
      vertex -12.06 -12.079 4.78
    endloop
  endfacet
  facet normal -1 0 0
    outer loop
      vertex -3.06 -14.079 1.6
      vertex -3.06 -12.079 4.78
      vertex -3.06 -12.079 1.6
    endloop
  endfacet
  facet normal -1 -0 0
    outer loop
      vertex -3.06 -12.079 4.78
      vertex -3.06 -14.079 1.6
      vertex -3.06 -14.079 4.78
    endloop
  endfacet
  facet normal -0 0 1
    outer loop
      vertex -12.06 -12.079 1.6
      vertex -3.06 -14.079 1.6
      vertex -3.06 -12.079 1.6
    endloop
  endfacet
  facet normal 0 0 1
    outer loop
      vertex -3.06 -14.079 1.6
      vertex -12.06 -12.079 1.6
      vertex -12.06 -14.079 1.6
    endloop
  endfacet
  facet normal 1 -0 0
    outer loop
      vertex 2.495 25.695 -0.45
      vertex 2.495 28.895 -1.95
      vertex 2.495 28.895 -0.45
    endloop
  endfacet
  facet normal 1 0 0
    outer loop
      vertex 2.495 28.895 -1.95
      vertex 2.495 25.695 -0.45
      vertex 2.495 25.695 -1.95
    endloop
  endfacet
  facet normal 0 0 -1
    outer loop
      vertex 2.495 25.695 -0.45
      vertex 8.495 28.895 -0.45
      vertex 8.495 25.695 -0.45
    endloop
  endfacet
  facet normal -0 0 -1
    outer loop
      vertex 8.495 28.895 -0.45
      vertex 2.495 25.695 -0.45
      vertex 2.495 28.895 -0.45
    endloop
  endfacet
  facet normal -1 0 0
    outer loop
      vertex 8.495 25.695 -1.95
      vertex 8.495 28.895 -0.45
      vertex 8.495 28.895 -1.95
    endloop
  endfacet
  facet normal -1 -0 0
    outer loop
      vertex 8.495 28.895 -0.45
      vertex 8.495 25.695 -1.95
      vertex 8.495 25.695 -0.45
    endloop
  endfacet
  facet normal -0 0 1
    outer loop
      vertex 2.495 28.895 -1.95
      vertex 8.495 25.695 -1.95
      vertex 8.495 28.895 -1.95
    endloop
  endfacet
  facet normal 0 0 1
    outer loop
      vertex 8.495 25.695 -1.95
      vertex 2.495 28.895 -1.95
      vertex 2.495 25.695 -1.95
    endloop
  endfacet
  facet normal 1 -0 0
    outer loop
      vertex 2.495 -14.079 -0.45
      vertex 2.495 -10.879 -1.95
      vertex 2.495 -10.879 -0.45
    endloop
  endfacet
  facet normal 1 0 0
    outer loop
      vertex 2.495 -10.879 -1.95
      vertex 2.495 -14.079 -0.45
      vertex 2.495 -14.079 -1.95
    endloop
  endfacet
  facet normal 0 0 -1
    outer loop
      vertex 2.495 -14.079 -0.45
      vertex 8.495 -10.879 -0.45
      vertex 8.495 -14.079 -0.45
    endloop
  endfacet
  facet normal -0 0 -1
    outer loop
      vertex 8.495 -10.879 -0.45
      vertex 2.495 -14.079 -0.45
      vertex 2.495 -10.879 -0.45
    endloop
  endfacet
  facet normal -1 0 0
    outer loop
      vertex 8.495 -14.079 -1.95
      vertex 8.495 -10.879 -0.45
      vertex 8.495 -10.879 -1.95
    endloop
  endfacet
  facet normal -1 -0 0
    outer loop
      vertex 8.495 -10.879 -0.45
      vertex 8.495 -14.079 -1.95
      vertex 8.495 -14.079 -0.45
    endloop
  endfacet
  facet normal -0 0 1
    outer loop
      vertex 2.495 -10.879 -1.95
      vertex 8.495 -14.079 -1.95
      vertex 8.495 -10.879 -1.95
    endloop
  endfacet
  facet normal 0 0 1
    outer loop
      vertex 8.495 -14.079 -1.95
      vertex 2.495 -10.879 -1.95
      vertex 2.495 -14.079 -1.95
    endloop
  endfacet
  facet normal 0 0 -1
    outer loop
      vertex 10.811 21.9 0.0499992
      vertex 11.311 24.7 0.0499992
      vertex 11.311 21.9 0.0499992
    endloop
  endfacet
  facet normal -0 0 -1
    outer loop
      vertex 11.311 24.7 0.0499992
      vertex 10.811 21.9 0.0499992
      vertex 10.811 24.7 0.0499992
    endloop
  endfacet
  facet normal -1 0 0
    outer loop
      vertex 11.311 21.9 -13.07
      vertex 11.311 24.7 0.0499992
      vertex 11.311 24.7 -13.07
    endloop
  endfacet
  facet normal -1 -0 0
    outer loop
      vertex 11.311 24.7 0.0499992
      vertex 11.311 21.9 -13.07
      vertex 11.311 21.9 0.0499992
    endloop
  endfacet
  facet normal 0 -1 0
    outer loop
      vertex 9.611 24.7 -0.0499992
      vertex 9.611 24.7 -13.07
      vertex 10.811 24.7 -0.0499992
    endloop
  endfacet
  facet normal 0 -1 0
    outer loop
      vertex 10.811 24.7 -0.0499992
      vertex 11.311 24.7 0.0499992
      vertex 10.811 24.7 0.0499992
    endloop
  endfacet
  facet normal 0 -1 0
    outer loop
      vertex 11.311 24.7 -13.07
      vertex 10.811 24.7 -0.0499992
      vertex 9.611 24.7 -13.07
    endloop
  endfacet
  facet normal 0 -1 0
    outer loop
      vertex 10.811 24.7 -0.0499992
      vertex 11.311 24.7 -13.07
      vertex 11.311 24.7 0.0499992
    endloop
  endfacet
  facet normal 0 1 0
    outer loop
      vertex 11.311 21.9 0.0499992
      vertex 10.811 21.9 -0.0499992
      vertex 10.811 21.9 0.0499992
    endloop
  endfacet
  facet normal 0 1 -0
    outer loop
      vertex 11.311 21.9 -13.07
      vertex 10.811 21.9 -0.0499992
      vertex 11.311 21.9 0.0499992
    endloop
  endfacet
  facet normal 0 1 0
    outer loop
      vertex 9.611 21.9 -13.07
      vertex 10.811 21.9 -0.0499992
      vertex 11.311 21.9 -13.07
    endloop
  endfacet
  facet normal 0 1 0
    outer loop
      vertex 10.811 21.9 -0.0499992
      vertex 9.611 21.9 -13.07
      vertex 9.611 21.9 -0.0499992
    endloop
  endfacet
  facet normal -1 0 0
    outer loop
      vertex 11.311 -2.3 -13.07
      vertex 11.311 0.5 0.0499992
      vertex 11.311 0.5 -13.07
    endloop
  endfacet
  facet normal -1 -0 0
    outer loop
      vertex 11.311 0.5 0.0499992
      vertex 11.311 -2.3 -13.07
      vertex 11.311 -2.3 0.0499992
    endloop
  endfacet
  facet normal 0 -1 0
    outer loop
      vertex 9.611 0.5 -0.0499992
      vertex 9.611 0.5 -13.07
      vertex 10.811 0.5 -0.0499992
    endloop
  endfacet
  facet normal 0 -1 0
    outer loop
      vertex 10.811 0.5 -0.0499992
      vertex 11.311 0.5 0.0499992
      vertex 10.811 0.5 0.0499992
    endloop
  endfacet
  facet normal 0 -1 0
    outer loop
      vertex 11.311 0.5 -13.07
      vertex 10.811 0.5 -0.0499992
      vertex 9.611 0.5 -13.07
    endloop
  endfacet
  facet normal 0 -1 0
    outer loop
      vertex 10.811 0.5 -0.0499992
      vertex 11.311 0.5 -13.07
      vertex 11.311 0.5 0.0499992
    endloop
  endfacet
  facet normal 0 1 0
    outer loop
      vertex 11.311 -2.3 0.0499992
      vertex 10.811 -2.3 -0.0499992
      vertex 10.811 -2.3 0.0499992
    endloop
  endfacet
  facet normal 0 1 -0
    outer loop
      vertex 11.311 -2.3 -13.07
      vertex 10.811 -2.3 -0.0499992
      vertex 11.311 -2.3 0.0499992
    endloop
  endfacet
  facet normal 0 1 0
    outer loop
      vertex 9.611 -2.3 -13.07
      vertex 10.811 -2.3 -0.0499992
      vertex 11.311 -2.3 -13.07
    endloop
  endfacet
  facet normal 0 1 0
    outer loop
      vertex 10.811 -2.3 -0.0499992
      vertex 9.611 -2.3 -13.07
      vertex 9.611 -2.3 -0.0499992
    endloop
  endfacet
  facet normal 1 -0 0
    outer loop
      vertex -13.114 4.7 -0.0499992
      vertex -13.114 7.5 -13.07
      vertex -13.114 7.5 -0.0499992
    endloop
  endfacet
  facet normal 1 0 0
    outer loop
      vertex -13.114 7.5 -13.07
      vertex -13.114 4.7 -0.0499992
      vertex -13.114 4.7 -13.07
    endloop
  endfacet
  facet normal 0 -1 0
    outer loop
      vertex -13.114 7.5 -13.07
      vertex -12.614 7.5 -0.0499992
      vertex -13.114 7.5 -0.0499992
    endloop
  endfacet
  facet normal 0 -1 -0
    outer loop
      vertex -12.614 7.5 -0.0499992
      vertex -13.114 7.5 -13.07
      vertex -12.614 7.5 -13.07
    endloop
  endfacet
  facet normal 0 1 -0
    outer loop
      vertex -12.614 4.7 -13.07
      vertex -13.114 4.7 -0.0499992
      vertex -12.614 4.7 -0.0499992
    endloop
  endfacet
  facet normal 0 1 0
    outer loop
      vertex -13.114 4.7 -0.0499992
      vertex -12.614 4.7 -13.07
      vertex -13.114 4.7 -13.07
    endloop
  endfacet
  facet normal 1 -0 0
    outer loop
      vertex -14.114 -12.079 6.91
      vertex -14.114 26.895 6.31
      vertex -14.114 26.895 6.91
    endloop
  endfacet
  facet normal 1 0 0
    outer loop
      vertex -14.114 26.895 6.31
      vertex -14.114 -12.079 6.91
      vertex -14.114 -12.079 6.31
    endloop
  endfacet
  facet normal 0 0 -1
    outer loop
      vertex -14.114 -12.079 6.91
      vertex -13.814 26.895 6.91
      vertex -13.814 -12.079 6.91
    endloop
  endfacet
  facet normal -0 0 -1
    outer loop
      vertex -13.814 26.895 6.91
      vertex -14.114 -12.079 6.91
      vertex -14.114 26.895 6.91
    endloop
  endfacet
  facet normal -0 0 1
    outer loop
      vertex -14.114 26.895 6.31
      vertex -13.814 -12.079 6.31
      vertex -13.814 26.895 6.31
    endloop
  endfacet
  facet normal 0 0 1
    outer loop
      vertex -13.814 -12.079 6.31
      vertex -14.114 26.895 6.31
      vertex -14.114 -12.079 6.31
    endloop
  endfacet
  facet normal 0 0 -1
    outer loop
      vertex 10.811 -12.079 6.91
      vertex 11.111 26.895 6.91
      vertex 11.111 -12.079 6.91
    endloop
  endfacet
  facet normal -0 0 -1
    outer loop
      vertex 11.111 26.895 6.91
      vertex 10.811 -12.079 6.91
      vertex 10.811 26.895 6.91
    endloop
  endfacet
  facet normal -1 0 0
    outer loop
      vertex 11.111 -12.079 6.31
      vertex 11.111 26.895 6.91
      vertex 11.111 26.895 6.31
    endloop
  endfacet
  facet normal -1 -0 0
    outer loop
      vertex 11.111 26.895 6.91
      vertex 11.111 -12.079 6.31
      vertex 11.111 -12.079 6.91
    endloop
  endfacet
  facet normal -0 0 1
    outer loop
      vertex 10.811 26.895 6.31
      vertex 11.111 -12.079 6.31
      vertex 11.111 26.895 6.31
    endloop
  endfacet
  facet normal 0 0 1
    outer loop
      vertex 11.111 -12.079 6.31
      vertex 10.811 26.895 6.31
      vertex 10.811 -12.079 6.31
    endloop
  endfacet
  facet normal 1 -0 0
    outer loop
      vertex -13.414 26.895 6.91
      vertex -13.414 27.295 6.31
      vertex -13.414 27.295 6.91
    endloop
  endfacet
  facet normal 1 0 0
    outer loop
      vertex -13.414 27.295 6.31
      vertex -13.414 26.895 6.91
      vertex -13.414 26.895 6.31
    endloop
  endfacet
  facet normal 0 0 -1
    outer loop
      vertex -13.414 26.895 6.91
      vertex 10.411 27.295 6.91
      vertex 10.411 26.895 6.91
    endloop
  endfacet
  facet normal -0 0 -1
    outer loop
      vertex 10.411 27.295 6.91
      vertex -13.414 26.895 6.91
      vertex -13.414 27.295 6.91
    endloop
  endfacet
  facet normal -1 0 0
    outer loop
      vertex 10.411 26.895 6.31
      vertex 10.411 27.295 6.91
      vertex 10.411 27.295 6.31
    endloop
  endfacet
  facet normal -1 -0 0
    outer loop
      vertex 10.411 27.295 6.91
      vertex 10.411 26.895 6.31
      vertex 10.411 26.895 6.91
    endloop
  endfacet
  facet normal 0 -1 0
    outer loop
      vertex -13.414 27.295 6.31
      vertex 10.411 27.295 6.91
      vertex -13.414 27.295 6.91
    endloop
  endfacet
  facet normal 0 -1 -0
    outer loop
      vertex 10.411 27.295 6.91
      vertex -13.414 27.295 6.31
      vertex 10.411 27.295 6.31
    endloop
  endfacet
  facet normal -0 0 1
    outer loop
      vertex -13.414 27.295 6.31
      vertex 10.411 26.895 6.31
      vertex 10.411 27.295 6.31
    endloop
  endfacet
  facet normal 0 0 1
    outer loop
      vertex 10.411 26.895 6.31
      vertex -13.414 27.295 6.31
      vertex -13.414 26.895 6.31
    endloop
  endfacet
  facet normal 1 -0 0
    outer loop
      vertex -13.414 -12.479 6.91
      vertex -13.414 -12.079 6.31
      vertex -13.414 -12.079 6.91
    endloop
  endfacet
  facet normal 1 0 0
    outer loop
      vertex -13.414 -12.079 6.31
      vertex -13.414 -12.479 6.91
      vertex -13.414 -12.479 6.31
    endloop
  endfacet
  facet normal 0 0 -1
    outer loop
      vertex -13.414 -12.479 6.91
      vertex 10.411 -12.079 6.91
      vertex 10.411 -12.479 6.91
    endloop
  endfacet
  facet normal -0 0 -1
    outer loop
      vertex 10.411 -12.079 6.91
      vertex -13.414 -12.479 6.91
      vertex -13.414 -12.079 6.91
    endloop
  endfacet
  facet normal -1 0 0
    outer loop
      vertex 10.411 -12.479 6.31
      vertex 10.411 -12.079 6.91
      vertex 10.411 -12.079 6.31
    endloop
  endfacet
  facet normal -1 -0 0
    outer loop
      vertex 10.411 -12.079 6.91
      vertex 10.411 -12.479 6.31
      vertex 10.411 -12.479 6.91
    endloop
  endfacet
  facet normal -0 0 1
    outer loop
      vertex -13.414 -12.079 6.31
      vertex 10.411 -12.479 6.31
      vertex 10.411 -12.079 6.31
    endloop
  endfacet
  facet normal 0 0 1
    outer loop
      vertex 10.411 -12.479 6.31
      vertex -13.414 -12.079 6.31
      vertex -13.414 -12.479 6.31
    endloop
  endfacet
  facet normal 0 1 -0
    outer loop
      vertex 10.411 -12.479 6.31
      vertex -13.414 -12.479 6.91
      vertex 10.411 -12.479 6.91
    endloop
  endfacet
  facet normal 0 1 0
    outer loop
      vertex -13.414 -12.479 6.91
      vertex 10.411 -12.479 6.31
      vertex -13.414 -12.479 6.31
    endloop
  endfacet
endsolid OpenSCAD_Model
